<?xml version="1.0" encoding="UTF-8"?><svg xmlns="http://www.w3.org/2000/svg" xmlns:xlink="http://www.w3.org/1999/xlink" contentScriptType="text/ecmascript" width="375" zoomAndPan="magnify" contentStyleType="text/css" viewBox="0 0 375 374.999991" height="374.999991" preserveAspectRatio="xMidYMid meet" version="1.0"><defs><clipPath id="clip-0"><path d="M 1.570312 68.503906 L 373.570312 68.503906 L 373.570312 306.253906 L 1.570312 306.253906 Z M 1.570312 68.503906 " clip-rule="nonzero"/></clipPath></defs><path fill="rgb(87.059021%, 19.999695%, 36.859131%)" d="M 131.898438 274.035156 L 131.898438 300.914062 L 197.679688 300.914062 L 197.679688 274.035156 C 196.597656 275.101562 195.46875 276.113281 194.285156 277.074219 C 193.105469 278.03125 191.882812 278.929688 190.613281 279.769531 C 189.34375 280.605469 188.039062 281.382812 186.695312 282.09375 C 185.351562 282.804688 183.976562 283.449219 182.570312 284.027344 C 181.164062 284.605469 179.730469 285.113281 178.273438 285.550781 C 176.816406 285.988281 175.34375 286.355469 173.851562 286.648438 C 172.359375 286.945312 170.855469 287.164062 169.34375 287.3125 C 167.828125 287.460938 166.3125 287.535156 164.789062 287.535156 C 163.269531 287.535156 161.75 287.460938 160.238281 287.3125 C 158.722656 287.164062 157.21875 286.945312 155.726562 286.648438 C 154.234375 286.355469 152.761719 285.988281 151.304688 285.550781 C 149.847656 285.113281 148.417969 284.605469 147.007812 284.027344 C 145.601562 283.449219 144.226562 282.804688 142.882812 282.09375 C 141.539062 281.382812 140.234375 280.605469 138.964844 279.769531 C 137.695312 278.929688 136.472656 278.03125 135.292969 277.074219 C 134.113281 276.113281 132.980469 275.101562 131.898438 274.035156 Z M 131.898438 274.035156 " fill-opacity="1" fill-rule="evenodd"/><path fill="rgb(87.059021%, 19.999695%, 36.859131%)" d="M 131.898438 172.832031 L 131.898438 207.59375 C 132.980469 206.523438 134.113281 205.511719 135.292969 204.554688 C 136.472656 203.597656 137.699219 202.699219 138.96875 201.859375 C 140.234375 201.023438 141.542969 200.25 142.886719 199.539062 C 144.230469 198.828125 145.605469 198.183594 147.011719 197.605469 C 148.417969 197.027344 149.851562 196.519531 151.304688 196.082031 C 152.761719 195.644531 154.238281 195.28125 155.730469 194.984375 C 157.222656 194.691406 158.722656 194.472656 160.238281 194.324219 C 161.75 194.175781 163.269531 194.101562 164.789062 194.101562 C 166.308594 194.101562 167.828125 194.175781 169.339844 194.324219 C 170.855469 194.472656 172.359375 194.691406 173.851562 194.984375 C 175.34375 195.28125 176.816406 195.644531 178.273438 196.082031 C 179.730469 196.519531 181.160156 197.027344 182.566406 197.605469 C 183.972656 198.183594 185.351562 198.828125 186.695312 199.539062 C 188.039062 200.25 189.34375 201.023438 190.613281 201.859375 C 191.878906 202.699219 193.105469 203.597656 194.285156 204.554688 C 195.464844 205.511719 196.597656 206.523438 197.679688 207.59375 L 197.679688 172.832031 Z M 131.898438 172.832031 " fill-opacity="1" fill-rule="evenodd"/><path fill="rgb(87.059021%, 19.999695%, 36.859131%)" d="M 135.671875 149.933594 C 138.523438 148.0625 141.621094 142.558594 143.003906 136.542969 C 146.820312 119.984375 130.171875 110.058594 127.261719 129.957031 C 117.6875 123.738281 104.390625 131.496094 114.753906 141.722656 C 120.734375 147.636719 132.644531 151.292969 135.671875 149.933594 Z M 135.671875 149.933594 " fill-opacity="1" fill-rule="evenodd"/><path fill="rgb(87.059021%, 19.999695%, 36.859131%)" d="M 157.746094 113.011719 C 160.109375 112.542969 163.617188 109.785156 166.132812 106.175781 C 173.070312 96.367188 164.839844 85.421875 157.578125 97.632812 C 152.980469 91.003906 142.175781 92.507812 146.230469 101.980469 C 148.585938 107.519531 155.394531 113.097656 157.746094 113.011719 Z M 157.746094 113.011719 " fill-opacity="1" fill-rule="evenodd"/><path fill="rgb(87.059021%, 19.999695%, 36.859131%)" d="M 122.925781 103.84375 C 124.847656 103.195312 127.476562 100.503906 129.203125 97.238281 C 133.9375 88.277344 125.867188 80.015625 121.136719 91.035156 C 116.566406 85.988281 107.710938 88.421875 112.109375 95.90625 C 114.660156 100.230469 120.964844 104.160156 122.925781 103.84375 Z M 122.925781 103.84375 " fill-opacity="1" fill-rule="evenodd"/><path fill="rgb(96.078491%, 67.449951%, 21.569824%)" d="M 131.898438 274.035156 L 131.898438 300.914062 L 97.992188 300.914062 L 97.992188 172.832031 L 131.898438 172.832031 L 131.898438 207.59375 L 131.710938 207.78125 C 130.628906 208.863281 129.601562 209.992188 128.628906 211.175781 C 127.65625 212.359375 126.742188 213.585938 125.890625 214.859375 C 125.039062 216.132812 124.253906 217.441406 123.53125 218.792969 C 122.808594 220.140625 122.152344 221.523438 121.566406 222.9375 C 120.980469 224.351562 120.464844 225.789062 120.019531 227.253906 C 119.574219 228.71875 119.203125 230.199219 118.902344 231.703125 C 118.605469 233.203125 118.378906 234.714844 118.230469 236.238281 C 118.078125 237.761719 118.003906 239.285156 118.003906 240.816406 C 118.003906 242.347656 118.078125 243.875 118.230469 245.398438 C 118.378906 246.917969 118.605469 248.433594 118.902344 249.933594 C 119.203125 251.433594 119.574219 252.914062 120.019531 254.378906 C 120.464844 255.84375 120.980469 257.285156 121.566406 258.699219 C 122.152344 260.109375 122.808594 261.492188 123.53125 262.84375 C 124.253906 264.191406 125.039062 265.503906 125.890625 266.773438 C 126.742188 268.046875 127.65625 269.273438 128.628906 270.457031 C 129.601562 271.640625 130.628906 272.773438 131.710938 273.855469 Z M 131.898438 274.035156 " fill-opacity="1" fill-rule="evenodd"/><path fill="rgb(96.078491%, 67.449951%, 21.569824%)" d="M 97.992188 210.179688 L 97.992188 172.832031 L 131.898438 172.832031 L 131.898438 207.59375 L 131.710938 207.78125 C 130.933594 208.558594 130.179688 209.359375 129.460938 210.179688 Z M 97.992188 210.179688 " fill-opacity="1" fill-rule="evenodd"/><path fill="rgb(97.648621%, 90.589905%, 5.879211%)" d="M 74.25 172.832031 L 97.992188 172.832031 L 97.992188 300.898438 L 74.25 300.898438 Z M 74.25 172.832031 " fill-opacity="1" fill-rule="nonzero"/><path fill="rgb(100%, 93.328857%, 37.249756%)" d="M 74.25 172.832031 L 97.992188 172.832031 L 97.992188 210.1875 L 74.25 210.1875 Z M 74.25 172.832031 " fill-opacity="1" fill-rule="nonzero"/><path fill="rgb(53.729248%, 78.42865%, 71.759033%)" d="M 74.25 172.832031 L 74.25 300.914062 L 72.539062 300.914062 C 71.800781 300.914062 71.070312 300.839844 70.347656 300.691406 C 69.625 300.546875 68.921875 300.332031 68.238281 300.050781 C 67.558594 299.769531 66.914062 299.421875 66.300781 299.011719 C 65.6875 298.601562 65.117188 298.136719 64.597656 297.617188 C 64.074219 297.09375 63.609375 296.527344 63.199219 295.917969 C 62.789062 295.304688 62.441406 294.660156 62.160156 293.976562 C 61.875 293.296875 61.660156 292.597656 61.515625 291.875 C 61.371094 291.152344 61.296875 290.421875 61.292969 289.6875 L 61.292969 184.050781 C 61.296875 183.316406 61.371094 182.585938 61.515625 181.863281 C 61.664062 181.140625 61.878906 180.4375 62.160156 179.757812 C 62.445312 179.078125 62.792969 178.429688 63.203125 177.820312 C 63.613281 177.207031 64.082031 176.640625 64.605469 176.121094 C 65.125 175.597656 65.695312 175.132812 66.308594 174.726562 C 66.921875 174.316406 67.570312 173.96875 68.253906 173.6875 C 68.933594 173.40625 69.636719 173.195312 70.363281 173.050781 C 71.085938 172.90625 71.816406 172.832031 72.554688 172.832031 Z M 74.25 172.832031 " fill-opacity="1" fill-rule="evenodd"/><path fill="rgb(78.42865%, 89.7995%, 87.449646%)" d="M 68.070312 299.957031 C 67.070312 299.523438 66.152344 298.953125 65.320312 298.25 C 64.484375 297.546875 63.769531 296.742188 63.167969 295.832031 C 62.566406 294.921875 62.109375 293.945312 61.792969 292.902344 C 61.476562 291.859375 61.316406 290.792969 61.3125 289.703125 L 61.3125 184.050781 C 61.316406 182.960938 61.480469 181.894531 61.796875 180.855469 C 62.113281 179.8125 62.570312 178.835938 63.167969 177.925781 C 63.769531 177.015625 64.484375 176.207031 65.320312 175.507812 C 66.15625 174.804688 67.070312 174.234375 68.070312 173.796875 Z M 68.070312 299.957031 " fill-opacity="1" fill-rule="evenodd"/><path fill="rgb(78.42865%, 89.7995%, 88.238525%)" d="M 74.25 172.832031 L 74.25 210.179688 L 61.3125 210.179688 L 61.3125 184.050781 C 61.3125 183.316406 61.386719 182.585938 61.535156 181.863281 C 61.679688 181.144531 61.894531 180.441406 62.175781 179.761719 C 62.460938 179.082031 62.808594 178.4375 63.21875 177.824219 C 63.628906 177.210938 64.09375 176.644531 64.613281 176.125 C 65.136719 175.605469 65.703125 175.140625 66.316406 174.730469 C 66.929688 174.320312 67.578125 173.976562 68.257812 173.695312 C 68.9375 173.410156 69.640625 173.199219 70.363281 173.050781 C 71.085938 172.90625 71.816406 172.835938 72.554688 172.832031 Z M 74.25 172.832031 " fill-opacity="1" fill-rule="evenodd"/><path fill="rgb(89.019775%, 94.898987%, 94.509888%)" d="M 68.070312 210.179688 L 61.3125 210.179688 L 61.3125 184.050781 C 61.316406 182.960938 61.480469 181.894531 61.796875 180.855469 C 62.113281 179.8125 62.570312 178.835938 63.167969 177.925781 C 63.769531 177.015625 64.484375 176.207031 65.320312 175.507812 C 66.15625 174.804688 67.070312 174.234375 68.070312 173.796875 Z M 68.070312 210.179688 " fill-opacity="1" fill-rule="evenodd"/><path fill="rgb(100%, 100%, 100%)" d="M 164.789062 290.039062 C 166.402344 290.039062 168.015625 289.957031 169.621094 289.800781 C 171.226562 289.640625 172.820312 289.40625 174.40625 289.089844 C 175.988281 288.777344 177.550781 288.386719 179.097656 287.917969 C 180.640625 287.449219 182.160156 286.90625 183.648438 286.289062 C 185.140625 285.671875 186.597656 284.984375 188.023438 284.222656 C 189.445312 283.464844 190.828125 282.636719 192.171875 281.742188 C 193.511719 280.84375 194.808594 279.886719 196.054688 278.863281 C 197.300781 277.839844 198.496094 276.757812 199.636719 275.617188 C 200.78125 274.480469 201.863281 273.285156 202.886719 272.039062 C 203.910156 270.792969 204.871094 269.5 205.765625 268.160156 C 206.664062 266.820312 207.492188 265.4375 208.253906 264.015625 C 209.015625 262.59375 209.703125 261.140625 210.320312 259.648438 C 210.9375 258.160156 211.480469 256.644531 211.949219 255.101562 C 212.417969 253.558594 212.8125 251.996094 213.125 250.414062 C 213.441406 248.835938 213.675781 247.242188 213.835938 245.636719 C 213.992188 244.03125 214.074219 242.425781 214.074219 240.8125 C 214.074219 239.199219 213.992188 237.59375 213.835938 235.988281 C 213.675781 234.382812 213.441406 232.789062 213.125 231.210938 C 212.808594 229.628906 212.417969 228.066406 211.949219 226.523438 C 211.480469 224.980469 210.9375 223.464844 210.320312 221.976562 C 209.703125 220.484375 209.011719 219.03125 208.25 217.609375 C 207.492188 216.1875 206.660156 214.804688 205.765625 213.464844 C 204.867188 212.125 203.90625 210.832031 202.882812 209.585938 C 201.859375 208.339844 200.777344 207.144531 199.632812 206.003906 C 198.492188 204.867188 197.296875 203.785156 196.050781 202.761719 C 194.800781 201.738281 193.507812 200.78125 192.164062 199.882812 C 190.824219 198.988281 189.441406 198.160156 188.015625 197.402344 C 186.59375 196.640625 185.136719 195.953125 183.644531 195.335938 C 182.152344 194.71875 180.632812 194.175781 179.089844 193.707031 C 177.542969 193.238281 175.980469 192.847656 174.398438 192.535156 C 172.8125 192.21875 171.21875 191.984375 169.613281 191.824219 C 168.003906 191.667969 166.394531 191.589844 164.78125 191.589844 C 163.167969 191.589844 161.554688 191.667969 159.949219 191.824219 C 158.34375 191.984375 156.746094 192.21875 155.164062 192.535156 C 153.582031 192.847656 152.015625 193.242188 150.472656 193.707031 C 148.925781 194.175781 147.410156 194.71875 145.917969 195.335938 C 144.425781 195.953125 142.96875 196.640625 141.542969 197.402344 C 140.121094 198.160156 138.738281 198.988281 137.394531 199.886719 C 136.054688 200.78125 134.757812 201.738281 133.511719 202.761719 C 132.261719 203.785156 131.066406 204.867188 129.925781 206.007812 C 128.785156 207.148438 127.703125 208.339844 126.675781 209.585938 C 125.652344 210.832031 124.691406 212.125 123.796875 213.464844 C 122.898438 214.804688 122.070312 216.1875 121.308594 217.609375 C 120.546875 219.03125 119.859375 220.488281 119.242188 221.976562 C 118.625 223.464844 118.082031 224.980469 117.613281 226.523438 C 117.144531 228.066406 116.75 229.628906 116.4375 231.210938 C 116.121094 232.792969 115.882812 234.382812 115.726562 235.988281 C 115.566406 237.59375 115.488281 239.199219 115.488281 240.8125 C 115.492188 242.425781 115.574219 244.03125 115.734375 245.636719 C 115.894531 247.238281 116.136719 248.832031 116.453125 250.410156 C 116.769531 251.992188 117.164062 253.550781 117.632812 255.09375 C 118.101562 256.632812 118.648438 258.148438 119.265625 259.636719 C 119.886719 261.125 120.578125 262.582031 121.339844 264 C 122.101562 265.421875 122.929688 266.800781 123.828125 268.140625 C 124.722656 269.480469 125.683594 270.773438 126.710938 272.019531 C 127.734375 273.265625 128.816406 274.457031 129.957031 275.59375 C 131.097656 276.734375 132.292969 277.816406 133.539062 278.839844 C 134.785156 279.859375 136.082031 280.820312 137.421875 281.714844 C 138.765625 282.613281 140.144531 283.441406 141.570312 284.199219 C 142.992188 284.960938 144.449219 285.648438 145.9375 286.269531 C 147.429688 286.886719 148.945312 287.429688 150.488281 287.898438 C 152.03125 288.367188 153.597656 288.761719 155.179688 289.078125 C 156.761719 289.394531 158.355469 289.632812 159.960938 289.792969 C 161.566406 289.953125 163.175781 290.035156 164.789062 290.039062 Z M 164.789062 290.039062 " fill-opacity="1" fill-rule="evenodd"/><path fill="rgb(12.548828%, 19.999695%, 26.669312%)" d="M 190.519531 215.117188 C 191.363281 215.960938 192.160156 216.839844 192.917969 217.761719 C 193.675781 218.679688 194.382812 219.636719 195.046875 220.625 C 195.707031 221.613281 196.320312 222.632812 196.882812 223.683594 C 197.441406 224.734375 197.953125 225.808594 198.40625 226.90625 C 198.863281 228.007812 199.265625 229.125 199.609375 230.265625 C 199.957031 231.402344 200.246094 232.558594 200.480469 233.722656 C 200.710938 234.890625 200.886719 236.066406 201.003906 237.253906 C 201.121094 238.4375 201.179688 239.625 201.179688 240.8125 C 201.179688 242.003906 201.121094 243.191406 201.003906 244.375 C 200.886719 245.558594 200.710938 246.734375 200.480469 247.902344 C 200.246094 249.070312 199.957031 250.222656 199.609375 251.363281 C 199.265625 252.5 198.863281 253.621094 198.40625 254.71875 C 197.953125 255.820312 197.441406 256.894531 196.882812 257.945312 C 196.320312 258.992188 195.707031 260.011719 195.046875 261.003906 C 194.382812 261.992188 193.675781 262.949219 192.917969 263.867188 C 192.160156 264.789062 191.363281 265.667969 190.519531 266.511719 C 189.675781 267.351562 188.796875 268.148438 187.875 268.90625 C 186.953125 269.660156 185.996094 270.367188 185.003906 271.027344 C 184.015625 271.691406 182.992188 272.300781 181.941406 272.863281 C 180.890625 273.421875 179.816406 273.933594 178.714844 274.386719 C 177.613281 274.84375 176.492188 275.242188 175.351562 275.589844 C 174.210938 275.933594 173.058594 276.222656 171.886719 276.457031 C 170.71875 276.6875 169.542969 276.863281 168.355469 276.980469 C 167.167969 277.09375 165.980469 277.152344 164.789062 277.152344 C 163.597656 277.152344 162.40625 277.09375 161.222656 276.980469 C 160.035156 276.863281 158.859375 276.6875 157.6875 276.457031 C 156.519531 276.222656 155.367188 275.933594 154.226562 275.589844 C 153.085938 275.242188 151.964844 274.84375 150.863281 274.386719 C 149.761719 273.933594 148.6875 273.421875 147.636719 272.863281 C 146.582031 272.300781 145.5625 271.691406 144.570312 271.027344 C 143.582031 270.367188 142.625 269.660156 141.703125 268.90625 C 140.78125 268.148438 139.898438 267.351562 139.058594 266.511719 C 138.214844 265.667969 137.414062 264.789062 136.660156 263.867188 C 135.902344 262.949219 135.195312 261.992188 134.53125 261.003906 C 133.871094 260.011719 133.257812 258.992188 132.695312 257.945312 C 132.132812 256.894531 131.625 255.820312 131.167969 254.71875 C 130.714844 253.621094 130.3125 252.5 129.964844 251.363281 C 129.621094 250.222656 129.332031 249.070312 129.097656 247.902344 C 128.867188 246.734375 128.691406 245.558594 128.574219 244.375 C 128.457031 243.191406 128.398438 242.003906 128.398438 240.8125 C 128.398438 239.625 128.457031 238.4375 128.574219 237.253906 C 128.691406 236.066406 128.867188 234.890625 129.097656 233.722656 C 129.332031 232.558594 129.621094 231.402344 129.964844 230.265625 C 130.3125 229.125 130.714844 228.007812 131.167969 226.90625 C 131.625 225.808594 132.132812 224.734375 132.695312 223.683594 C 133.257812 222.632812 133.871094 221.613281 134.53125 220.625 C 135.195312 219.636719 135.902344 218.679688 136.660156 217.761719 C 137.414062 216.839844 138.214844 215.960938 139.058594 215.117188 C 139.898438 214.277344 140.78125 213.476562 141.703125 212.722656 C 142.625 211.96875 143.582031 211.261719 144.570312 210.597656 C 145.5625 209.9375 146.582031 209.328125 147.636719 208.765625 C 148.6875 208.203125 149.761719 207.695312 150.863281 207.242188 C 151.964844 206.785156 153.085938 206.382812 154.226562 206.039062 C 155.367188 205.695312 156.519531 205.40625 157.6875 205.171875 C 158.859375 204.941406 160.035156 204.765625 161.222656 204.648438 C 162.40625 204.53125 163.597656 204.472656 164.789062 204.472656 C 165.980469 204.472656 167.167969 204.53125 168.355469 204.648438 C 169.542969 204.765625 170.71875 204.941406 171.886719 205.171875 C 173.058594 205.40625 174.210938 205.695312 175.351562 206.039062 C 176.492188 206.382812 177.613281 206.785156 178.714844 207.242188 C 179.816406 207.695312 180.890625 208.203125 181.941406 208.765625 C 182.992188 209.328125 184.015625 209.9375 185.003906 210.597656 C 185.996094 211.261719 186.953125 211.96875 187.875 212.722656 C 188.796875 213.476562 189.675781 214.277344 190.519531 215.117188 Z M 190.519531 215.117188 " fill-opacity="1" fill-rule="nonzero"/><path fill="rgb(100%, 100%, 100%)" d="M 244.796875 185.410156 L 221.140625 185.410156 L 220.703125 185.855469 L 220.824219 197.476562 L 221.140625 197.613281 L 244.796875 197.613281 L 245.242188 197.160156 L 245.125 185.539062 Z M 244.796875 185.410156 " fill-opacity="1" fill-rule="evenodd"/><path fill="rgb(53.729248%, 78.42865%, 71.759033%)" d="M 199.886719 209.941406 C 200.859375 211.042969 201.777344 212.1875 202.640625 213.375 C 203.503906 214.5625 204.3125 215.789062 205.058594 217.054688 C 205.808594 218.316406 206.496094 219.613281 207.121094 220.941406 C 207.746094 222.269531 208.308594 223.625 208.804688 225.003906 C 209.304688 226.386719 209.734375 227.789062 210.101562 229.210938 C 210.46875 230.632812 210.765625 232.070312 210.996094 233.519531 C 211.226562 234.96875 211.386719 236.425781 211.476562 237.890625 C 211.570312 239.355469 211.59375 240.824219 211.546875 242.292969 C 211.5 243.757812 211.386719 245.21875 211.203125 246.675781 C 211.019531 248.132812 210.765625 249.578125 210.445312 251.011719 C 210.125 252.445312 209.738281 253.859375 209.28125 255.253906 C 208.828125 256.652344 208.308594 258.023438 207.726562 259.371094 C 207.140625 260.71875 206.496094 262.035156 205.789062 263.320312 C 205.078125 264.609375 204.3125 265.859375 203.484375 267.074219 C 202.660156 268.289062 201.777344 269.460938 200.839844 270.589844 C 199.902344 271.722656 198.914062 272.808594 197.875 273.847656 L 197.6875 274.035156 L 197.6875 300.914062 L 257.035156 300.914062 C 257.769531 300.914062 258.5 300.839844 259.226562 300.695312 C 259.949219 300.550781 260.652344 300.335938 261.332031 300.054688 C 262.011719 299.769531 262.660156 299.425781 263.273438 299.015625 C 263.886719 298.605469 264.453125 298.140625 264.976562 297.617188 C 265.496094 297.097656 265.964844 296.53125 266.375 295.917969 C 266.785156 295.304688 267.128906 294.660156 267.414062 293.980469 C 267.695312 293.300781 267.910156 292.597656 268.054688 291.875 C 268.199219 291.152344 268.273438 290.425781 268.277344 289.6875 L 268.277344 210.222656 L 200.109375 210.222656 C 200.039062 210.105469 199.957031 210.027344 199.886719 209.941406 Z M 199.886719 209.941406 " fill-opacity="1" fill-rule="nonzero"/><path fill="rgb(53.729248%, 78.42865%, 71.759033%)" d="M 197.679688 172.832031 L 197.679688 207.59375 L 197.808594 207.71875 L 197.679688 207.59375 Z M 197.679688 172.832031 " fill-opacity="1" fill-rule="nonzero"/><path fill="rgb(53.729248%, 78.42865%, 71.759033%)" d="M 227.90625 160.28125 L 231.253906 166.167969 Z M 227.90625 160.28125 " fill-opacity="1" fill-rule="nonzero"/><path fill="rgb(70.979309%, 86.669922%, 83.918762%)" d="M 268.265625 184.050781 C 268.265625 183.316406 268.191406 182.585938 268.046875 181.863281 C 267.898438 181.144531 267.6875 180.441406 267.402344 179.761719 C 267.117188 179.082031 266.773438 178.4375 266.363281 177.824219 C 265.953125 177.210938 265.484375 176.644531 264.964844 176.125 C 264.441406 175.605469 263.875 175.140625 263.261719 174.730469 C 262.648438 174.320312 262.003906 173.976562 261.320312 173.695312 C 260.640625 173.410156 259.9375 173.199219 259.214844 173.050781 C 258.492188 172.90625 257.761719 172.835938 257.023438 172.832031 L 197.679688 172.832031 L 197.679688 207.59375 L 197.808594 207.71875 L 197.867188 207.78125 C 198.5625 208.480469 199.226562 209.207031 199.886719 209.941406 C 199.957031 210.027344 200.039062 210.105469 200.109375 210.179688 L 268.265625 210.179688 Z M 268.265625 184.050781 " fill-opacity="1" fill-rule="nonzero"/><path fill="rgb(70.979309%, 86.669922%, 83.918762%)" d="M 231.886719 167.289062 L 231.246094 166.167969 L 227.898438 160.28125 L 226.804688 158.359375 C 226.277344 157.433594 225.546875 156.722656 224.605469 156.222656 C 223.511719 155.664062 222.351562 155.398438 221.125 155.417969 L 162.941406 155.417969 C 161.714844 155.394531 160.550781 155.664062 159.460938 156.222656 C 158.519531 156.722656 157.785156 157.433594 157.261719 158.359375 L 152.179688 167.289062 Z M 231.886719 167.289062 " fill-opacity="1" fill-rule="nonzero"/><path fill="rgb(97.648621%, 79.60968%, 50.588989%)" d="M 112.136719 167.46875 L 112.136719 161.554688 C 112.136719 161.296875 112.085938 161.050781 111.988281 160.8125 C 111.890625 160.574219 111.75 160.363281 111.566406 160.183594 C 111.382812 160 111.175781 159.859375 110.9375 159.761719 C 110.699219 159.664062 110.449219 159.613281 110.191406 159.613281 L 85.535156 159.613281 C 85 159.613281 84.542969 159.800781 84.164062 160.179688 C 83.785156 160.558594 83.597656 161.019531 83.59375 161.554688 L 83.59375 167.46875 Z M 112.136719 167.46875 " fill-opacity="1" fill-rule="evenodd"/><path fill="rgb(96.078491%, 67.449951%, 21.569824%)" d="M 112.136719 167.46875 L 112.136719 161.554688 C 112.136719 161.28125 112.082031 161.019531 111.972656 160.769531 C 111.800781 160.714844 111.621094 160.691406 111.441406 160.691406 L 86.785156 160.691406 C 86.527344 160.695312 86.28125 160.746094 86.042969 160.84375 C 85.804688 160.941406 85.597656 161.082031 85.414062 161.265625 C 85.234375 161.445312 85.09375 161.65625 84.992188 161.890625 C 84.894531 162.128906 84.84375 162.375 84.839844 162.632812 L 84.839844 167.46875 Z M 112.136719 167.46875 " fill-opacity="1" fill-rule="evenodd"/><path fill="rgb(77.648926%, 15.689087%, 33.329773%)" d="M 197.679688 200.945312 L 197.679688 194.878906 C 193.949219 193.011719 190.050781 191.601562 185.988281 190.644531 C 181.925781 189.6875 177.808594 189.214844 173.636719 189.222656 C 172.234375 189.222656 170.847656 189.273438 169.46875 189.375 C 174.648438 189.839844 179.640625 191.058594 184.449219 193.03125 C 189.257812 195 193.667969 197.640625 197.679688 200.945312 Z M 197.679688 200.945312 " fill-opacity="1" fill-rule="evenodd"/><path fill="rgb(77.648926%, 15.689087%, 33.329773%)" d="M 197.679688 280.714844 C 195.9375 282.144531 194.109375 283.457031 192.199219 284.648438 C 190.285156 285.839844 188.304688 286.902344 186.25 287.835938 C 184.199219 288.769531 182.09375 289.5625 179.941406 290.222656 C 177.785156 290.882812 175.59375 291.398438 173.371094 291.769531 C 171.148438 292.144531 168.910156 292.371094 166.65625 292.453125 C 164.402344 292.535156 162.15625 292.46875 159.910156 292.257812 C 157.664062 292.046875 155.445312 291.6875 153.246094 291.1875 C 151.046875 290.683594 148.894531 290.042969 146.777344 289.261719 C 148.695312 290.363281 150.671875 291.347656 152.710938 292.207031 C 154.75 293.070312 156.835938 293.800781 158.964844 294.40625 C 161.09375 295.007812 163.25 295.480469 165.4375 295.816406 C 167.625 296.152344 169.824219 296.355469 172.039062 296.421875 C 174.25 296.488281 176.457031 296.417969 178.660156 296.210938 C 180.863281 296.003906 183.046875 295.664062 185.207031 295.1875 C 187.371094 294.714844 189.492188 294.105469 191.582031 293.371094 C 193.667969 292.632812 195.699219 291.769531 197.679688 290.78125 Z M 197.679688 280.714844 " fill-opacity="1" fill-rule="evenodd"/><path fill="rgb(100%, 100%, 100%)" d="M 205.523438 213.09375 C 206.542969 214.585938 207.476562 216.125 208.332031 217.71875 L 205.523438 217.71875 Z M 205.523438 213.09375 " fill-opacity="1" fill-rule="evenodd"/><path fill="rgb(47.44873%, 69.40918%, 63.919067%)" d="M 204.722656 207.96875 L 214.449219 207.96875 C 209.734375 202.46875 204.140625 198.09375 197.664062 194.84375 L 197.664062 200.945312 C 198.945312 202.003906 200.1875 203.132812 201.367188 204.300781 C 202.546875 205.472656 203.675781 206.675781 204.722656 207.96875 Z M 204.722656 207.96875 " fill-opacity="1" fill-rule="evenodd"/><path fill="rgb(47.44873%, 69.40918%, 63.919067%)" d="M 268.265625 217.71875 L 268.265625 212.402344 L 205.523438 212.402344 L 205.523438 217.71875 L 211.085938 217.71875 C 211.6875 218.921875 212.242188 220.144531 212.746094 221.390625 C 213.253906 222.640625 213.710938 223.902344 214.117188 225.183594 C 214.523438 226.46875 214.878906 227.761719 215.1875 229.074219 C 215.492188 230.382812 215.746094 231.703125 215.949219 233.03125 C 216.152344 234.363281 216.300781 235.699219 216.398438 237.039062 C 216.496094 238.382812 216.542969 239.726562 216.535156 241.070312 C 216.53125 242.414062 216.472656 243.757812 216.359375 245.097656 C 216.246094 246.4375 216.082031 247.773438 215.867188 249.101562 C 215.652344 250.425781 215.382812 251.746094 215.066406 253.050781 C 214.746094 254.359375 214.375 255.652344 213.957031 256.929688 C 213.535156 258.207031 213.066406 259.464844 212.550781 260.707031 C 212.03125 261.949219 211.464844 263.167969 210.851562 264.367188 C 210.238281 265.5625 209.578125 266.734375 208.871094 267.882812 C 208.167969 269.027344 207.417969 270.144531 206.625 271.230469 C 205.832031 272.320312 205 273.375 204.125 274.398438 C 203.25 275.417969 202.335938 276.40625 201.382812 277.359375 C 200.203125 278.535156 198.960938 279.65625 197.679688 280.714844 L 197.679688 290.796875 C 199.273438 290 200.828125 289.125 202.335938 288.171875 C 203.84375 287.21875 205.300781 286.191406 206.707031 285.09375 C 208.113281 283.996094 209.464844 282.832031 210.753906 281.601562 C 212.042969 280.367188 213.269531 279.074219 214.429688 277.722656 C 215.589844 276.367188 216.683594 274.960938 217.703125 273.496094 C 218.722656 272.035156 219.667969 270.523438 220.539062 268.96875 C 221.410156 267.410156 222.199219 265.816406 222.910156 264.179688 C 223.621094 262.546875 224.246094 260.878906 224.792969 259.179688 C 225.335938 257.484375 225.796875 255.761719 226.167969 254.019531 C 226.539062 252.277344 226.824219 250.519531 227.023438 248.746094 C 227.21875 246.976562 227.328125 245.199219 227.347656 243.414062 C 227.367188 241.632812 227.300781 239.855469 227.144531 238.078125 C 226.984375 236.304688 226.738281 234.539062 226.40625 232.789062 C 226.074219 231.035156 225.652344 229.304688 225.148438 227.597656 C 224.640625 225.886719 224.050781 224.207031 223.378906 222.558594 C 222.703125 220.90625 221.949219 219.292969 221.113281 217.71875 Z M 268.265625 217.71875 " fill-opacity="1" fill-rule="evenodd"/><g clip-path="url(#clip-0)"><path fill="rgb(12.548828%, 19.999695%, 26.669312%)" d="M 307.90625 92.539062 C 256.734375 55.253906 227.4375 65.503906 205.902344 94.992188 C 194.941406 110.003906 186.273438 129.957031 177.667969 150.992188 L 162.96875 150.992188 C 161 150.976562 159.148438 151.421875 157.40625 152.335938 C 155.703125 153.230469 154.378906 154.515625 153.4375 156.1875 L 147.011719 167.476562 L 116.59375 167.476562 L 116.59375 161.554688 C 116.59375 161.136719 116.550781 160.71875 116.46875 160.308594 C 116.386719 159.898438 116.265625 159.5 116.105469 159.113281 C 115.941406 158.726562 115.746094 158.359375 115.511719 158.011719 C 115.28125 157.660156 115.015625 157.339844 114.71875 157.042969 C 114.421875 156.746094 114.097656 156.484375 113.75 156.25 C 113.402344 156.015625 113.035156 155.820312 112.644531 155.660156 C 112.257812 155.5 111.859375 155.378906 111.449219 155.296875 C 111.035156 155.214844 110.621094 155.171875 110.203125 155.171875 L 85.535156 155.171875 C 85.113281 155.171875 84.699219 155.214844 84.289062 155.296875 C 83.878906 155.378906 83.480469 155.5 83.09375 155.664062 C 82.707031 155.824219 82.335938 156.019531 81.988281 156.253906 C 81.640625 156.484375 81.320312 156.75 81.023438 157.046875 C 80.726562 157.34375 80.460938 157.664062 80.230469 158.011719 C 79.996094 158.359375 79.800781 158.726562 79.640625 159.113281 C 79.480469 159.5 79.355469 159.898438 79.273438 160.3125 C 79.191406 160.722656 79.152344 161.136719 79.152344 161.554688 L 79.152344 167.46875 L 72.554688 167.46875 C 70.351562 167.46875 68.238281 167.894531 66.203125 168.738281 C 64.171875 169.582031 62.378906 170.78125 60.824219 172.335938 C 59.265625 173.886719 58.0625 175.675781 57.21875 177.707031 C 56.375 179.734375 55.949219 181.847656 55.945312 184.042969 L 55.945312 201.695312 C 54.957031 201.707031 53.992188 201.871094 53.054688 202.191406 C 52.117188 202.507812 51.253906 202.964844 50.464844 203.5625 C 49.675781 204.15625 48.996094 204.863281 48.433594 205.675781 C 47.871094 206.488281 47.449219 207.371094 47.167969 208.316406 C 38.160156 209.171875 30.730469 210.882812 24.75 213.375 C 17.683594 216.289062 12.59375 220.210938 9.238281 224.664062 L 9.042969 224.511719 C 8.832031 224.351562 8.597656 224.242188 8.34375 224.179688 C 8.085938 224.121094 7.832031 224.113281 7.570312 224.160156 C 7.3125 224.203125 7.074219 224.300781 6.855469 224.445312 C 6.636719 224.59375 6.453125 224.777344 6.3125 224.996094 C 4.164062 228.300781 2.804688 231.902344 2.230469 235.796875 C 1.59375 240.511719 2.023438 245.128906 3.523438 249.648438 C 7.707031 262.710938 24.109375 268.292969 42.179688 270.410156 C 46.722656 270.949219 51.371094 271.265625 55.9375 271.445312 L 55.9375 289.679688 C 55.941406 291.875 56.367188 293.988281 57.210938 296.015625 C 58.054688 298.042969 59.257812 299.832031 60.816406 301.382812 C 62.371094 302.945312 64.164062 304.144531 66.199219 304.988281 C 68.234375 305.832031 70.351562 306.253906 72.554688 306.253906 L 257.023438 306.253906 C 257.566406 306.253906 258.109375 306.226562 258.652344 306.171875 C 259.191406 306.117188 259.730469 306.035156 260.261719 305.929688 C 260.792969 305.824219 261.320312 305.691406 261.839844 305.53125 C 262.359375 305.371094 262.871094 305.191406 263.375 304.980469 C 263.875 304.773438 264.367188 304.539062 264.84375 304.285156 C 265.324219 304.027344 265.789062 303.75 266.242188 303.445312 C 266.691406 303.144531 267.128906 302.820312 267.550781 302.476562 C 267.96875 302.132812 268.371094 301.769531 268.753906 301.386719 C 269.140625 301 269.503906 300.597656 269.847656 300.179688 C 270.195312 299.761719 270.519531 299.324219 270.820312 298.875 C 271.121094 298.421875 271.402344 297.957031 271.660156 297.480469 C 271.914062 297 272.148438 296.511719 272.355469 296.011719 C 272.566406 295.507812 272.75 295 272.90625 294.480469 C 273.066406 293.960938 273.199219 293.433594 273.304688 292.902344 C 273.414062 292.371094 273.492188 291.835938 273.546875 291.292969 C 273.601562 290.753906 273.628906 290.214844 273.632812 289.671875 L 273.632812 220.117188 C 274.84375 220.109375 276.007812 219.867188 277.125 219.402344 C 278.242188 218.933594 279.226562 218.273438 280.082031 217.417969 C 280.886719 216.621094 281.519531 215.707031 281.984375 214.675781 C 282.449219 213.644531 282.710938 212.566406 282.777344 211.4375 C 288.921875 209.148438 297.898438 207.25 307.710938 205.175781 C 312.09375 204.25 316.625 203.292969 321.128906 202.261719 L 321.195312 202.566406 C 321.253906 202.8125 321.355469 203.035156 321.5 203.242188 C 321.648438 203.445312 321.828125 203.613281 322.039062 203.746094 C 322.253906 203.878906 322.484375 203.96875 322.730469 204.007812 C 322.980469 204.050781 323.226562 204.042969 323.472656 203.984375 C 346.1875 198.621094 368.546875 190.792969 372.601562 173.609375 C 376.605469 156.632812 361.453125 131.5625 307.90625 92.539062 Z M 55.9375 262.574219 C 51.660156 262.40625 47.382812 262.105469 43.191406 261.609375 C 28.207031 259.851562 14.792969 255.800781 11.960938 246.949219 C 10.882812 243.734375 10.570312 240.445312 11.019531 237.085938 C 11.382812 234.578125 12.238281 232.25 13.585938 230.097656 C 13.710938 229.898438 13.792969 229.679688 13.835938 229.449219 C 13.878906 229.21875 13.878906 228.984375 13.832031 228.753906 C 13.789062 228.523438 13.703125 228.304688 13.578125 228.105469 C 13.453125 227.90625 13.296875 227.734375 13.105469 227.59375 L 12.78125 227.347656 C 15.671875 223.492188 20.148438 220.09375 26.472656 217.503906 C 31.921875 215.246094 38.730469 213.617188 47.003906 212.820312 C 47.382812 214.609375 48.21875 216.152344 49.511719 217.445312 C 50.367188 218.296875 51.351562 218.960938 52.46875 219.425781 C 53.582031 219.894531 54.746094 220.132812 55.957031 220.144531 Z M 55.9375 215.683594 C 54.648438 215.667969 53.546875 215.203125 52.636719 214.289062 C 52.304688 213.957031 52.03125 213.585938 51.808594 213.171875 C 51.585938 212.761719 51.429688 212.324219 51.339844 211.863281 C 51.246094 211.40625 51.222656 210.941406 51.265625 210.476562 C 51.308594 210.011719 51.421875 209.558594 51.597656 209.125 C 51.773438 208.691406 52.007812 208.292969 52.300781 207.929688 C 52.597656 207.5625 52.9375 207.25 53.324219 206.984375 C 53.710938 206.71875 54.125 206.515625 54.574219 206.375 C 55.019531 206.230469 55.476562 206.15625 55.945312 206.148438 Z M 157.285156 158.367188 C 157.8125 157.441406 158.542969 156.730469 159.484375 156.230469 C 160.578125 155.671875 161.738281 155.40625 162.96875 155.429688 L 221.148438 155.429688 C 222.375 155.40625 223.539062 155.671875 224.632812 156.230469 C 225.570312 156.730469 226.304688 157.441406 226.832031 158.367188 L 231.902344 167.296875 L 152.203125 167.296875 Z M 83.59375 161.554688 C 83.597656 161.019531 83.785156 160.558594 84.164062 160.179688 C 84.542969 159.800781 85 159.613281 85.535156 159.613281 L 110.191406 159.613281 C 110.449219 159.613281 110.699219 159.664062 110.9375 159.761719 C 111.175781 159.859375 111.382812 160 111.566406 160.183594 C 111.75 160.363281 111.890625 160.574219 111.988281 160.8125 C 112.085938 161.050781 112.136719 161.296875 112.136719 161.554688 L 112.136719 167.46875 L 83.59375 167.46875 Z M 269.191406 289.671875 C 269.1875 290.46875 269.109375 291.257812 268.949219 292.039062 C 268.792969 292.820312 268.5625 293.578125 268.253906 294.3125 C 267.949219 295.050781 267.570312 295.75 267.128906 296.410156 C 266.683594 297.074219 266.179688 297.6875 265.617188 298.25 C 265.050781 298.8125 264.4375 299.316406 263.773438 299.757812 C 263.109375 300.203125 262.410156 300.578125 261.675781 300.882812 C 260.9375 301.191406 260.175781 301.421875 259.394531 301.578125 C 258.613281 301.738281 257.824219 301.816406 257.023438 301.820312 L 72.554688 301.820312 C 70.949219 301.8125 69.402344 301.5 67.921875 300.882812 C 66.4375 300.265625 65.132812 299.386719 64 298.25 C 62.855469 297.113281 61.972656 295.800781 61.351562 294.3125 C 60.734375 292.824219 60.421875 291.273438 60.421875 289.660156 L 60.421875 212.402344 L 121.605469 212.402344 C 120.984375 213.34375 120.398438 214.304688 119.839844 215.285156 C 119.28125 216.265625 118.757812 217.261719 118.265625 218.277344 C 117.773438 219.292969 117.316406 220.320312 116.890625 221.367188 C 116.464844 222.410156 116.074219 223.46875 115.71875 224.539062 C 115.363281 225.605469 115.042969 226.6875 114.757812 227.777344 C 114.476562 228.871094 114.226562 229.96875 114.015625 231.074219 C 113.800781 232.183594 113.625 233.296875 113.484375 234.414062 C 113.347656 235.53125 113.242188 236.65625 113.175781 237.78125 C 113.109375 238.90625 113.082031 240.03125 113.089844 241.160156 C 113.097656 242.285156 113.140625 243.410156 113.222656 244.535156 C 113.304688 245.660156 113.421875 246.78125 113.578125 247.898438 C 113.730469 249.015625 113.921875 250.125 114.152344 251.230469 C 114.378906 252.332031 114.640625 253.429688 114.941406 254.515625 C 115.242188 255.601562 115.574219 256.679688 115.945312 257.742188 C 116.316406 258.808594 116.71875 259.859375 117.160156 260.898438 C 117.597656 261.9375 118.070312 262.960938 118.574219 263.96875 C 119.082031 264.976562 119.621094 265.964844 120.191406 266.9375 C 120.761719 267.910156 121.363281 268.863281 121.996094 269.796875 C 122.628906 270.730469 123.292969 271.640625 123.984375 272.53125 C 124.679688 273.421875 125.402344 274.289062 126.148438 275.132812 C 126.898438 275.972656 127.675781 276.789062 128.480469 277.582031 C 129.28125 278.375 130.113281 279.140625 130.964844 279.878906 C 131.820312 280.617188 132.695312 281.324219 133.59375 282.003906 C 134.496094 282.6875 135.417969 283.335938 136.359375 283.957031 C 137.300781 284.578125 138.261719 285.164062 139.242188 285.722656 C 140.226562 286.28125 141.222656 286.804688 142.238281 287.296875 C 143.253906 287.789062 144.285156 288.25 145.332031 288.671875 C 146.375 289.097656 147.433594 289.488281 148.503906 289.84375 C 149.578125 290.199219 150.660156 290.519531 151.75 290.804688 C 152.84375 291.089844 153.941406 291.339844 155.050781 291.554688 C 156.160156 291.765625 157.273438 291.941406 158.394531 292.082031 C 159.515625 292.222656 160.636719 292.328125 161.765625 292.394531 C 162.890625 292.460938 164.019531 292.492188 165.148438 292.484375 C 166.277344 292.476562 167.402344 292.433594 168.53125 292.351562 C 169.65625 292.273438 170.777344 292.15625 171.894531 292 C 173.015625 291.847656 174.125 291.65625 175.234375 291.429688 C 176.339844 291.203125 177.433594 290.941406 178.523438 290.644531 C 179.613281 290.347656 180.691406 290.011719 181.757812 289.644531 C 182.824219 289.277344 183.878906 288.871094 184.917969 288.433594 C 185.957031 287.996094 186.984375 287.527344 187.992188 287.023438 C 189.003906 286.515625 189.992188 285.980469 190.96875 285.410156 C 191.941406 284.84375 192.898438 284.242188 193.832031 283.609375 C 194.765625 282.976562 195.679688 282.316406 196.570312 281.625 C 197.464844 280.933594 198.332031 280.214844 199.175781 279.464844 C 200.019531 278.71875 200.839844 277.941406 201.632812 277.140625 C 202.425781 276.339844 203.195312 275.511719 203.933594 274.660156 C 204.671875 273.808594 205.382812 272.933594 206.066406 272.035156 C 206.746094 271.140625 207.398438 270.21875 208.019531 269.277344 C 208.644531 268.335938 209.234375 267.378906 209.792969 266.398438 C 210.351562 265.417969 210.878906 264.421875 211.371094 263.410156 C 211.867188 262.394531 212.324219 261.367188 212.75 260.320312 C 213.179688 259.277344 213.570312 258.222656 213.925781 257.152344 C 214.285156 256.082031 214.605469 255.003906 214.890625 253.914062 C 215.175781 252.820312 215.429688 251.722656 215.640625 250.617188 C 215.855469 249.511719 216.035156 248.398438 216.175781 247.277344 C 216.316406 246.160156 216.421875 245.039062 216.488281 243.914062 C 216.558594 242.789062 216.589844 241.660156 216.582031 240.535156 C 216.578125 239.40625 216.535156 238.28125 216.453125 237.15625 C 216.375 236.03125 216.257812 234.910156 216.105469 233.796875 C 215.949219 232.679688 215.761719 231.566406 215.535156 230.464844 C 215.308594 229.359375 215.046875 228.261719 214.75 227.175781 C 214.453125 226.089844 214.117188 225.011719 213.75 223.945312 C 213.382812 222.878906 212.980469 221.828125 212.542969 220.789062 C 212.105469 219.75 211.632812 218.726562 211.128906 217.71875 C 211.042969 217.546875 210.941406 217.375 210.855469 217.203125 C 210.546875 216.613281 210.238281 216.035156 209.914062 215.496094 L 209.425781 214.640625 C 209.09375 214.078125 208.742188 213.523438 208.390625 212.933594 C 208.28125 212.753906 208.175781 212.574219 208.058594 212.394531 L 269.226562 212.394531 Z M 127.578125 212.402344 C 128.769531 210.839844 130.058594 209.359375 131.445312 207.96875 L 131.667969 207.738281 C 132.753906 206.65625 133.890625 205.628906 135.074219 204.660156 C 136.261719 203.691406 137.492188 202.78125 138.769531 201.933594 C 140.042969 201.082031 141.359375 200.296875 142.710938 199.578125 C 144.0625 198.859375 145.449219 198.207031 146.867188 197.621094 C 148.28125 197.035156 149.726562 196.523438 151.191406 196.078125 C 152.660156 195.636719 154.144531 195.265625 155.648438 194.96875 C 157.152344 194.671875 158.667969 194.449219 160.191406 194.300781 C 161.71875 194.148438 163.25 194.078125 164.78125 194.078125 C 166.3125 194.078125 167.84375 194.152344 169.367188 194.304688 C 170.894531 194.457031 172.410156 194.679688 173.914062 194.980469 C 175.414062 195.28125 176.902344 195.652344 178.367188 196.097656 C 179.835938 196.542969 181.277344 197.058594 182.691406 197.644531 C 184.109375 198.230469 185.492188 198.882812 186.84375 199.605469 C 188.195312 200.328125 189.507812 201.113281 190.785156 201.964844 C 192.058594 202.816406 193.289062 203.726562 194.472656 204.699219 C 195.65625 205.671875 196.792969 206.699219 197.875 207.78125 L 198.097656 208.011719 C 199.484375 209.402344 200.773438 210.882812 201.964844 212.445312 C 202.84375 213.59375 203.667969 214.78125 204.4375 216.003906 C 205.203125 217.230469 205.914062 218.488281 206.566406 219.777344 C 207.21875 221.066406 207.808594 222.386719 208.335938 223.730469 C 208.867188 225.074219 209.332031 226.441406 209.734375 227.832031 C 210.136719 229.21875 210.476562 230.621094 210.746094 232.042969 C 211.019531 233.460938 211.226562 234.890625 211.363281 236.328125 C 211.503906 237.769531 211.578125 239.210938 211.582031 240.65625 C 211.589844 242.101562 211.527344 243.542969 211.398438 244.980469 C 211.269531 246.421875 211.074219 247.851562 210.816406 249.273438 C 210.554688 250.695312 210.226562 252.101562 209.835938 253.492188 C 209.445312 254.882812 208.988281 256.253906 208.472656 257.601562 C 207.953125 258.953125 207.371094 260.273438 206.730469 261.570312 C 206.089844 262.867188 205.390625 264.128906 204.628906 265.359375 C 203.871094 266.589844 203.058594 267.785156 202.1875 268.9375 C 201.320312 270.09375 200.398438 271.207031 199.425781 272.277344 C 198.453125 273.347656 197.433594 274.371094 196.363281 275.34375 C 195.296875 276.320312 194.1875 277.246094 193.03125 278.117188 C 191.878906 278.992188 190.6875 279.808594 189.457031 280.570312 C 188.230469 281.332031 186.964844 282.039062 185.671875 282.683594 C 184.378906 283.328125 183.054688 283.914062 181.707031 284.4375 C 180.355469 284.960938 178.988281 285.417969 177.59375 285.816406 C 176.203125 286.210938 174.796875 286.542969 173.375 286.808594 C 171.953125 287.078125 170.519531 287.277344 169.078125 287.410156 C 167.636719 287.542969 166.195312 287.609375 164.746094 287.609375 C 163.300781 287.609375 161.855469 287.542969 160.414062 287.410156 C 158.972656 287.277344 157.542969 287.078125 156.121094 286.808594 C 154.695312 286.542969 153.289062 286.210938 151.898438 285.816406 C 150.507812 285.417969 149.136719 284.960938 147.789062 284.4375 C 146.4375 283.914062 145.117188 283.328125 143.820312 282.683594 C 142.527344 282.039062 141.265625 281.332031 140.035156 280.570312 C 138.804688 279.808594 137.613281 278.992188 136.460938 278.117188 C 135.308594 277.246094 134.195312 276.320312 133.128906 275.34375 C 132.0625 274.371094 131.042969 273.347656 130.070312 272.277344 C 129.097656 271.207031 128.175781 270.09375 127.304688 268.9375 C 126.4375 267.785156 125.621094 266.589844 124.863281 265.359375 C 124.105469 264.128906 123.40625 262.867188 122.761719 261.570312 C 122.121094 260.273438 121.542969 258.953125 121.023438 257.601562 C 120.503906 256.253906 120.046875 254.882812 119.65625 253.492188 C 119.265625 252.101562 118.9375 250.695312 118.679688 249.273438 C 118.417969 247.851562 118.222656 246.421875 118.09375 244.980469 C 117.964844 243.542969 117.90625 242.101562 117.910156 240.65625 C 117.917969 239.210938 117.988281 237.769531 118.128906 236.328125 C 118.269531 234.890625 118.472656 233.460938 118.746094 232.042969 C 119.019531 230.621094 119.355469 229.21875 119.757812 227.832031 C 120.160156 226.441406 120.625 225.074219 121.15625 223.730469 C 121.683594 222.386719 122.277344 221.066406 122.925781 219.777344 C 123.578125 218.488281 124.289062 217.230469 125.058594 216.003906 C 125.824219 214.78125 126.648438 213.59375 127.527344 212.445312 Z M 269.191406 207.96875 L 204.722656 207.96875 C 203.660156 206.679688 202.542969 205.445312 201.367188 204.269531 C 200.167969 203.070312 198.914062 201.9375 197.601562 200.863281 C 196.292969 199.789062 194.933594 198.78125 193.523438 197.84375 C 192.113281 196.902344 190.664062 196.035156 189.167969 195.234375 C 187.671875 194.4375 186.140625 193.714844 184.578125 193.070312 C 183.011719 192.421875 181.417969 191.851562 179.792969 191.359375 C 178.171875 190.871094 176.53125 190.457031 174.867188 190.128906 C 173.207031 189.796875 171.53125 189.550781 169.84375 189.382812 C 168.15625 189.21875 166.46875 189.136719 164.773438 189.136719 C 163.078125 189.136719 161.386719 189.21875 159.699219 189.382812 C 158.011719 189.550781 156.339844 189.796875 154.675781 190.128906 C 153.015625 190.457031 151.371094 190.871094 149.75 191.359375 C 148.128906 191.851562 146.535156 192.421875 144.96875 193.070312 C 143.402344 193.714844 141.871094 194.4375 140.378906 195.234375 C 138.882812 196.035156 137.429688 196.902344 136.019531 197.84375 C 134.613281 198.78125 133.25 199.789062 131.941406 200.863281 C 130.632812 201.9375 129.375 203.070312 128.179688 204.269531 C 126.996094 205.445312 125.875 206.6875 124.816406 207.96875 L 60.378906 207.96875 L 60.378906 184.042969 C 60.382812 183.246094 60.460938 182.457031 60.621094 181.675781 C 60.777344 180.894531 61.011719 180.132812 61.316406 179.398438 C 61.625 178.664062 62 177.964844 62.445312 177.300781 C 62.890625 176.636719 63.394531 176.023438 63.957031 175.460938 C 64.523438 174.898438 65.136719 174.394531 65.800781 173.949219 C 66.464844 173.507812 67.164062 173.132812 67.902344 172.828125 C 68.640625 172.519531 69.398438 172.289062 70.183594 172.132812 C 70.964844 171.976562 71.757812 171.894531 72.554688 171.894531 L 257.023438 171.894531 C 258.636719 171.894531 260.191406 172.203125 261.679688 172.824219 C 263.171875 173.441406 264.484375 174.324219 265.625 175.464844 C 266.761719 176.597656 267.640625 177.902344 268.261719 179.382812 C 268.882812 180.863281 269.195312 182.40625 269.199219 184.007812 Z M 276.953125 214.28125 C 276.039062 215.195312 274.933594 215.660156 273.640625 215.675781 L 273.640625 206.140625 C 274.933594 206.160156 276.035156 206.628906 276.953125 207.539062 C 277.171875 207.761719 277.371094 208.003906 277.542969 208.265625 C 277.714844 208.523438 277.863281 208.800781 277.980469 209.089844 C 278.101562 209.378906 278.191406 209.675781 278.25 209.980469 C 278.3125 210.289062 278.34375 210.597656 278.34375 210.910156 C 278.34375 211.222656 278.3125 211.535156 278.25 211.839844 C 278.191406 212.148438 278.101562 212.445312 277.980469 212.734375 C 277.863281 213.023438 277.714844 213.296875 277.542969 213.558594 C 277.371094 213.820312 277.171875 214.058594 276.953125 214.28125 Z M 363.949219 171.558594 C 360.980469 184.121094 341.457031 190.605469 321.460938 195.3125 C 321.21875 195.371094 320.996094 195.472656 320.792969 195.617188 C 320.589844 195.761719 320.421875 195.941406 320.289062 196.152344 C 320.15625 196.363281 320.070312 196.589844 320.027344 196.835938 C 319.988281 197.082031 319.992188 197.328125 320.050781 197.570312 L 320.125 197.902344 C 315.601562 198.9375 311.125 199.886719 306.804688 200.800781 C 297.1875 202.832031 288.355469 204.695312 281.914062 206.992188 C 281.546875 206.207031 281.074219 205.484375 280.5 204.832031 C 279.925781 204.179688 279.273438 203.617188 278.539062 203.148438 C 277.808594 202.675781 277.023438 202.320312 276.191406 202.070312 C 275.355469 201.824219 274.503906 201.695312 273.632812 201.6875 L 273.632812 184.050781 C 273.632812 181.851562 273.210938 179.738281 272.363281 177.707031 C 271.519531 175.679688 270.316406 173.886719 268.753906 172.335938 C 267.203125 170.78125 265.410156 169.582031 263.378906 168.734375 C 261.347656 167.890625 259.234375 167.46875 257.03125 167.46875 L 237.097656 167.46875 L 230.671875 156.179688 C 229.726562 154.503906 228.40625 153.222656 226.703125 152.328125 C 224.960938 151.414062 223.105469 150.96875 221.140625 150.984375 L 187.273438 150.984375 C 195.207031 131.675781 203.273438 113.570312 213.054688 100.1875 C 231.519531 74.914062 257.109375 66.460938 302.699219 99.683594 C 352.671875 136.101562 367.175781 157.949219 363.949219 171.578125 Z M 363.949219 171.558594 " fill-opacity="1" fill-rule="evenodd"/></g><path fill="rgb(12.548828%, 19.999695%, 26.669312%)" d="M 248.246094 182.410156 C 247.792969 181.957031 247.269531 181.605469 246.675781 181.355469 C 246.085938 181.105469 245.464844 180.980469 244.824219 180.976562 L 221.140625 180.976562 C 220.496094 180.980469 219.878906 181.105469 219.285156 181.355469 C 218.691406 181.601562 218.171875 181.953125 217.71875 182.410156 C 217.261719 182.863281 216.910156 183.386719 216.660156 183.976562 C 216.410156 184.570312 216.285156 185.1875 216.28125 185.828125 L 216.28125 197.140625 C 216.285156 197.785156 216.410156 198.402344 216.660156 198.992188 C 216.90625 199.585938 217.261719 200.109375 217.71875 200.558594 C 218.171875 201.015625 218.691406 201.367188 219.285156 201.617188 C 219.878906 201.867188 220.496094 201.992188 221.140625 201.996094 L 244.796875 201.996094 C 245.441406 201.992188 246.058594 201.863281 246.652344 201.617188 C 247.246094 201.367188 247.765625 201.015625 248.21875 200.558594 C 249.167969 199.617188 249.648438 198.476562 249.65625 197.140625 L 249.65625 185.855469 C 249.644531 184.519531 249.164062 183.382812 248.21875 182.4375 Z M 245.242188 197.167969 C 245.246094 197.285156 245.203125 197.390625 245.125 197.476562 C 245.035156 197.5625 244.929688 197.605469 244.804688 197.601562 L 221.140625 197.601562 C 221.019531 197.601562 220.917969 197.558594 220.832031 197.476562 C 220.746094 197.390625 220.703125 197.289062 220.703125 197.167969 L 220.703125 185.855469 C 220.703125 185.730469 220.746094 185.625 220.832031 185.539062 C 220.917969 185.457031 221.019531 185.417969 221.140625 185.417969 L 244.796875 185.417969 C 244.921875 185.414062 245.027344 185.453125 245.113281 185.539062 C 245.199219 185.628906 245.238281 185.734375 245.234375 185.855469 Z M 245.242188 197.167969 " fill-opacity="1" fill-rule="evenodd"/><path fill="rgb(12.548828%, 19.999695%, 26.669312%)" d="M 12.738281 107.9375 C 12.871094 108.023438 12.894531 108.136719 12.816406 108.269531 C 12.457031 108.894531 11.695312 110.972656 15.84375 112.285156 C 15.953125 112.320312 15.984375 112.390625 15.929688 112.492188 C 15.683594 112.945312 15.21875 114.371094 18.496094 115.371094 C 18.496094 115.371094 18.496094 115.421875 18.496094 115.421875 C 18.121094 115.652344 16.125 117.003906 22.902344 118.277344 L 22.902344 118.351562 C 22.253906 118.6875 18.890625 120.53125 25.546875 121.140625 C 25.546875 121.140625 25.589844 121.191406 25.546875 121.207031 C 25.007812 121.652344 22.046875 124.308594 28.628906 124.683594 C 28.671875 124.714844 28.671875 124.742188 28.628906 124.769531 C 28.148438 125.28125 25.976562 127.804688 31.195312 127.582031 C 31.246094 127.578125 31.261719 127.601562 31.246094 127.648438 C 31.109375 128.058594 30.527344 130.359375 34.316406 129.855469 C 34.316406 129.855469 34.367188 129.90625 34.316406 129.914062 C 33.941406 130.375 32.179688 132.714844 36.027344 132.65625 C 36.078125 132.929688 36.773438 136.332031 38.117188 134.800781 L 38.167969 134.800781 C 38.167969 135.238281 38.011719 137.007812 39.363281 136.851562 C 39.441406 137.160156 40.007812 139.476562 42.050781 139.972656 C 42.117188 139.992188 42.132812 140.03125 42.101562 140.089844 C 40.957031 141.679688 25.847656 162.375 19.804688 167.195312 C 19.804688 167.195312 18.179688 168.902344 20.226562 168.636719 C 20.148438 168.867188 19.976562 169.832031 21.25 169.046875 L 21.304688 169.046875 C 21.859375 168.636719 30.507812 162.28125 31.144531 161.5625 C 31.28125 161.410156 45.507812 156.136719 46.363281 155.113281 L 46.414062 155.113281 C 63.707031 152.738281 71.742188 141.140625 72.589844 132.375 C 72.589844 132.375 79.363281 125.179688 80.144531 118.5 C 80.144531 118.5 81.179688 115.21875 86.339844 113.449219 C 91.496094 111.679688 101.738281 109.023438 101.867188 109.175781 C 101.867188 109.175781 103.210938 108.492188 101.671875 108.425781 C 101.671875 108.425781 91.566406 109.160156 84.371094 111.449219 C 83.1875 111.792969 81.996094 111.824219 80.792969 111.550781 C 77.371094 110.550781 70.175781 108.636719 66.007812 113.074219 C 64.359375 115.042969 62.933594 117.167969 61.730469 119.4375 C 61.472656 120.023438 61.117188 120.539062 60.660156 120.984375 C 59.96875 121.652344 58.949219 122.273438 57.898438 121.617188 C 57.964844 121.359375 30.808594 90.855469 13.40625 92.96875 C 13.40625 92.96875 10.640625 93.984375 14.550781 95.25 C 14.695312 95.296875 14.773438 95.394531 14.789062 95.542969 C 14.804688 95.691406 14.75 95.804688 14.621094 95.882812 C 13.429688 96.589844 12.910156 98.496094 18.042969 99.230469 C 18.09375 99.230469 18.101562 99.308594 18.042969 99.324219 C 14.519531 100.179688 21.039062 104.144531 26.546875 107.417969 C 28.578125 108.402344 30.476562 109.59375 32.246094 110.988281 C 32.308594 111.042969 32.375 111.097656 32.441406 111.140625 L 30.328125 109.824219 C 26.375 107.554688 22.191406 105.84375 17.777344 104.699219 C 16.726562 104.570312 15.554688 104.46875 14.226562 104.390625 C 12.828125 104.351562 11.460938 104.53125 10.121094 104.929688 C 9.855469 105.535156 10.417969 106.433594 12.738281 107.9375 Z M 73.382812 116.140625 C 73.40625 115.925781 73.46875 115.726562 73.574219 115.539062 C 73.675781 115.351562 73.8125 115.191406 73.980469 115.058594 C 74.152344 114.925781 74.339844 114.832031 74.546875 114.777344 C 74.753906 114.71875 74.964844 114.707031 75.175781 114.738281 C 75.386719 114.765625 75.585938 114.835938 75.769531 114.945312 C 75.957031 115.054688 76.109375 115.195312 76.238281 115.371094 C 76.363281 115.542969 76.453125 115.734375 76.5 115.941406 C 76.550781 116.152344 76.554688 116.363281 76.519531 116.574219 C 76.480469 116.785156 76.40625 116.980469 76.289062 117.160156 C 76.171875 117.339844 76.023438 117.492188 75.847656 117.609375 C 75.667969 117.730469 75.476562 117.8125 75.265625 117.851562 C 75.054688 117.894531 74.84375 117.894531 74.632812 117.847656 C 74.4375 117.816406 74.253906 117.75 74.085938 117.648438 C 73.917969 117.542969 73.773438 117.410156 73.65625 117.25 C 73.539062 117.089844 73.457031 116.914062 73.410156 116.722656 C 73.363281 116.53125 73.355469 116.335938 73.382812 116.140625 Z M 73.382812 116.140625 " fill-opacity="1" fill-rule="evenodd"/><path fill="rgb(100%, 100%, 100%)" d="M 150.722656 240.335938 C 151.386719 240.332031 152.046875 240.265625 152.699219 240.132812 C 153.351562 240 153.984375 239.808594 154.597656 239.550781 C 155.210938 239.296875 155.792969 238.980469 156.347656 238.613281 C 156.898438 238.242188 157.410156 237.820312 157.878906 237.347656 C 158.347656 236.878906 158.765625 236.367188 159.132812 235.8125 C 159.503906 235.257812 159.8125 234.675781 160.066406 234.058594 C 160.320312 233.445312 160.507812 232.8125 160.636719 232.160156 C 160.765625 231.507812 160.828125 230.851562 160.828125 230.1875 C 160.828125 229.523438 160.761719 228.863281 160.628906 228.214844 C 160.496094 227.5625 160.304688 226.929688 160.046875 226.316406 C 159.792969 225.703125 159.480469 225.121094 159.109375 224.570312 C 158.738281 224.015625 158.316406 223.507812 157.847656 223.039062 C 157.375 222.570312 156.863281 222.148438 156.308594 221.78125 C 155.753906 221.414062 155.171875 221.101562 154.554688 220.847656 C 153.941406 220.597656 153.308594 220.40625 152.65625 220.277344 C 152 220.148438 151.34375 220.082031 150.675781 220.085938 C 150.011719 220.085938 149.355469 220.148438 148.703125 220.28125 C 148.050781 220.410156 147.414062 220.601562 146.800781 220.859375 C 146.1875 221.113281 145.601562 221.425781 145.050781 221.792969 C 144.496094 222.164062 143.984375 222.582031 143.515625 223.054688 C 143.046875 223.523438 142.625 224.035156 142.257812 224.585938 C 141.886719 225.140625 141.574219 225.722656 141.320312 226.335938 C 141.066406 226.949219 140.875 227.582031 140.746094 228.234375 C 140.613281 228.886719 140.550781 229.542969 140.550781 230.210938 C 140.550781 230.875 140.617188 231.535156 140.75 232.1875 C 140.878906 232.839844 141.074219 233.472656 141.328125 234.089844 C 141.585938 234.703125 141.898438 235.289062 142.269531 235.839844 C 142.644531 236.394531 143.066406 236.90625 143.535156 237.375 C 144.007812 237.847656 144.523438 238.265625 145.078125 238.632812 C 145.632812 239.003906 146.21875 239.316406 146.835938 239.570312 C 147.453125 239.824219 148.085938 240.015625 148.742188 240.144531 C 149.394531 240.273438 150.054688 240.335938 150.722656 240.335938 Z M 150.722656 240.335938 " fill-opacity="1" fill-rule="evenodd"/></svg>