<?xml version="1.0" encoding="UTF-8"?><svg xmlns="http://www.w3.org/2000/svg" xmlns:xlink="http://www.w3.org/1999/xlink" contentScriptType="text/ecmascript" width="375" zoomAndPan="magnify" contentStyleType="text/css" viewBox="0 0 375 225" height="225" preserveAspectRatio="xMidYMid meet" version="1.0"><defs><clipPath id="clip-0"><path d="M 11.25 0 L 363.75 0 L 363.75 225 L 11.25 225 Z M 11.25 0 " clip-rule="nonzero"/></clipPath></defs><path fill="rgb(87.059021%, 19.999695%, 36.859131%)" d="M 134.746094 195.15625 L 134.746094 220.679688 L 197.078125 220.679688 L 197.078125 195.15625 C 196.054688 196.167969 194.984375 197.132812 193.863281 198.042969 C 192.746094 198.949219 191.585938 199.804688 190.382812 200.601562 C 189.183594 201.398438 187.945312 202.132812 186.671875 202.808594 C 185.398438 203.484375 184.09375 204.097656 182.761719 204.644531 C 181.429688 205.191406 180.070312 205.675781 178.691406 206.089844 C 177.3125 206.507812 175.914062 206.855469 174.5 207.132812 C 173.085938 207.414062 171.660156 207.625 170.226562 207.761719 C 168.792969 207.902344 167.355469 207.972656 165.914062 207.972656 C 164.472656 207.972656 163.035156 207.902344 161.597656 207.761719 C 160.164062 207.625 158.742188 207.414062 157.328125 207.132812 C 155.914062 206.855469 154.515625 206.507812 153.136719 206.089844 C 151.753906 205.675781 150.398438 205.191406 149.066406 204.644531 C 147.730469 204.097656 146.429688 203.484375 145.15625 202.808594 C 143.882812 202.132812 142.644531 201.398438 141.441406 200.601562 C 140.242188 199.804688 139.082031 198.949219 137.960938 198.042969 C 136.84375 197.132812 135.773438 196.167969 134.746094 195.15625 Z M 134.746094 195.15625 " fill-opacity="1" fill-rule="evenodd"/><path fill="rgb(87.059021%, 19.999695%, 36.859131%)" d="M 134.746094 99.0625 L 134.746094 132.066406 C 135.773438 131.054688 136.84375 130.09375 137.964844 129.183594 C 139.082031 128.273438 140.242188 127.421875 141.445312 126.625 C 142.644531 125.828125 143.882812 125.09375 145.15625 124.417969 C 146.429688 123.742188 147.734375 123.132812 149.066406 122.585938 C 150.398438 122.035156 151.757812 121.554688 153.136719 121.140625 C 154.515625 120.722656 155.914062 120.375 157.328125 120.097656 C 158.742188 119.816406 160.164062 119.609375 161.601562 119.46875 C 163.035156 119.328125 164.472656 119.257812 165.914062 119.257812 C 167.355469 119.257812 168.792969 119.328125 170.226562 119.46875 C 171.660156 119.609375 173.085938 119.816406 174.5 120.097656 C 175.914062 120.375 177.308594 120.722656 178.691406 121.140625 C 180.070312 121.554688 181.425781 122.035156 182.757812 122.585938 C 184.09375 123.132812 185.394531 123.742188 186.667969 124.417969 C 187.941406 125.09375 189.179688 125.828125 190.382812 126.625 C 191.585938 127.421875 192.746094 128.273438 193.863281 129.183594 C 194.980469 130.09375 196.054688 131.054688 197.078125 132.066406 L 197.078125 99.0625 Z M 134.746094 99.0625 " fill-opacity="1" fill-rule="evenodd"/><path fill="rgb(87.059021%, 19.999695%, 36.859131%)" d="M 138.324219 77.320312 C 141.023438 75.542969 143.957031 70.316406 145.269531 64.605469 C 148.886719 48.882812 133.109375 39.453125 130.351562 58.351562 C 121.28125 52.445312 108.679688 59.8125 118.5 69.523438 C 124.167969 75.136719 135.453125 78.609375 138.324219 77.320312 Z M 138.324219 77.320312 " fill-opacity="1" fill-rule="evenodd"/><path fill="rgb(87.059021%, 19.999695%, 36.859131%)" d="M 159.242188 42.261719 C 161.476562 41.816406 164.800781 39.195312 167.1875 35.769531 C 173.761719 26.457031 165.960938 16.0625 159.078125 27.65625 C 154.722656 21.363281 144.484375 22.789062 148.328125 31.789062 C 150.558594 37.042969 157.011719 42.34375 159.242188 42.261719 Z M 159.242188 42.261719 " fill-opacity="1" fill-rule="evenodd"/><path fill="rgb(87.059021%, 19.999695%, 36.859131%)" d="M 126.242188 33.554688 C 128.066406 32.941406 130.554688 30.382812 132.191406 27.285156 C 136.675781 18.773438 129.03125 10.929688 124.546875 21.394531 C 120.21875 16.601562 111.828125 18.910156 115.992188 26.019531 C 118.410156 30.125 124.386719 33.855469 126.242188 33.554688 Z M 126.242188 33.554688 " fill-opacity="1" fill-rule="evenodd"/><path fill="rgb(96.078491%, 67.449951%, 21.569824%)" d="M 134.746094 195.15625 L 134.746094 220.679688 L 102.617188 220.679688 L 102.617188 99.0625 L 134.746094 99.0625 L 134.746094 132.066406 L 134.570312 132.246094 C 133.542969 133.273438 132.566406 134.347656 131.644531 135.472656 C 130.726562 136.59375 129.859375 137.757812 129.054688 138.96875 C 128.246094 140.175781 127.5 141.421875 126.816406 142.703125 C 126.132812 143.984375 125.511719 145.292969 124.957031 146.636719 C 124.398438 147.980469 123.910156 149.347656 123.488281 150.738281 C 123.066406 152.125 122.714844 153.535156 122.433594 154.960938 C 122.148438 156.386719 121.9375 157.820312 121.792969 159.265625 C 121.652344 160.710938 121.582031 162.160156 121.582031 163.613281 C 121.582031 165.066406 121.652344 166.519531 121.792969 167.964844 C 121.9375 169.410156 122.148438 170.84375 122.433594 172.269531 C 122.714844 173.695312 123.066406 175.101562 123.488281 176.492188 C 123.910156 177.882812 124.398438 179.25 124.957031 180.59375 C 125.511719 181.933594 126.132812 183.246094 126.816406 184.527344 C 127.5 185.808594 128.246094 187.054688 129.054688 188.261719 C 129.859375 189.46875 130.726562 190.636719 131.644531 191.757812 C 132.566406 192.882812 133.542969 193.957031 134.570312 194.984375 Z M 134.746094 195.15625 " fill-opacity="1" fill-rule="evenodd"/><path fill="rgb(96.078491%, 67.449951%, 21.569824%)" d="M 102.617188 134.523438 L 102.617188 99.0625 L 134.746094 99.0625 L 134.746094 132.066406 L 134.570312 132.246094 C 133.832031 132.984375 133.117188 133.746094 132.4375 134.523438 Z M 102.617188 134.523438 " fill-opacity="1" fill-rule="evenodd"/><path fill="rgb(97.648621%, 90.589905%, 5.879211%)" d="M 80.117188 99.0625 L 102.617188 99.0625 L 102.617188 220.664062 L 80.117188 220.664062 Z M 80.117188 99.0625 " fill-opacity="1" fill-rule="nonzero"/><path fill="rgb(100%, 93.328857%, 37.249756%)" d="M 80.117188 99.0625 L 102.617188 99.0625 L 102.617188 134.535156 L 80.117188 134.535156 Z M 80.117188 99.0625 " fill-opacity="1" fill-rule="nonzero"/><path fill="rgb(53.729248%, 78.42865%, 71.759033%)" d="M 80.117188 99.0625 L 80.117188 220.679688 L 78.496094 220.679688 C 77.796875 220.675781 77.105469 220.605469 76.417969 220.46875 C 75.734375 220.332031 75.070312 220.128906 74.421875 219.859375 C 73.777344 219.589844 73.164062 219.261719 72.585938 218.871094 C 72.003906 218.484375 71.464844 218.042969 70.972656 217.546875 C 70.476562 217.054688 70.035156 216.515625 69.648438 215.933594 C 69.257812 215.351562 68.929688 214.738281 68.660156 214.09375 C 68.394531 213.449219 68.191406 212.78125 68.050781 212.097656 C 67.914062 211.410156 67.84375 210.71875 67.84375 210.019531 L 67.84375 109.714844 C 67.84375 109.015625 67.914062 108.320312 68.050781 107.636719 C 68.191406 106.949219 68.394531 106.285156 68.664062 105.636719 C 68.933594 104.992188 69.261719 104.378906 69.652344 103.796875 C 70.039062 103.214844 70.484375 102.675781 70.976562 102.183594 C 71.472656 101.6875 72.011719 101.246094 72.59375 100.859375 C 73.175781 100.46875 73.789062 100.140625 74.433594 99.875 C 75.082031 99.605469 75.746094 99.40625 76.433594 99.269531 C 77.121094 99.132812 77.8125 99.0625 78.511719 99.0625 Z M 80.117188 99.0625 " fill-opacity="1" fill-rule="evenodd"/><path fill="rgb(78.42865%, 89.7995%, 87.449646%)" d="M 74.261719 219.769531 C 73.316406 219.355469 72.445312 218.816406 71.65625 218.148438 C 70.867188 217.484375 70.1875 216.71875 69.617188 215.855469 C 69.046875 214.988281 68.613281 214.0625 68.316406 213.070312 C 68.015625 212.082031 67.863281 211.070312 67.859375 210.035156 L 67.859375 109.714844 C 67.863281 108.679688 68.015625 107.667969 68.316406 106.679688 C 68.617188 105.6875 69.050781 104.761719 69.617188 103.898438 C 70.1875 103.03125 70.867188 102.265625 71.65625 101.601562 C 72.449219 100.933594 73.316406 100.394531 74.261719 99.980469 Z M 74.261719 219.769531 " fill-opacity="1" fill-rule="evenodd"/><path fill="rgb(78.42865%, 89.7995%, 88.238525%)" d="M 80.117188 99.0625 L 80.117188 134.523438 L 67.859375 134.523438 L 67.859375 109.714844 C 67.859375 109.015625 67.929688 108.324219 68.066406 107.636719 C 68.207031 106.953125 68.410156 106.285156 68.679688 105.640625 C 68.945312 104.996094 69.273438 104.382812 69.664062 103.800781 C 70.054688 103.222656 70.496094 102.683594 70.988281 102.1875 C 71.484375 101.695312 72.019531 101.253906 72.601562 100.863281 C 73.183594 100.476562 73.796875 100.148438 74.441406 99.878906 C 75.085938 99.609375 75.75 99.410156 76.4375 99.269531 C 77.121094 99.132812 77.8125 99.0625 78.511719 99.0625 Z M 80.117188 99.0625 " fill-opacity="1" fill-rule="evenodd"/><path fill="rgb(89.019775%, 94.898987%, 94.509888%)" d="M 74.261719 134.523438 L 67.859375 134.523438 L 67.859375 109.714844 C 67.863281 108.679688 68.015625 107.667969 68.316406 106.679688 C 68.617188 105.6875 69.050781 104.761719 69.617188 103.898438 C 70.1875 103.03125 70.867188 102.265625 71.65625 101.601562 C 72.449219 100.933594 73.316406 100.394531 74.261719 99.980469 Z M 74.261719 134.523438 " fill-opacity="1" fill-rule="evenodd"/><path fill="rgb(100%, 100%, 100%)" d="M 165.914062 210.351562 C 167.441406 210.351562 168.96875 210.277344 170.492188 210.125 C 172.011719 209.976562 173.523438 209.75 175.023438 209.453125 C 176.523438 209.152344 178.007812 208.78125 179.46875 208.335938 C 180.933594 207.894531 182.371094 207.378906 183.785156 206.792969 C 185.199219 206.207031 186.578125 205.554688 187.929688 204.832031 C 189.277344 204.109375 190.585938 203.324219 191.859375 202.472656 C 193.128906 201.621094 194.359375 200.710938 195.539062 199.742188 C 196.722656 198.769531 197.855469 197.742188 198.9375 196.660156 C 200.015625 195.578125 201.042969 194.445312 202.011719 193.261719 C 202.984375 192.078125 203.894531 190.851562 204.742188 189.578125 C 205.59375 188.304688 206.378906 186.992188 207.097656 185.644531 C 207.820312 184.292969 208.472656 182.910156 209.058594 181.496094 C 209.644531 180.082031 210.160156 178.644531 210.601562 177.179688 C 211.046875 175.714844 211.417969 174.230469 211.714844 172.730469 C 212.015625 171.226562 212.238281 169.714844 212.390625 168.191406 C 212.539062 166.667969 212.613281 165.140625 212.613281 163.609375 C 212.613281 162.082031 212.539062 160.554688 212.386719 159.03125 C 212.238281 157.507812 212.015625 155.992188 211.714844 154.492188 C 211.417969 152.992188 211.046875 151.507812 210.601562 150.042969 C 210.15625 148.578125 209.644531 147.136719 209.058594 145.722656 C 208.472656 144.308594 207.820312 142.925781 207.097656 141.578125 C 206.375 140.226562 205.589844 138.917969 204.742188 137.644531 C 203.890625 136.371094 202.980469 135.140625 202.011719 133.960938 C 201.039062 132.777344 200.015625 131.644531 198.933594 130.558594 C 197.851562 129.476562 196.71875 128.453125 195.535156 127.480469 C 194.351562 126.507812 193.125 125.597656 191.855469 124.746094 C 190.582031 123.898438 189.273438 123.109375 187.921875 122.390625 C 186.574219 121.667969 185.191406 121.015625 183.777344 120.429688 C 182.367188 119.84375 180.925781 119.328125 179.464844 118.882812 C 178 118.4375 176.515625 118.066406 175.015625 117.769531 C 173.515625 117.46875 172.003906 117.246094 170.484375 117.097656 C 168.960938 116.945312 167.433594 116.871094 165.90625 116.871094 C 164.375 116.871094 162.847656 116.945312 161.328125 117.097656 C 159.804688 117.246094 158.292969 117.46875 156.792969 117.769531 C 155.292969 118.066406 153.808594 118.441406 152.347656 118.882812 C 150.882812 119.328125 149.445312 119.84375 148.03125 120.429688 C 146.617188 121.015625 145.234375 121.667969 143.886719 122.390625 C 142.539062 123.113281 141.226562 123.898438 139.953125 124.75 C 138.683594 125.597656 137.457031 126.511719 136.273438 127.480469 C 135.089844 128.453125 133.957031 129.480469 132.875 130.5625 C 131.796875 131.644531 130.769531 132.777344 129.796875 133.960938 C 128.828125 135.144531 127.917969 136.371094 127.066406 137.644531 C 126.21875 138.917969 125.433594 140.226562 124.710938 141.578125 C 123.992188 142.929688 123.335938 144.3125 122.75 145.726562 C 122.167969 147.140625 121.652344 148.578125 121.207031 150.042969 C 120.761719 151.507812 120.390625 152.992188 120.09375 154.492188 C 119.796875 155.992188 119.570312 157.507812 119.421875 159.03125 C 119.269531 160.554688 119.195312 162.082031 119.195312 163.609375 C 119.199219 165.140625 119.277344 166.667969 119.429688 168.191406 C 119.582031 169.710938 119.808594 171.222656 120.109375 172.722656 C 120.410156 174.226562 120.78125 175.707031 121.226562 177.171875 C 121.671875 178.632812 122.191406 180.074219 122.777344 181.484375 C 123.363281 182.898438 124.015625 184.28125 124.738281 185.628906 C 125.460938 186.976562 126.246094 188.289062 127.097656 189.558594 C 127.949219 190.832031 128.859375 192.058594 129.828125 193.242188 C 130.796875 194.425781 131.824219 195.554688 132.90625 196.636719 C 133.988281 197.71875 135.117188 198.746094 136.300781 199.71875 C 137.484375 200.6875 138.710938 201.597656 139.980469 202.449219 C 141.25 203.300781 142.5625 204.085938 143.910156 204.808594 C 145.257812 205.53125 146.636719 206.183594 148.050781 206.773438 C 149.460938 207.359375 150.898438 207.875 152.363281 208.320312 C 153.824219 208.765625 155.304688 209.140625 156.804688 209.441406 C 158.304688 209.738281 159.816406 209.964844 161.335938 210.117188 C 162.859375 210.269531 164.382812 210.347656 165.914062 210.351562 Z M 165.914062 210.351562 " fill-opacity="1" fill-rule="evenodd"/><path fill="rgb(12.548828%, 19.999695%, 26.669312%)" d="M 190.292969 139.214844 C 191.09375 140.011719 191.851562 140.847656 192.566406 141.722656 C 193.285156 142.59375 193.957031 143.503906 194.582031 144.441406 C 195.210938 145.382812 195.789062 146.347656 196.324219 147.347656 C 196.855469 148.34375 197.335938 149.363281 197.769531 150.40625 C 198.203125 151.453125 198.582031 152.515625 198.910156 153.59375 C 199.238281 154.675781 199.511719 155.773438 199.730469 156.878906 C 199.953125 157.988281 200.117188 159.105469 200.226562 160.230469 C 200.339844 161.355469 200.394531 162.480469 200.394531 163.613281 C 200.394531 164.742188 200.339844 165.871094 200.226562 166.992188 C 200.117188 168.117188 199.953125 169.234375 199.730469 170.34375 C 199.511719 171.453125 199.238281 172.546875 198.910156 173.628906 C 198.582031 174.710938 198.203125 175.773438 197.769531 176.816406 C 197.335938 177.859375 196.855469 178.882812 196.324219 179.878906 C 195.789062 180.875 195.210938 181.84375 194.582031 182.78125 C 193.957031 183.722656 193.285156 184.628906 192.566406 185.503906 C 191.851562 186.375 191.09375 187.210938 190.292969 188.011719 C 189.496094 188.808594 188.660156 189.566406 187.789062 190.285156 C 186.914062 191.003906 186.007812 191.675781 185.070312 192.300781 C 184.128906 192.929688 183.164062 193.511719 182.167969 194.042969 C 181.171875 194.574219 180.152344 195.058594 179.109375 195.492188 C 178.066406 195.921875 177.003906 196.304688 175.921875 196.632812 C 174.839844 196.960938 173.746094 197.234375 172.640625 197.453125 C 171.53125 197.675781 170.414062 197.839844 169.292969 197.953125 C 168.167969 198.0625 167.042969 198.117188 165.914062 198.117188 C 164.78125 198.117188 163.65625 198.0625 162.53125 197.953125 C 161.410156 197.839844 160.292969 197.675781 159.183594 197.453125 C 158.078125 197.234375 156.984375 196.960938 155.902344 196.632812 C 154.820312 196.304688 153.761719 195.921875 152.714844 195.492188 C 151.671875 195.058594 150.652344 194.574219 149.65625 194.042969 C 148.660156 193.511719 147.695312 192.929688 146.753906 192.300781 C 145.816406 191.675781 144.910156 191.003906 144.035156 190.285156 C 143.164062 189.566406 142.328125 188.808594 141.53125 188.011719 C 140.730469 187.210938 139.972656 186.375 139.257812 185.503906 C 138.539062 184.628906 137.867188 183.722656 137.242188 182.78125 C 136.613281 181.84375 136.035156 180.875 135.5 179.878906 C 134.96875 178.882812 134.488281 177.859375 134.054688 176.816406 C 133.621094 175.773438 133.242188 174.710938 132.914062 173.628906 C 132.585938 172.546875 132.3125 171.453125 132.09375 170.34375 C 131.871094 169.234375 131.707031 168.117188 131.597656 166.992188 C 131.484375 165.871094 131.429688 164.742188 131.429688 163.613281 C 131.429688 162.480469 131.484375 161.355469 131.597656 160.230469 C 131.707031 159.105469 131.871094 157.988281 132.09375 156.878906 C 132.3125 155.773438 132.585938 154.675781 132.914062 153.59375 C 133.242188 152.515625 133.621094 151.453125 134.054688 150.40625 C 134.488281 149.363281 134.96875 148.34375 135.5 147.347656 C 136.035156 146.347656 136.613281 145.382812 137.242188 144.441406 C 137.867188 143.503906 138.539062 142.59375 139.257812 141.722656 C 139.972656 140.847656 140.730469 140.011719 141.53125 139.214844 C 142.328125 138.414062 143.164062 137.65625 144.035156 136.9375 C 144.910156 136.222656 145.816406 135.550781 146.753906 134.921875 C 147.695312 134.292969 148.660156 133.714844 149.65625 133.179688 C 150.652344 132.648438 151.671875 132.164062 152.714844 131.734375 C 153.761719 131.300781 154.820312 130.921875 155.902344 130.59375 C 156.984375 130.265625 158.078125 129.988281 159.183594 129.769531 C 160.292969 129.550781 161.410156 129.382812 162.53125 129.273438 C 163.65625 129.160156 164.78125 129.105469 165.914062 129.105469 C 167.042969 129.105469 168.167969 129.160156 169.292969 129.273438 C 170.414062 129.382812 171.53125 129.550781 172.640625 129.769531 C 173.746094 129.988281 174.839844 130.265625 175.921875 130.59375 C 177.003906 130.921875 178.066406 131.300781 179.109375 131.734375 C 180.152344 132.164062 181.171875 132.648438 182.167969 133.179688 C 183.164062 133.714844 184.128906 134.292969 185.070312 134.921875 C 186.007812 135.550781 186.914062 136.222656 187.789062 136.9375 C 188.660156 137.65625 189.496094 138.414062 190.292969 139.214844 Z M 190.292969 139.214844 " fill-opacity="1" fill-rule="nonzero"/><path fill="rgb(100%, 100%, 100%)" d="M 241.730469 111.003906 L 219.3125 111.003906 L 218.898438 111.425781 L 219.011719 122.460938 L 219.3125 122.589844 L 241.730469 122.589844 L 242.148438 122.160156 L 242.035156 111.125 Z M 241.730469 111.003906 " fill-opacity="1" fill-rule="evenodd"/><path fill="rgb(53.729248%, 78.42865%, 71.759033%)" d="M 199.171875 134.296875 C 200.09375 135.34375 200.960938 136.429688 201.78125 137.558594 C 202.601562 138.6875 203.363281 139.851562 204.074219 141.050781 C 204.78125 142.25 205.433594 143.480469 206.027344 144.742188 C 206.617188 146.003906 207.152344 147.289062 207.625 148.601562 C 208.09375 149.914062 208.503906 151.246094 208.851562 152.59375 C 209.195312 153.945312 209.480469 155.308594 209.695312 156.683594 C 209.914062 158.0625 210.066406 159.445312 210.15625 160.835938 C 210.242188 162.230469 210.265625 163.621094 210.222656 165.015625 C 210.175781 166.40625 210.066406 167.796875 209.894531 169.179688 C 209.71875 170.5625 209.480469 171.933594 209.175781 173.292969 C 208.871094 174.65625 208.503906 176 208.074219 177.324219 C 207.644531 178.648438 207.152344 179.953125 206.597656 181.230469 C 206.046875 182.511719 205.433594 183.761719 204.761719 184.984375 C 204.089844 186.207031 203.363281 187.390625 202.582031 188.546875 C 201.796875 189.699219 200.964844 190.8125 200.074219 191.886719 C 199.1875 192.960938 198.25 193.992188 197.265625 194.976562 L 197.085938 195.15625 L 197.085938 220.679688 L 253.324219 220.679688 C 254.023438 220.675781 254.714844 220.609375 255.398438 220.46875 C 256.085938 220.332031 256.75 220.128906 257.394531 219.859375 C 258.042969 219.59375 258.65625 219.265625 259.234375 218.875 C 259.816406 218.484375 260.355469 218.042969 260.847656 217.550781 C 261.34375 217.054688 261.785156 216.515625 262.171875 215.933594 C 262.5625 215.355469 262.890625 214.742188 263.160156 214.09375 C 263.425781 213.449219 263.628906 212.78125 263.765625 212.097656 C 263.90625 211.410156 263.976562 210.71875 263.976562 210.019531 L 263.976562 134.566406 L 199.382812 134.566406 C 199.316406 134.453125 199.234375 134.378906 199.171875 134.296875 Z M 199.171875 134.296875 " fill-opacity="1" fill-rule="nonzero"/><path fill="rgb(53.729248%, 78.42865%, 71.759033%)" d="M 197.078125 99.0625 L 197.078125 132.066406 L 197.199219 132.1875 L 197.078125 132.066406 Z M 197.078125 99.0625 " fill-opacity="1" fill-rule="nonzero"/><path fill="rgb(53.729248%, 78.42865%, 71.759033%)" d="M 225.722656 87.144531 L 228.894531 92.734375 Z M 225.722656 87.144531 " fill-opacity="1" fill-rule="nonzero"/><path fill="rgb(70.979309%, 86.669922%, 83.918762%)" d="M 263.96875 109.714844 C 263.964844 109.015625 263.894531 108.324219 263.757812 107.636719 C 263.621094 106.953125 263.417969 106.285156 263.148438 105.640625 C 262.878906 104.996094 262.550781 104.382812 262.164062 103.800781 C 261.773438 103.222656 261.332031 102.683594 260.835938 102.1875 C 260.34375 101.695312 259.804688 101.253906 259.226562 100.863281 C 258.644531 100.476562 258.03125 100.148438 257.386719 99.878906 C 256.742188 99.609375 256.074219 99.410156 255.390625 99.269531 C 254.707031 99.132812 254.011719 99.0625 253.316406 99.0625 L 197.078125 99.0625 L 197.078125 132.066406 L 197.257812 132.246094 C 197.914062 132.910156 198.546875 133.601562 199.171875 134.296875 C 199.234375 134.378906 199.316406 134.453125 199.382812 134.523438 L 263.96875 134.523438 Z M 263.96875 109.714844 " fill-opacity="1" fill-rule="nonzero"/><path fill="rgb(70.979309%, 86.669922%, 83.918762%)" d="M 229.492188 93.796875 L 228.886719 92.734375 L 225.714844 87.144531 L 224.679688 85.320312 C 224.179688 84.441406 223.484375 83.765625 222.59375 83.289062 C 221.558594 82.761719 220.457031 82.507812 219.292969 82.527344 L 164.160156 82.527344 C 163 82.503906 161.898438 82.757812 160.863281 83.289062 C 159.972656 83.765625 159.277344 84.441406 158.777344 85.320312 L 153.960938 93.796875 Z M 229.492188 93.796875 " fill-opacity="1" fill-rule="nonzero"/><path fill="rgb(97.648621%, 79.60968%, 50.588989%)" d="M 116.019531 93.96875 L 116.019531 88.351562 C 116.019531 88.109375 115.972656 87.875 115.878906 87.648438 C 115.785156 87.421875 115.652344 87.222656 115.480469 87.050781 C 115.304688 86.878906 115.109375 86.746094 114.882812 86.652344 C 114.65625 86.558594 114.421875 86.511719 114.175781 86.511719 L 90.8125 86.511719 C 90.304688 86.511719 89.871094 86.6875 89.515625 87.046875 C 89.15625 87.40625 88.972656 87.84375 88.972656 88.351562 L 88.972656 93.96875 Z M 116.019531 93.96875 " fill-opacity="1" fill-rule="evenodd"/><path fill="rgb(96.078491%, 67.449951%, 21.569824%)" d="M 116.019531 93.96875 L 116.019531 88.351562 C 116.019531 88.09375 115.964844 87.84375 115.863281 87.605469 C 115.699219 87.558594 115.53125 87.53125 115.363281 87.535156 L 91.996094 87.535156 C 91.75 87.535156 91.519531 87.582031 91.292969 87.679688 C 91.070312 87.773438 90.871094 87.90625 90.699219 88.078125 C 90.527344 88.25 90.394531 88.449219 90.300781 88.671875 C 90.203125 88.898438 90.15625 89.132812 90.15625 89.375 L 90.15625 93.96875 Z M 116.019531 93.96875 " fill-opacity="1" fill-rule="evenodd"/><path fill="rgb(77.648926%, 15.689087%, 33.329773%)" d="M 197.078125 125.753906 L 197.078125 119.996094 C 193.542969 118.222656 189.851562 116.882812 186.003906 115.972656 C 182.152344 115.066406 178.25 114.617188 174.296875 114.625 C 172.96875 114.625 171.652344 114.671875 170.347656 114.769531 C 175.253906 115.210938 179.988281 116.367188 184.542969 118.238281 C 189.101562 120.113281 193.28125 122.617188 197.078125 125.753906 Z M 197.078125 125.753906 " fill-opacity="1" fill-rule="evenodd"/><path fill="rgb(77.648926%, 15.689087%, 33.329773%)" d="M 197.078125 201.5 C 195.429688 202.855469 193.699219 204.101562 191.886719 205.234375 C 190.074219 206.363281 188.195312 207.375 186.25 208.261719 C 184.304688 209.144531 182.3125 209.902344 180.269531 210.527344 C 178.226562 211.152344 176.152344 211.644531 174.042969 211.996094 C 171.9375 212.351562 169.816406 212.566406 167.683594 212.644531 C 165.546875 212.722656 163.417969 212.660156 161.289062 212.457031 C 159.164062 212.257812 157.058594 211.917969 154.976562 211.441406 C 152.890625 210.964844 150.847656 210.355469 148.847656 209.613281 C 150.664062 210.660156 152.535156 211.59375 154.46875 212.414062 C 156.398438 213.230469 158.375 213.925781 160.390625 214.5 C 162.410156 215.070312 164.453125 215.519531 166.527344 215.839844 C 168.601562 216.160156 170.683594 216.351562 172.78125 216.414062 C 174.878906 216.476562 176.96875 216.410156 179.058594 216.214844 C 181.144531 216.019531 183.214844 215.695312 185.261719 215.242188 C 187.308594 214.792969 189.324219 214.214844 191.300781 213.515625 C 193.277344 212.816406 195.203125 211.996094 197.078125 211.058594 Z M 197.078125 201.5 " fill-opacity="1" fill-rule="evenodd"/><path fill="rgb(100%, 100%, 100%)" d="M 204.515625 137.292969 C 205.476562 138.707031 206.363281 140.171875 207.171875 141.679688 L 204.515625 141.679688 Z M 204.515625 137.292969 " fill-opacity="1" fill-rule="evenodd"/><path fill="rgb(47.44873%, 69.40918%, 63.919067%)" d="M 203.75 132.421875 L 212.96875 132.421875 C 208.503906 127.203125 203.199219 123.046875 197.0625 119.960938 L 197.0625 125.753906 C 198.277344 126.761719 199.453125 127.832031 200.574219 128.941406 C 201.691406 130.054688 202.761719 131.199219 203.75 132.421875 Z M 203.75 132.421875 " fill-opacity="1" fill-rule="evenodd"/><path fill="rgb(47.44873%, 69.40918%, 63.919067%)" d="M 263.96875 141.679688 L 263.96875 136.632812 L 204.515625 136.632812 L 204.515625 141.679688 L 209.785156 141.679688 C 210.355469 142.824219 210.878906 143.988281 211.359375 145.171875 C 211.835938 146.355469 212.269531 147.554688 212.65625 148.773438 C 213.042969 149.988281 213.378906 151.21875 213.667969 152.464844 C 213.957031 153.707031 214.199219 154.960938 214.390625 156.222656 C 214.582031 157.488281 214.726562 158.753906 214.820312 160.027344 C 214.910156 161.300781 214.953125 162.578125 214.949219 163.855469 C 214.941406 165.132812 214.886719 166.40625 214.78125 167.679688 C 214.675781 168.953125 214.519531 170.21875 214.3125 171.480469 C 214.109375 172.742188 213.855469 173.992188 213.554688 175.230469 C 213.25 176.472656 212.902344 177.699219 212.503906 178.914062 C 212.105469 180.128906 211.660156 181.324219 211.167969 182.503906 C 210.679688 183.679688 210.140625 184.839844 209.5625 185.976562 C 208.980469 187.113281 208.355469 188.226562 207.6875 189.3125 C 207.019531 190.402344 206.308594 191.460938 205.558594 192.496094 C 204.804688 193.527344 204.015625 194.527344 203.1875 195.5 C 202.359375 196.46875 201.492188 197.40625 200.589844 198.3125 C 199.472656 199.429688 198.296875 200.492188 197.078125 201.5 L 197.078125 211.074219 C 198.589844 210.316406 200.0625 209.484375 201.492188 208.578125 C 202.921875 207.675781 204.304688 206.699219 205.636719 205.660156 C 206.96875 204.617188 208.246094 203.507812 209.46875 202.339844 C 210.691406 201.171875 211.851562 199.941406 212.953125 198.65625 C 214.050781 197.371094 215.085938 196.035156 216.054688 194.644531 C 217.019531 193.257812 217.917969 191.824219 218.742188 190.34375 C 219.566406 188.867188 220.3125 187.351562 220.988281 185.800781 C 221.660156 184.246094 222.253906 182.664062 222.769531 181.050781 C 223.285156 179.441406 223.722656 177.804688 224.074219 176.152344 C 224.429688 174.496094 224.699219 172.828125 224.886719 171.144531 C 225.070312 169.460938 225.175781 167.773438 225.195312 166.082031 C 225.214844 164.390625 225.148438 162.699219 225 161.015625 C 224.847656 159.328125 224.617188 157.652344 224.300781 155.992188 C 223.984375 154.328125 223.585938 152.683594 223.109375 151.0625 C 222.628906 149.4375 222.070312 147.84375 221.429688 146.277344 C 220.792969 144.707031 220.078125 143.175781 219.285156 141.679688 Z M 263.96875 141.679688 " fill-opacity="1" fill-rule="evenodd"/><g clip-path="url(#clip-0)"><path fill="rgb(12.548828%, 19.999695%, 26.669312%)" d="M 301.53125 22.824219 C 253.039062 -12.582031 225.277344 -2.847656 204.871094 25.152344 C 194.484375 39.40625 186.273438 58.351562 178.117188 78.324219 L 164.1875 78.324219 C 162.324219 78.308594 160.566406 78.730469 158.917969 79.597656 C 157.300781 80.449219 156.046875 81.667969 155.152344 83.257812 L 149.066406 93.976562 L 120.242188 93.976562 L 120.242188 88.351562 C 120.242188 87.953125 120.203125 87.5625 120.125 87.171875 C 120.046875 86.78125 119.929688 86.402344 119.777344 86.035156 C 119.625 85.667969 119.441406 85.320312 119.21875 84.988281 C 119 84.65625 118.746094 84.351562 118.464844 84.070312 C 118.183594 83.789062 117.878906 83.539062 117.546875 83.316406 C 117.21875 83.09375 116.871094 82.910156 116.503906 82.753906 C 116.136719 82.601562 115.757812 82.488281 115.367188 82.410156 C 114.976562 82.332031 114.582031 82.292969 114.1875 82.292969 L 90.8125 82.292969 C 90.414062 82.292969 90.019531 82.332031 89.632812 82.410156 C 89.242188 82.488281 88.863281 82.605469 88.496094 82.757812 C 88.128906 82.910156 87.78125 83.097656 87.453125 83.320312 C 87.121094 83.539062 86.816406 83.792969 86.535156 84.074219 C 86.253906 84.355469 86.003906 84.660156 85.785156 84.988281 C 85.5625 85.320312 85.378906 85.667969 85.226562 86.035156 C 85.074219 86.402344 84.957031 86.78125 84.878906 87.171875 C 84.800781 87.5625 84.761719 87.957031 84.761719 88.351562 L 84.761719 93.96875 L 78.511719 93.96875 C 76.425781 93.96875 74.421875 94.371094 72.492188 95.171875 C 70.566406 95.972656 68.867188 97.113281 67.394531 98.589844 C 65.917969 100.0625 64.78125 101.761719 63.980469 103.6875 C 63.179688 105.613281 62.777344 107.621094 62.773438 109.707031 L 62.773438 126.46875 C 61.835938 126.476562 60.921875 126.632812 60.035156 126.9375 C 59.148438 127.238281 58.328125 127.675781 57.578125 128.242188 C 56.832031 128.804688 56.191406 129.476562 55.65625 130.246094 C 55.121094 131.019531 54.722656 131.855469 54.457031 132.757812 C 45.917969 133.566406 38.882812 135.191406 33.214844 137.558594 C 26.515625 140.324219 21.691406 144.050781 18.515625 148.277344 L 18.328125 148.132812 C 18.128906 147.980469 17.910156 147.875 17.664062 147.820312 C 17.421875 147.761719 17.179688 147.753906 16.933594 147.796875 C 16.6875 147.839844 16.460938 147.933594 16.253906 148.070312 C 16.046875 148.210938 15.875 148.382812 15.742188 148.59375 C 13.707031 151.730469 12.417969 155.148438 11.875 158.847656 C 11.269531 163.328125 11.679688 167.710938 13.097656 172 C 17.0625 184.40625 32.605469 189.703125 49.730469 191.714844 C 54.035156 192.226562 58.4375 192.527344 62.765625 192.695312 L 62.765625 210.011719 C 62.769531 212.097656 63.171875 214.101562 63.972656 216.027344 C 64.773438 217.953125 65.910156 219.652344 67.386719 221.125 C 68.859375 222.605469 70.5625 223.746094 72.488281 224.546875 C 74.417969 225.351562 76.425781 225.75 78.511719 225.75 L 253.316406 225.75 C 254.347656 225.746094 255.371094 225.644531 256.382812 225.441406 C 257.394531 225.238281 258.378906 224.9375 259.332031 224.539062 C 260.285156 224.144531 261.191406 223.660156 262.046875 223.082031 C 262.90625 222.507812 263.699219 221.855469 264.429688 221.125 C 265.160156 220.394531 265.8125 219.601562 266.386719 218.742188 C 266.960938 217.882812 267.445312 216.976562 267.84375 216.023438 C 268.238281 215.066406 268.539062 214.085938 268.742188 213.070312 C 268.945312 212.058594 269.050781 211.035156 269.050781 210.003906 L 269.050781 143.960938 C 270.199219 143.949219 271.300781 143.722656 272.359375 143.28125 C 273.417969 142.835938 274.351562 142.207031 275.164062 141.398438 C 275.925781 140.640625 276.523438 139.773438 276.964844 138.792969 C 277.40625 137.8125 277.65625 136.789062 277.71875 135.71875 C 283.539062 133.542969 292.046875 131.742188 301.34375 129.769531 C 305.496094 128.894531 309.792969 127.984375 314.058594 127.003906 L 314.121094 127.296875 C 314.175781 127.527344 314.273438 127.742188 314.410156 127.933594 C 314.550781 128.128906 314.71875 128.289062 314.921875 128.414062 C 315.125 128.542969 315.34375 128.625 315.578125 128.664062 C 315.8125 128.703125 316.046875 128.695312 316.277344 128.644531 C 337.804688 123.546875 358.992188 116.117188 362.832031 99.800781 C 366.628906 83.679688 352.269531 59.875 301.53125 22.824219 Z M 62.765625 184.273438 C 58.710938 184.113281 54.660156 183.828125 50.6875 183.359375 C 36.488281 181.6875 23.777344 177.839844 21.09375 169.4375 C 20.070312 166.382812 19.773438 163.261719 20.199219 160.074219 C 20.546875 157.691406 21.359375 155.480469 22.632812 153.4375 C 22.75 153.246094 22.828125 153.039062 22.871094 152.820312 C 22.910156 152.601562 22.910156 152.378906 22.867188 152.160156 C 22.824219 151.941406 22.746094 151.734375 22.625 151.546875 C 22.507812 151.355469 22.359375 151.195312 22.179688 151.058594 L 21.871094 150.824219 C 24.613281 147.164062 28.851562 143.9375 34.84375 141.476562 C 40.007812 139.335938 46.460938 137.785156 54.300781 137.03125 C 54.660156 138.730469 55.453125 140.195312 56.675781 141.421875 C 57.488281 142.234375 58.421875 142.859375 59.476562 143.304688 C 60.535156 143.75 61.636719 143.976562 62.78125 143.984375 Z M 62.765625 139.75 C 61.542969 139.734375 60.5 139.292969 59.636719 138.425781 C 59.324219 138.113281 59.0625 137.757812 58.851562 137.367188 C 58.644531 136.972656 58.496094 136.558594 58.40625 136.125 C 58.320312 135.6875 58.296875 135.25 58.339844 134.804688 C 58.378906 134.363281 58.484375 133.9375 58.652344 133.523438 C 58.820312 133.113281 59.042969 132.734375 59.320312 132.386719 C 59.597656 132.039062 59.921875 131.742188 60.289062 131.488281 C 60.65625 131.238281 61.050781 131.046875 61.472656 130.910156 C 61.898438 130.773438 62.332031 130.703125 62.773438 130.695312 Z M 158.800781 85.328125 C 159.300781 84.449219 159.996094 83.773438 160.886719 83.296875 C 161.921875 82.765625 163.023438 82.511719 164.1875 82.535156 L 219.320312 82.535156 C 220.480469 82.515625 221.582031 82.769531 222.617188 83.296875 C 223.507812 83.773438 224.203125 84.449219 224.703125 85.328125 L 229.511719 93.804688 L 153.988281 93.804688 Z M 88.972656 88.351562 C 88.972656 87.84375 89.15625 87.40625 89.515625 87.046875 C 89.871094 86.6875 90.304688 86.511719 90.8125 86.511719 L 114.175781 86.511719 C 114.421875 86.511719 114.65625 86.558594 114.882812 86.652344 C 115.109375 86.746094 115.304688 86.878906 115.480469 87.050781 C 115.652344 87.222656 115.785156 87.421875 115.878906 87.648438 C 115.972656 87.875 116.019531 88.109375 116.019531 88.351562 L 116.019531 93.96875 L 88.972656 93.96875 Z M 264.84375 210.003906 C 264.839844 210.757812 264.765625 211.507812 264.617188 212.25 C 264.464844 212.992188 264.246094 213.710938 263.957031 214.410156 C 263.664062 215.109375 263.308594 215.773438 262.886719 216.402344 C 262.46875 217.03125 261.988281 217.613281 261.457031 218.148438 C 260.921875 218.683594 260.339844 219.160156 259.710938 219.582031 C 259.082031 220.003906 258.417969 220.359375 257.71875 220.648438 C 257.023438 220.941406 256.300781 221.160156 255.5625 221.3125 C 254.820312 221.460938 254.070312 221.535156 253.316406 221.539062 L 78.511719 221.539062 C 76.988281 221.53125 75.527344 221.234375 74.121094 220.648438 C 72.71875 220.0625 71.476562 219.226562 70.402344 218.148438 C 69.320312 217.070312 68.484375 215.820312 67.898438 214.410156 C 67.308594 212.996094 67.015625 211.523438 67.015625 209.996094 L 67.015625 136.632812 L 124.992188 136.632812 C 124.40625 137.527344 123.847656 138.441406 123.320312 139.371094 C 122.789062 140.300781 122.292969 141.25 121.828125 142.214844 C 121.359375 143.175781 120.925781 144.152344 120.523438 145.144531 C 120.121094 146.136719 119.75 147.140625 119.414062 148.15625 C 119.078125 149.171875 118.773438 150.199219 118.503906 151.234375 C 118.234375 152.269531 118 153.3125 117.796875 154.363281 C 117.597656 155.417969 117.429688 156.472656 117.296875 157.535156 C 117.164062 158.597656 117.066406 159.664062 117.003906 160.730469 C 116.941406 161.800781 116.914062 162.871094 116.921875 163.941406 C 116.929688 165.011719 116.972656 166.078125 117.046875 167.148438 C 117.125 168.214844 117.238281 169.277344 117.382812 170.339844 C 117.53125 171.398438 117.710938 172.453125 117.929688 173.5 C 118.144531 174.550781 118.394531 175.589844 118.675781 176.621094 C 118.960938 177.652344 119.277344 178.675781 119.628906 179.6875 C 119.980469 180.699219 120.363281 181.695312 120.777344 182.683594 C 121.195312 183.667969 121.640625 184.640625 122.121094 185.597656 C 122.601562 186.554688 123.109375 187.496094 123.652344 188.417969 C 124.191406 189.339844 124.761719 190.246094 125.363281 191.132812 C 125.964844 192.019531 126.589844 192.882812 127.25 193.730469 C 127.90625 194.574219 128.589844 195.398438 129.300781 196.195312 C 130.007812 196.996094 130.746094 197.773438 131.507812 198.523438 C 132.265625 199.277344 133.050781 200.003906 133.859375 200.703125 C 134.667969 201.40625 135.5 202.078125 136.351562 202.722656 C 137.207031 203.371094 138.078125 203.988281 138.972656 204.578125 C 139.867188 205.167969 140.777344 205.726562 141.707031 206.253906 C 142.636719 206.785156 143.582031 207.28125 144.542969 207.75 C 145.507812 208.21875 146.484375 208.652344 147.472656 209.054688 C 148.464844 209.460938 149.46875 209.832031 150.484375 210.167969 C 151.496094 210.503906 152.523438 210.808594 153.558594 211.082031 C 154.59375 211.351562 155.636719 211.585938 156.683594 211.789062 C 157.734375 211.992188 158.792969 212.160156 159.851562 212.292969 C 160.914062 212.425781 161.980469 212.523438 163.046875 212.589844 C 164.113281 212.652344 165.183594 212.679688 166.253906 212.675781 C 167.324219 212.667969 168.390625 212.625 169.457031 212.550781 C 170.523438 212.472656 171.589844 212.363281 172.648438 212.214844 C 173.707031 212.070312 174.761719 211.890625 175.808594 211.675781 C 176.855469 211.460938 177.894531 211.210938 178.929688 210.925781 C 179.960938 210.644531 180.980469 210.328125 181.992188 209.976562 C 183.003906 209.628906 184 209.246094 184.988281 208.828125 C 185.972656 208.414062 186.945312 207.964844 187.898438 207.488281 C 188.855469 207.007812 189.796875 206.5 190.71875 205.957031 C 191.644531 205.417969 192.546875 204.847656 193.433594 204.246094 C 194.320312 203.648438 195.183594 203.019531 196.03125 202.363281 C 196.875 201.707031 197.699219 201.023438 198.496094 200.3125 C 199.296875 199.601562 200.074219 198.867188 200.824219 198.105469 C 201.578125 197.34375 202.304688 196.558594 203.003906 195.75 C 203.707031 194.941406 204.378906 194.113281 205.027344 193.257812 C 205.671875 192.40625 206.289062 191.53125 206.878906 190.640625 C 207.46875 189.746094 208.027344 188.835938 208.558594 187.90625 C 209.085938 186.976562 209.585938 186.027344 210.054688 185.066406 C 210.523438 184.105469 210.957031 183.125 211.363281 182.136719 C 211.765625 181.144531 212.136719 180.140625 212.476562 179.125 C 212.8125 178.109375 213.117188 177.085938 213.390625 176.050781 C 213.660156 175.015625 213.898438 173.972656 214.101562 172.921875 C 214.304688 171.867188 214.472656 170.8125 214.605469 169.75 C 214.738281 168.6875 214.839844 167.625 214.902344 166.554688 C 214.96875 165.488281 214.996094 164.417969 214.992188 163.347656 C 214.984375 162.277344 214.945312 161.207031 214.871094 160.140625 C 214.792969 159.070312 214.683594 158.007812 214.539062 156.949219 C 214.394531 155.886719 214.214844 154.832031 214 153.785156 C 213.785156 152.734375 213.539062 151.695312 213.253906 150.660156 C 212.972656 149.628906 212.65625 148.605469 212.308594 147.59375 C 211.960938 146.582031 211.578125 145.585938 211.164062 144.597656 C 210.75 143.609375 210.300781 142.636719 209.824219 141.679688 C 209.742188 141.519531 209.644531 141.355469 209.566406 141.195312 C 209.273438 140.632812 208.980469 140.082031 208.671875 139.570312 L 208.210938 138.761719 C 207.894531 138.226562 207.5625 137.699219 207.230469 137.136719 C 207.125 136.96875 207.027344 136.796875 206.914062 136.625 L 264.875 136.625 Z M 130.652344 136.632812 C 131.78125 135.148438 133.003906 133.746094 134.316406 132.421875 L 134.527344 132.203125 C 135.554688 131.179688 136.632812 130.203125 137.757812 129.285156 C 138.882812 128.363281 140.046875 127.5 141.257812 126.691406 C 142.464844 125.886719 143.710938 125.140625 144.992188 124.457031 C 146.273438 123.773438 147.585938 123.152344 148.929688 122.597656 C 150.269531 122.042969 151.636719 121.554688 153.027344 121.136719 C 154.417969 120.714844 155.828125 120.363281 157.25 120.082031 C 158.675781 119.796875 160.113281 119.585938 161.558594 119.445312 C 163.003906 119.304688 164.453125 119.234375 165.90625 119.234375 C 167.359375 119.234375 168.808594 119.308594 170.253906 119.449219 C 171.699219 119.59375 173.132812 119.808594 174.558594 120.09375 C 175.984375 120.375 177.390625 120.730469 178.78125 121.152344 C 180.167969 121.574219 181.535156 122.066406 182.878906 122.621094 C 184.21875 123.179688 185.53125 123.800781 186.8125 124.484375 C 188.09375 125.171875 189.335938 125.917969 190.546875 126.726562 C 191.753906 127.53125 192.917969 128.398438 194.039062 129.320312 C 195.164062 130.242188 196.238281 131.21875 197.265625 132.246094 L 197.476562 132.464844 C 198.792969 133.785156 200.011719 135.191406 201.140625 136.675781 C 201.972656 137.765625 202.753906 138.890625 203.480469 140.054688 C 204.210938 141.21875 204.882812 142.414062 205.5 143.636719 C 206.117188 144.863281 206.675781 146.113281 207.179688 147.390625 C 207.679688 148.667969 208.121094 149.964844 208.503906 151.285156 C 208.886719 152.601562 209.203125 153.933594 209.460938 155.28125 C 209.71875 156.628906 209.914062 157.988281 210.046875 159.355469 C 210.179688 160.71875 210.25 162.089844 210.253906 163.460938 C 210.257812 164.832031 210.203125 166.203125 210.078125 167.570312 C 209.957031 168.9375 209.773438 170.292969 209.527344 171.644531 C 209.277344 172.996094 208.96875 174.328125 208.597656 175.652344 C 208.226562 176.972656 207.796875 178.273438 207.304688 179.554688 C 206.8125 180.835938 206.265625 182.089844 205.65625 183.320312 C 205.046875 184.550781 204.386719 185.75 203.664062 186.917969 C 202.945312 188.085938 202.175781 189.21875 201.351562 190.316406 C 200.527344 191.414062 199.65625 192.472656 198.734375 193.488281 C 197.8125 194.503906 196.84375 195.472656 195.832031 196.402344 C 194.820312 197.328125 193.769531 198.203125 192.675781 199.03125 C 191.582031 199.863281 190.453125 200.636719 189.289062 201.363281 C 188.125 202.085938 186.929688 202.753906 185.699219 203.367188 C 184.472656 203.980469 183.222656 204.535156 181.941406 205.03125 C 180.664062 205.53125 179.367188 205.964844 178.046875 206.34375 C 176.730469 206.71875 175.394531 207.035156 174.046875 207.285156 C 172.699219 207.539062 171.34375 207.730469 169.976562 207.855469 C 168.613281 207.984375 167.242188 208.046875 165.871094 208.046875 C 164.5 208.046875 163.132812 207.984375 161.765625 207.855469 C 160.402344 207.730469 159.046875 207.539062 157.699219 207.285156 C 156.347656 207.035156 155.015625 206.71875 153.699219 206.34375 C 152.378906 205.964844 151.082031 205.53125 149.800781 205.03125 C 148.523438 204.535156 147.269531 203.980469 146.042969 203.367188 C 144.816406 202.753906 143.621094 202.085938 142.457031 201.363281 C 141.292969 200.636719 140.164062 199.863281 139.070312 199.03125 C 137.976562 198.203125 136.925781 197.328125 135.914062 196.402344 C 134.902344 195.472656 133.933594 194.503906 133.011719 193.488281 C 132.089844 192.472656 131.21875 191.414062 130.394531 190.316406 C 129.570312 189.21875 128.796875 188.085938 128.078125 186.917969 C 127.359375 185.75 126.695312 184.550781 126.089844 183.320312 C 125.480469 182.089844 124.929688 180.835938 124.441406 179.554688 C 123.949219 178.273438 123.515625 176.972656 123.144531 175.652344 C 122.773438 174.328125 122.464844 172.996094 122.21875 171.644531 C 121.972656 170.292969 121.785156 168.9375 121.664062 167.570312 C 121.542969 166.203125 121.484375 164.832031 121.492188 163.460938 C 121.496094 162.089844 121.566406 160.71875 121.699219 159.355469 C 121.828125 157.988281 122.023438 156.628906 122.28125 155.28125 C 122.539062 153.933594 122.859375 152.601562 123.242188 151.285156 C 123.621094 149.964844 124.066406 148.667969 124.566406 147.390625 C 125.066406 146.113281 125.628906 144.863281 126.246094 143.636719 C 126.863281 142.414062 127.535156 141.21875 128.261719 140.054688 C 128.992188 138.890625 129.773438 137.765625 130.605469 136.675781 Z M 264.84375 132.421875 L 203.75 132.421875 C 202.746094 131.203125 201.6875 130.03125 200.574219 128.910156 C 199.4375 127.773438 198.25 126.695312 197.007812 125.675781 C 195.765625 124.660156 194.476562 123.703125 193.140625 122.808594 C 191.804688 121.917969 190.429688 121.09375 189.011719 120.335938 C 187.597656 119.578125 186.148438 118.890625 184.664062 118.277344 C 183.179688 117.660156 181.667969 117.121094 180.132812 116.65625 C 178.59375 116.1875 177.039062 115.796875 175.464844 115.484375 C 173.886719 115.171875 172.300781 114.9375 170.703125 114.777344 C 169.105469 114.621094 167.503906 114.542969 165.898438 114.542969 C 164.289062 114.542969 162.6875 114.621094 161.089844 114.777344 C 159.492188 114.9375 157.90625 115.171875 156.332031 115.484375 C 154.753906 115.796875 153.199219 116.1875 151.660156 116.65625 C 150.125 117.121094 148.613281 117.660156 147.132812 118.277344 C 145.648438 118.890625 144.195312 119.578125 142.78125 120.335938 C 141.363281 121.09375 139.988281 121.917969 138.652344 122.808594 C 137.316406 123.703125 136.027344 124.660156 134.785156 125.675781 C 133.542969 126.695312 132.355469 127.773438 131.21875 128.910156 C 130.101562 130.03125 129.039062 131.207031 128.035156 132.421875 L 66.972656 132.421875 L 66.972656 109.707031 C 66.976562 108.949219 67.054688 108.199219 67.203125 107.457031 C 67.351562 106.714844 67.574219 105.996094 67.863281 105.296875 C 68.15625 104.597656 68.511719 103.933594 68.929688 103.304688 C 69.351562 102.675781 69.832031 102.09375 70.367188 101.558594 C 70.902344 101.023438 71.484375 100.542969 72.113281 100.125 C 72.742188 99.703125 73.40625 99.347656 74.105469 99.054688 C 74.800781 98.765625 75.523438 98.546875 76.265625 98.398438 C 77.007812 98.246094 77.753906 98.171875 78.511719 98.167969 L 253.316406 98.167969 C 254.84375 98.171875 256.316406 98.464844 257.726562 99.050781 C 259.136719 99.640625 260.382812 100.476562 261.460938 101.5625 C 262.542969 102.636719 263.375 103.875 263.960938 105.28125 C 264.550781 106.6875 264.847656 108.152344 264.851562 109.675781 Z M 272.199219 138.417969 C 271.332031 139.285156 270.285156 139.726562 269.058594 139.742188 L 269.058594 130.6875 C 270.285156 130.710938 271.332031 131.152344 272.199219 132.019531 C 272.40625 132.230469 272.59375 132.457031 272.757812 132.707031 C 272.921875 132.953125 273.058594 133.214844 273.171875 133.488281 C 273.285156 133.761719 273.371094 134.046875 273.429688 134.335938 C 273.488281 134.628906 273.515625 134.921875 273.515625 135.21875 C 273.515625 135.515625 273.488281 135.808594 273.429688 136.101562 C 273.371094 136.390625 273.285156 136.675781 273.171875 136.949219 C 273.058594 137.222656 272.921875 137.484375 272.757812 137.730469 C 272.59375 137.980469 272.40625 138.207031 272.199219 138.417969 Z M 354.636719 97.851562 C 351.824219 109.78125 333.320312 115.9375 314.375 120.40625 C 314.144531 120.460938 313.933594 120.558594 313.742188 120.695312 C 313.546875 120.832031 313.390625 121.003906 313.265625 121.203125 C 313.140625 121.402344 313.054688 121.621094 313.015625 121.855469 C 312.976562 122.085938 312.984375 122.320312 313.035156 122.550781 L 313.109375 122.867188 C 308.820312 123.847656 304.578125 124.75 300.484375 125.617188 C 291.371094 127.546875 283.003906 129.316406 276.898438 131.5 C 276.550781 130.75 276.101562 130.066406 275.558594 129.445312 C 275.015625 128.824219 274.398438 128.292969 273.703125 127.847656 C 273.007812 127.402344 272.265625 127.058594 271.476562 126.824219 C 270.683594 126.589844 269.875 126.46875 269.050781 126.460938 L 269.050781 109.714844 C 269.050781 107.628906 268.652344 105.621094 267.851562 103.691406 C 267.050781 101.765625 265.910156 100.0625 264.429688 98.589844 C 262.960938 97.113281 261.261719 95.972656 259.335938 95.171875 C 257.410156 94.371094 255.40625 93.96875 253.324219 93.96875 L 234.429688 93.96875 L 228.34375 83.25 C 227.449219 81.660156 226.195312 80.441406 224.582031 79.589844 C 222.929688 78.726562 221.171875 78.300781 219.3125 78.316406 L 187.21875 78.316406 C 194.734375 59.980469 202.382812 42.789062 211.648438 30.082031 C 229.144531 6.085938 253.394531 -1.9375 296.59375 29.605469 C 343.949219 64.183594 357.695312 84.929688 354.636719 97.871094 Z M 354.636719 97.851562 " fill-opacity="1" fill-rule="evenodd"/></g><path fill="rgb(12.548828%, 19.999695%, 26.669312%)" d="M 244.996094 108.15625 C 244.101562 107.257812 243.019531 106.800781 241.753906 106.792969 L 219.3125 106.792969 C 218.042969 106.800781 216.960938 107.253906 216.066406 108.15625 C 215.167969 109.050781 214.714844 110.132812 214.707031 111.402344 L 214.707031 122.144531 C 214.710938 123.414062 215.164062 124.496094 216.066406 125.390625 C 216.960938 126.292969 218.042969 126.746094 219.3125 126.753906 L 241.730469 126.753906 C 242.996094 126.746094 244.078125 126.289062 244.972656 125.390625 C 245.871094 124.496094 246.324219 123.414062 246.332031 122.144531 L 246.332031 111.425781 C 246.320312 110.160156 245.867188 109.078125 244.972656 108.179688 Z M 242.148438 122.167969 C 242.152344 122.28125 242.113281 122.378906 242.035156 122.460938 C 241.953125 122.542969 241.851562 122.582031 241.738281 122.582031 L 219.3125 122.582031 C 219.195312 122.582031 219.097656 122.542969 219.019531 122.460938 C 218.9375 122.378906 218.898438 122.28125 218.898438 122.167969 L 218.898438 111.425781 C 218.894531 111.308594 218.9375 111.210938 219.019531 111.125 C 219.101562 111.050781 219.199219 111.011719 219.3125 111.011719 L 241.730469 111.011719 C 241.84375 111.007812 241.945312 111.046875 242.027344 111.125 C 242.109375 111.210938 242.144531 111.3125 242.140625 111.425781 Z M 242.148438 122.167969 " fill-opacity="1" fill-rule="evenodd"/><path fill="rgb(12.548828%, 19.999695%, 26.669312%)" d="M 21.832031 37.441406 C 21.957031 37.523438 21.980469 37.628906 21.902344 37.757812 C 21.5625 38.351562 20.839844 40.324219 24.773438 41.570312 C 24.878906 41.605469 24.90625 41.667969 24.855469 41.765625 C 24.621094 42.195312 24.183594 43.550781 27.289062 44.5 C 27.289062 44.5 27.289062 44.550781 27.289062 44.550781 C 26.929688 44.769531 25.042969 46.050781 31.460938 47.257812 L 31.460938 47.332031 C 30.847656 47.648438 27.660156 49.402344 33.96875 49.976562 C 33.96875 49.976562 34.007812 50.027344 33.96875 50.042969 C 33.457031 50.464844 30.652344 52.988281 36.886719 53.34375 C 36.925781 53.371094 36.925781 53.398438 36.886719 53.425781 C 36.433594 53.914062 34.375 56.304688 39.320312 56.09375 C 39.367188 56.09375 39.382812 56.113281 39.367188 56.160156 C 39.238281 56.550781 38.6875 58.730469 42.277344 58.253906 C 42.277344 58.253906 42.328125 58.300781 42.277344 58.308594 C 41.921875 58.746094 40.25 60.972656 43.898438 60.914062 C 43.949219 61.171875 44.605469 64.402344 45.878906 62.949219 L 45.925781 62.949219 C 45.925781 63.363281 45.78125 65.042969 47.0625 64.898438 C 47.136719 65.191406 47.671875 67.386719 49.609375 67.859375 C 49.667969 67.878906 49.683594 67.914062 49.65625 67.972656 C 48.570312 69.480469 34.25 89.132812 28.527344 93.707031 C 28.527344 93.707031 26.988281 95.332031 28.925781 95.078125 C 28.851562 95.296875 28.691406 96.214844 29.898438 95.46875 L 29.945312 95.46875 C 30.472656 95.078125 38.671875 89.042969 39.269531 88.359375 C 39.398438 88.214844 52.882812 83.210938 53.695312 82.234375 L 53.742188 82.234375 C 70.128906 79.980469 77.742188 68.96875 78.542969 60.644531 C 78.542969 60.644531 84.964844 53.816406 85.703125 47.46875 C 85.703125 47.46875 86.683594 44.355469 91.574219 42.675781 C 96.460938 40.996094 106.167969 38.472656 106.289062 38.617188 C 106.289062 38.617188 107.5625 37.96875 106.101562 37.90625 C 106.101562 37.90625 96.527344 38.601562 89.707031 40.777344 C 88.585938 41.101562 87.457031 41.132812 86.320312 40.875 C 83.078125 39.925781 76.257812 38.109375 72.308594 42.320312 C 70.746094 44.191406 69.394531 46.207031 68.253906 48.363281 C 68.011719 48.917969 67.675781 49.40625 67.242188 49.832031 C 66.585938 50.464844 65.621094 51.054688 64.625 50.433594 C 64.6875 50.1875 38.953125 21.222656 22.464844 23.226562 C 22.464844 23.226562 19.84375 24.195312 23.550781 25.394531 C 23.683594 25.441406 23.757812 25.53125 23.773438 25.671875 C 23.789062 25.816406 23.734375 25.921875 23.613281 25.996094 C 22.488281 26.667969 21.992188 28.476562 26.859375 29.175781 C 26.90625 29.175781 26.914062 29.25 26.859375 29.265625 C 23.515625 30.074219 29.695312 33.839844 34.917969 36.949219 C 36.839844 37.882812 38.636719 39.015625 40.316406 40.339844 C 40.375 40.394531 40.4375 40.441406 40.503906 40.484375 L 38.5 39.234375 C 34.753906 37.078125 30.789062 35.453125 26.605469 34.367188 C 25.609375 34.246094 24.5 34.148438 23.242188 34.074219 C 21.917969 34.039062 20.621094 34.207031 19.351562 34.585938 C 19.097656 35.164062 19.632812 36.015625 21.832031 37.441406 Z M 79.296875 45.230469 C 79.320312 45.027344 79.378906 44.839844 79.476562 44.660156 C 79.574219 44.480469 79.703125 44.328125 79.863281 44.203125 C 80.023438 44.078125 80.203125 43.988281 80.398438 43.9375 C 80.59375 43.882812 80.792969 43.871094 80.996094 43.898438 C 81.199219 43.925781 81.386719 43.992188 81.558594 44.097656 C 81.734375 44.199219 81.882812 44.335938 82 44.5 C 82.121094 44.664062 82.203125 44.84375 82.25 45.042969 C 82.296875 45.242188 82.304688 45.441406 82.269531 45.640625 C 82.234375 45.84375 82.160156 46.027344 82.050781 46.199219 C 81.941406 46.371094 81.800781 46.511719 81.632812 46.628906 C 81.464844 46.742188 81.28125 46.816406 81.078125 46.859375 C 80.878906 46.898438 80.679688 46.894531 80.480469 46.855469 C 80.296875 46.824219 80.125 46.757812 79.964844 46.660156 C 79.804688 46.5625 79.667969 46.4375 79.558594 46.285156 C 79.445312 46.132812 79.367188 45.964844 79.324219 45.785156 C 79.277344 45.601562 79.269531 45.417969 79.296875 45.230469 Z M 79.296875 45.230469 " fill-opacity="1" fill-rule="evenodd"/><path fill="rgb(100%, 100%, 100%)" d="M 152.585938 163.15625 C 153.214844 163.15625 153.839844 163.089844 154.457031 162.964844 C 155.074219 162.839844 155.675781 162.65625 156.253906 162.414062 C 156.835938 162.171875 157.390625 161.871094 157.914062 161.519531 C 158.4375 161.167969 158.917969 160.769531 159.363281 160.320312 C 159.808594 159.875 160.207031 159.386719 160.554688 158.863281 C 160.902344 158.335938 161.199219 157.78125 161.4375 157.199219 C 161.675781 156.617188 161.859375 156.015625 161.980469 155.394531 C 162.101562 154.777344 162.160156 154.152344 162.160156 153.519531 C 162.15625 152.890625 162.09375 152.265625 161.972656 151.648438 C 161.847656 151.027344 161.664062 150.429688 161.421875 149.847656 C 161.179688 149.261719 160.882812 148.710938 160.53125 148.1875 C 160.179688 147.664062 159.78125 147.179688 159.332031 146.734375 C 158.886719 146.289062 158.402344 145.890625 157.878906 145.539062 C 157.351562 145.191406 156.796875 144.894531 156.214844 144.65625 C 155.632812 144.414062 155.03125 144.234375 154.414062 144.109375 C 153.796875 143.988281 153.171875 143.925781 152.539062 143.929688 C 151.910156 143.929688 151.285156 143.992188 150.667969 144.113281 C 150.050781 144.238281 149.449219 144.421875 148.867188 144.664062 C 148.285156 144.90625 147.730469 145.203125 147.207031 145.550781 C 146.683594 145.902344 146.199219 146.300781 145.753906 146.75 C 145.308594 147.195312 144.910156 147.679688 144.5625 148.203125 C 144.210938 148.730469 143.914062 149.28125 143.675781 149.867188 C 143.433594 150.449219 143.25 151.050781 143.128906 151.667969 C 143.003906 152.285156 142.945312 152.910156 142.945312 153.542969 C 142.945312 154.175781 143.007812 154.800781 143.132812 155.421875 C 143.257812 156.039062 143.441406 156.644531 143.683594 157.226562 C 143.925781 157.808594 144.222656 158.363281 144.574219 158.890625 C 144.925781 159.414062 145.328125 159.902344 145.773438 160.347656 C 146.222656 160.792969 146.707031 161.191406 147.234375 161.542969 C 147.761719 161.894531 148.316406 162.1875 148.898438 162.429688 C 149.484375 162.671875 150.085938 162.851562 150.707031 162.976562 C 151.328125 163.097656 151.953125 163.15625 152.585938 163.15625 Z M 152.585938 163.15625 " fill-opacity="1" fill-rule="evenodd"/></svg>