<?xml version="1.0" encoding="UTF-8"?><svg xmlns="http://www.w3.org/2000/svg" xmlns:xlink="http://www.w3.org/1999/xlink" contentScriptType="text/ecmascript" width="375" zoomAndPan="magnify" contentStyleType="text/css" viewBox="0 0 375 374.999991" height="374.999991" preserveAspectRatio="xMidYMid meet" version="1.0"><defs><clipPath id="clip-0"><path d="M 0 67.5 L 375 67.5 L 375 307.5 L 0 307.5 Z M 0 67.5 " clip-rule="nonzero"/></clipPath></defs><path fill="rgb(87.059021%, 19.999695%, 36.859131%)" d="M 131.378906 274.972656 L 131.378906 302.109375 L 197.691406 302.109375 L 197.691406 274.972656 C 196.601562 276.050781 195.460938 277.074219 194.269531 278.042969 C 193.082031 279.007812 191.847656 279.917969 190.566406 280.761719 C 189.289062 281.609375 187.972656 282.390625 186.617188 283.109375 C 185.261719 283.828125 183.878906 284.480469 182.457031 285.0625 C 181.039062 285.644531 179.597656 286.15625 178.128906 286.601562 C 176.660156 287.042969 175.175781 287.410156 173.671875 287.707031 C 172.164062 288.003906 170.652344 288.230469 169.125 288.378906 C 167.597656 288.527344 166.070312 288.601562 164.535156 288.601562 C 163 288.601562 161.472656 288.527344 159.945312 288.378906 C 158.417969 288.230469 156.90625 288.003906 155.398438 287.707031 C 153.894531 287.410156 152.410156 287.042969 150.941406 286.601562 C 149.472656 286.15625 148.03125 285.644531 146.609375 285.0625 C 145.191406 284.480469 143.804688 283.828125 142.453125 283.109375 C 141.097656 282.390625 139.78125 281.609375 138.5 280.761719 C 137.222656 279.917969 135.988281 279.007812 134.800781 278.042969 C 133.609375 277.074219 132.46875 276.050781 131.378906 274.972656 Z M 131.378906 274.972656 " fill-opacity="1" fill-rule="evenodd"/><path fill="rgb(87.059021%, 19.999695%, 36.859131%)" d="M 131.378906 172.816406 L 131.378906 207.902344 C 132.46875 206.824219 133.609375 205.804688 134.800781 204.835938 C 135.992188 203.871094 137.226562 202.964844 138.503906 202.117188 C 139.78125 201.273438 141.097656 200.492188 142.453125 199.773438 C 143.808594 199.054688 145.195312 198.40625 146.613281 197.824219 C 148.03125 197.238281 149.476562 196.726562 150.941406 196.285156 C 152.410156 195.84375 153.898438 195.476562 155.402344 195.179688 C 156.90625 194.882812 158.421875 194.660156 159.945312 194.507812 C 161.472656 194.359375 163 194.285156 164.535156 194.285156 C 166.066406 194.285156 167.597656 194.359375 169.125 194.507812 C 170.648438 194.660156 172.164062 194.882812 173.667969 195.179688 C 175.171875 195.476562 176.660156 195.84375 178.128906 196.285156 C 179.59375 196.726562 181.039062 197.238281 182.457031 197.824219 C 183.875 198.40625 185.261719 199.054688 186.617188 199.773438 C 187.972656 200.492188 189.289062 201.273438 190.566406 202.117188 C 191.84375 202.964844 193.078125 203.871094 194.269531 204.835938 C 195.460938 205.804688 196.601562 206.824219 197.691406 207.902344 L 197.691406 172.816406 Z M 131.378906 172.816406 " fill-opacity="1" fill-rule="evenodd"/><path fill="rgb(87.059021%, 19.999695%, 36.859131%)" d="M 135.183594 149.699219 C 138.054688 147.808594 141.175781 142.253906 142.574219 136.183594 C 146.421875 119.46875 129.636719 109.445312 126.703125 129.535156 C 117.050781 123.253906 103.648438 131.085938 114.09375 141.410156 C 120.125 147.378906 132.128906 151.070312 135.183594 149.699219 Z M 135.183594 149.699219 " fill-opacity="1" fill-rule="evenodd"/><path fill="rgb(87.059021%, 19.999695%, 36.859131%)" d="M 157.4375 112.429688 C 159.816406 111.953125 163.351562 109.167969 165.890625 105.527344 C 172.882812 95.628906 164.585938 84.578125 157.265625 96.902344 C 152.632812 90.210938 141.738281 91.730469 145.828125 101.292969 C 148.199219 106.882812 155.0625 112.515625 157.4375 112.429688 Z M 157.4375 112.429688 " fill-opacity="1" fill-rule="evenodd"/><path fill="rgb(87.059021%, 19.999695%, 36.859131%)" d="M 122.332031 103.175781 C 124.273438 102.519531 126.921875 99.800781 128.664062 96.507812 C 133.433594 87.460938 125.296875 79.117188 120.527344 90.246094 C 115.921875 85.148438 106.996094 87.605469 111.429688 95.160156 C 114 99.527344 120.355469 103.492188 122.332031 103.175781 Z M 122.332031 103.175781 " fill-opacity="1" fill-rule="evenodd"/><path fill="rgb(96.078491%, 67.449951%, 21.569824%)" d="M 131.378906 274.972656 L 131.378906 302.109375 L 97.195312 302.109375 L 97.195312 172.816406 L 131.378906 172.816406 L 131.378906 207.902344 L 131.191406 208.09375 C 130.097656 209.183594 129.0625 210.328125 128.082031 211.523438 C 127.101562 212.714844 126.179688 213.957031 125.324219 215.238281 C 124.464844 216.523438 123.671875 217.847656 122.941406 219.210938 C 122.214844 220.570312 121.554688 221.964844 120.964844 223.394531 C 120.371094 224.820312 119.851562 226.273438 119.402344 227.75 C 118.953125 229.230469 118.578125 230.726562 118.277344 232.242188 C 117.976562 233.757812 117.75 235.28125 117.597656 236.820312 C 117.449219 238.355469 117.371094 239.898438 117.371094 241.441406 C 117.371094 242.988281 117.449219 244.527344 117.597656 246.066406 C 117.75 247.601562 117.976562 249.128906 118.277344 250.644531 C 118.578125 252.160156 118.953125 253.65625 119.402344 255.132812 C 119.851562 256.613281 120.371094 258.066406 120.964844 259.492188 C 121.554688 260.917969 122.214844 262.3125 122.941406 263.675781 C 123.671875 265.039062 124.464844 266.363281 125.324219 267.644531 C 126.179688 268.929688 127.101562 270.167969 128.082031 271.363281 C 129.0625 272.558594 130.097656 273.699219 131.191406 274.792969 Z M 131.378906 274.972656 " fill-opacity="1" fill-rule="evenodd"/><path fill="rgb(96.078491%, 67.449951%, 21.569824%)" d="M 97.195312 210.515625 L 97.195312 172.816406 L 131.378906 172.816406 L 131.378906 207.902344 L 131.191406 208.09375 C 130.40625 208.878906 129.644531 209.6875 128.921875 210.515625 Z M 97.195312 210.515625 " fill-opacity="1" fill-rule="evenodd"/><path fill="rgb(97.648621%, 90.589905%, 5.879211%)" d="M 73.261719 172.816406 L 97.195312 172.816406 L 97.195312 302.09375 L 73.261719 302.09375 Z M 73.261719 172.816406 " fill-opacity="1" fill-rule="nonzero"/><path fill="rgb(100%, 93.328857%, 37.249756%)" d="M 73.261719 172.816406 L 97.195312 172.816406 L 97.195312 210.523438 L 73.261719 210.523438 Z M 73.261719 172.816406 " fill-opacity="1" fill-rule="nonzero"/><path fill="rgb(53.729248%, 78.42865%, 71.759033%)" d="M 73.261719 172.816406 L 73.261719 302.109375 L 71.535156 302.109375 C 70.792969 302.105469 70.058594 302.03125 69.328125 301.886719 C 68.597656 301.738281 67.890625 301.523438 67.203125 301.238281 C 66.519531 300.953125 65.867188 300.601562 65.25 300.1875 C 64.628906 299.773438 64.058594 299.304688 63.53125 298.78125 C 63.007812 298.253906 62.539062 297.683594 62.125 297.0625 C 61.710938 296.445312 61.359375 295.792969 61.074219 295.105469 C 60.789062 294.421875 60.574219 293.714844 60.425781 292.984375 C 60.28125 292.253906 60.207031 291.519531 60.203125 290.777344 L 60.203125 184.140625 C 60.207031 183.394531 60.28125 182.660156 60.425781 181.929688 C 60.574219 181.199219 60.789062 180.492188 61.078125 179.804688 C 61.363281 179.117188 61.714844 178.464844 62.128906 177.847656 C 62.542969 177.230469 63.011719 176.660156 63.539062 176.132812 C 64.066406 175.609375 64.640625 175.136719 65.257812 174.726562 C 65.875 174.3125 66.53125 173.964844 67.21875 173.679688 C 67.90625 173.394531 68.613281 173.179688 69.34375 173.035156 C 70.074219 172.890625 70.808594 172.816406 71.554688 172.816406 Z M 73.261719 172.816406 " fill-opacity="1" fill-rule="evenodd"/><path fill="rgb(78.42865%, 89.7995%, 87.449646%)" d="M 67.035156 301.144531 C 66.027344 300.703125 65.101562 300.128906 64.261719 299.417969 C 63.417969 298.710938 62.695312 297.898438 62.089844 296.980469 C 61.488281 296.058594 61.023438 295.074219 60.707031 294.023438 C 60.386719 292.96875 60.226562 291.894531 60.21875 290.792969 L 60.21875 184.140625 C 60.226562 183.039062 60.390625 181.964844 60.707031 180.910156 C 61.027344 179.859375 61.488281 178.875 62.09375 177.957031 C 62.699219 177.035156 63.421875 176.222656 64.261719 175.515625 C 65.101562 174.804688 66.027344 174.230469 67.035156 173.789062 Z M 67.035156 301.144531 " fill-opacity="1" fill-rule="evenodd"/><path fill="rgb(78.42865%, 89.7995%, 88.238525%)" d="M 73.261719 172.816406 L 73.261719 210.515625 L 60.21875 210.515625 L 60.21875 184.140625 C 60.222656 183.398438 60.296875 182.660156 60.445312 181.933594 C 60.589844 181.203125 60.808594 180.496094 61.09375 179.808594 C 61.378906 179.125 61.726562 178.472656 62.140625 177.855469 C 62.554688 177.238281 63.023438 176.664062 63.550781 176.140625 C 64.078125 175.613281 64.648438 175.144531 65.265625 174.730469 C 65.882812 174.320312 66.535156 173.96875 67.222656 173.683594 C 67.910156 173.398438 68.617188 173.183594 69.34375 173.039062 C 70.074219 172.890625 70.8125 172.816406 71.554688 172.816406 Z M 73.261719 172.816406 " fill-opacity="1" fill-rule="evenodd"/><path fill="rgb(89.019775%, 94.898987%, 94.509888%)" d="M 67.035156 210.515625 L 60.21875 210.515625 L 60.21875 184.140625 C 60.226562 183.039062 60.390625 181.964844 60.707031 180.910156 C 61.027344 179.859375 61.488281 178.875 62.09375 177.957031 C 62.699219 177.035156 63.421875 176.222656 64.261719 175.515625 C 65.101562 174.804688 66.027344 174.230469 67.035156 173.789062 Z M 67.035156 210.515625 " fill-opacity="1" fill-rule="evenodd"/><path fill="rgb(100%, 100%, 100%)" d="M 164.535156 291.128906 C 166.164062 291.128906 167.785156 291.050781 169.40625 290.890625 C 171.023438 290.730469 172.632812 290.492188 174.226562 290.171875 C 175.824219 289.855469 177.398438 289.460938 178.957031 288.988281 C 180.515625 288.515625 182.042969 287.96875 183.546875 287.347656 C 185.050781 286.722656 186.519531 286.027344 187.957031 285.261719 C 189.390625 284.492188 190.785156 283.65625 192.136719 282.753906 C 193.488281 281.847656 194.796875 280.882812 196.054688 279.847656 C 197.3125 278.816406 198.515625 277.726562 199.664062 276.574219 C 200.816406 275.421875 201.90625 274.21875 202.941406 272.960938 C 203.972656 271.703125 204.941406 270.398438 205.84375 269.042969 C 206.75 267.691406 207.582031 266.296875 208.351562 264.863281 C 209.117188 263.425781 209.8125 261.957031 210.433594 260.453125 C 211.058594 258.949219 211.605469 257.417969 212.078125 255.863281 C 212.550781 254.304688 212.945312 252.726562 213.261719 251.132812 C 213.578125 249.535156 213.816406 247.929688 213.976562 246.308594 C 214.136719 244.6875 214.21875 243.066406 214.21875 241.4375 C 214.21875 239.8125 214.136719 238.1875 213.976562 236.566406 C 213.816406 234.949219 213.578125 233.339844 213.261719 231.746094 C 212.945312 230.148438 212.550781 228.570312 212.078125 227.015625 C 211.605469 225.457031 211.054688 223.925781 210.433594 222.421875 C 209.8125 220.917969 209.117188 219.449219 208.347656 218.015625 C 207.582031 216.578125 206.746094 215.183594 205.839844 213.832031 C 204.9375 212.480469 203.96875 211.171875 202.9375 209.914062 C 201.902344 208.65625 200.8125 207.453125 199.660156 206.300781 C 198.511719 205.152344 197.308594 204.058594 196.046875 203.027344 C 194.789062 201.996094 193.484375 201.027344 192.132812 200.121094 C 190.777344 199.21875 189.386719 198.382812 187.949219 197.617188 C 186.515625 196.847656 185.046875 196.152344 183.542969 195.53125 C 182.039062 194.90625 180.507812 194.359375 178.949219 193.886719 C 177.394531 193.414062 175.816406 193.019531 174.21875 192.703125 C 172.625 192.386719 171.015625 192.148438 169.398438 191.988281 C 167.777344 191.828125 166.152344 191.746094 164.527344 191.746094 C 162.898438 191.75 161.277344 191.828125 159.65625 191.988281 C 158.035156 192.148438 156.429688 192.386719 154.832031 192.703125 C 153.234375 193.019531 151.660156 193.414062 150.101562 193.886719 C 148.542969 194.359375 147.015625 194.910156 145.511719 195.53125 C 144.007812 196.152344 142.539062 196.847656 141.101562 197.617188 C 139.667969 198.382812 138.273438 199.21875 136.917969 200.125 C 135.566406 201.027344 134.261719 201.996094 133.003906 203.027344 C 131.746094 204.0625 130.539062 205.152344 129.390625 206.304688 C 128.238281 207.453125 127.148438 208.65625 126.113281 209.917969 C 125.082031 211.175781 124.113281 212.480469 123.210938 213.832031 C 122.304688 215.1875 121.46875 216.582031 120.703125 218.015625 C 119.9375 219.449219 119.242188 220.917969 118.617188 222.421875 C 117.996094 223.925781 117.449219 225.457031 116.976562 227.015625 C 116.503906 228.570312 116.109375 230.148438 115.789062 231.746094 C 115.472656 233.339844 115.234375 234.949219 115.074219 236.566406 C 114.914062 238.1875 114.835938 239.8125 114.835938 241.4375 C 114.839844 243.066406 114.921875 244.6875 115.082031 246.308594 C 115.246094 247.925781 115.488281 249.53125 115.804688 251.128906 C 116.125 252.722656 116.523438 254.296875 116.996094 255.855469 C 117.472656 257.410156 118.019531 258.9375 118.644531 260.441406 C 119.269531 261.945312 119.964844 263.410156 120.730469 264.847656 C 121.5 266.28125 122.335938 267.671875 123.242188 269.027344 C 124.144531 270.378906 125.113281 271.683594 126.144531 272.9375 C 127.179688 274.195312 128.269531 275.398438 129.421875 276.550781 C 130.570312 277.699219 131.773438 278.792969 133.03125 279.824219 C 134.289062 280.855469 135.59375 281.824219 136.945312 282.730469 C 138.300781 283.632812 139.691406 284.46875 141.125 285.238281 C 142.5625 286.003906 144.027344 286.699219 145.53125 287.324219 C 147.035156 287.949219 148.5625 288.496094 150.121094 288.96875 C 151.675781 289.445312 153.25 289.839844 154.847656 290.160156 C 156.441406 290.480469 158.046875 290.71875 159.667969 290.882812 C 161.285156 291.042969 162.910156 291.125 164.535156 291.128906 Z M 164.535156 291.128906 " fill-opacity="1" fill-rule="evenodd"/><path fill="rgb(12.548828%, 19.999695%, 26.669312%)" d="M 190.472656 215.5 C 191.324219 216.351562 192.128906 217.238281 192.890625 218.167969 C 193.652344 219.097656 194.367188 220.058594 195.035156 221.058594 C 195.703125 222.058594 196.320312 223.085938 196.886719 224.148438 C 197.453125 225.207031 197.964844 226.292969 198.425781 227.402344 C 198.886719 228.511719 199.289062 229.640625 199.636719 230.789062 C 199.988281 231.941406 200.277344 233.105469 200.511719 234.28125 C 200.746094 235.460938 200.921875 236.648438 201.039062 237.84375 C 201.160156 239.039062 201.21875 240.238281 201.21875 241.441406 C 201.21875 242.640625 201.160156 243.839844 201.039062 245.035156 C 200.921875 246.230469 200.746094 247.417969 200.511719 248.597656 C 200.277344 249.773438 199.988281 250.9375 199.636719 252.089844 C 199.289062 253.238281 198.886719 254.367188 198.425781 255.476562 C 197.964844 256.585938 197.453125 257.671875 196.886719 258.730469 C 196.320312 259.792969 195.703125 260.820312 195.035156 261.820312 C 194.367188 262.820312 193.652344 263.78125 192.890625 264.710938 C 192.128906 265.640625 191.324219 266.527344 190.472656 267.378906 C 189.625 268.226562 188.734375 269.035156 187.804688 269.796875 C 186.878906 270.558594 185.914062 271.273438 184.914062 271.941406 C 183.914062 272.609375 182.886719 273.226562 181.828125 273.792969 C 180.765625 274.359375 179.683594 274.871094 178.570312 275.332031 C 177.460938 275.789062 176.332031 276.195312 175.183594 276.542969 C 174.03125 276.890625 172.867188 277.183594 171.691406 277.417969 C 170.511719 277.652344 169.324219 277.828125 168.128906 277.945312 C 166.933594 278.0625 165.734375 278.125 164.535156 278.125 C 163.332031 278.125 162.132812 278.0625 160.9375 277.945312 C 159.742188 277.828125 158.554688 277.652344 157.378906 277.417969 C 156.199219 277.183594 155.035156 276.890625 153.886719 276.542969 C 152.734375 276.195312 151.605469 275.789062 150.496094 275.332031 C 149.386719 274.871094 148.300781 274.359375 147.242188 273.792969 C 146.183594 273.226562 145.152344 272.609375 144.152344 271.941406 C 143.15625 271.273438 142.191406 270.558594 141.261719 269.796875 C 140.332031 269.035156 139.445312 268.226562 138.59375 267.378906 C 137.746094 266.527344 136.941406 265.640625 136.175781 264.710938 C 135.414062 263.78125 134.699219 262.820312 134.03125 261.820312 C 133.367188 260.820312 132.75 259.792969 132.183594 258.730469 C 131.617188 257.671875 131.101562 256.585938 130.644531 255.476562 C 130.183594 254.367188 129.777344 253.238281 129.429688 252.089844 C 129.082031 250.9375 128.789062 249.773438 128.554688 248.597656 C 128.320312 247.417969 128.144531 246.230469 128.027344 245.035156 C 127.910156 243.839844 127.851562 242.640625 127.851562 241.441406 C 127.851562 240.238281 127.910156 239.039062 128.027344 237.84375 C 128.144531 236.648438 128.320312 235.460938 128.554688 234.28125 C 128.789062 233.105469 129.082031 231.941406 129.429688 230.789062 C 129.777344 229.640625 130.183594 228.511719 130.644531 227.402344 C 131.101562 226.292969 131.617188 225.207031 132.183594 224.148438 C 132.75 223.085938 133.367188 222.058594 134.03125 221.058594 C 134.699219 220.058594 135.414062 219.097656 136.175781 218.167969 C 136.941406 217.238281 137.746094 216.351562 138.59375 215.5 C 139.445312 214.652344 140.332031 213.84375 141.261719 213.082031 C 142.191406 212.320312 143.15625 211.605469 144.152344 210.9375 C 145.152344 210.269531 146.183594 209.652344 147.242188 209.085938 C 148.300781 208.519531 149.386719 208.007812 150.496094 207.546875 C 151.605469 207.089844 152.734375 206.683594 153.886719 206.335938 C 155.035156 205.988281 156.199219 205.695312 157.378906 205.460938 C 158.554688 205.226562 159.742188 205.050781 160.9375 204.933594 C 162.132812 204.816406 163.332031 204.757812 164.535156 204.757812 C 165.734375 204.757812 166.933594 204.816406 168.128906 204.933594 C 169.324219 205.050781 170.511719 205.226562 171.691406 205.460938 C 172.867188 205.695312 174.03125 205.988281 175.183594 206.335938 C 176.332031 206.683594 177.460938 207.089844 178.570312 207.546875 C 179.683594 208.007812 180.765625 208.519531 181.828125 209.085938 C 182.886719 209.652344 183.914062 210.269531 184.914062 210.9375 C 185.914062 211.605469 186.878906 212.320312 187.804688 213.082031 C 188.734375 213.84375 189.625 214.652344 190.472656 215.5 Z M 190.472656 215.5 " fill-opacity="1" fill-rule="nonzero"/><path fill="rgb(100%, 100%, 100%)" d="M 245.191406 185.511719 L 221.339844 185.511719 L 220.902344 185.960938 L 221.023438 197.691406 L 221.339844 197.828125 L 245.191406 197.828125 L 245.640625 197.371094 L 245.519531 185.640625 Z M 245.191406 185.511719 " fill-opacity="1" fill-rule="evenodd"/><path fill="rgb(53.729248%, 78.42865%, 71.759033%)" d="M 199.917969 210.273438 C 200.894531 211.386719 201.820312 212.542969 202.691406 213.742188 C 203.5625 214.941406 204.375 216.179688 205.128906 217.453125 C 205.886719 218.730469 206.578125 220.039062 207.207031 221.378906 C 207.839844 222.71875 208.40625 224.085938 208.90625 225.480469 C 209.410156 226.875 209.84375 228.292969 210.214844 229.726562 C 210.582031 231.164062 210.882812 232.613281 211.113281 234.074219 C 211.347656 235.539062 211.507812 237.011719 211.601562 238.488281 C 211.695312 239.96875 211.71875 241.449219 211.671875 242.929688 C 211.625 244.414062 211.507812 245.886719 211.324219 247.359375 C 211.136719 248.828125 210.882812 250.285156 210.558594 251.734375 C 210.234375 253.179688 209.84375 254.609375 209.386719 256.015625 C 208.929688 257.425781 208.40625 258.8125 207.816406 260.171875 C 207.230469 261.53125 206.578125 262.863281 205.863281 264.160156 C 205.152344 265.460938 204.378906 266.722656 203.542969 267.945312 C 202.710938 269.171875 201.824219 270.355469 200.878906 271.5 C 199.933594 272.640625 198.9375 273.734375 197.890625 274.785156 L 197.699219 274.972656 L 197.699219 302.109375 L 257.523438 302.109375 C 258.269531 302.109375 259.003906 302.035156 259.734375 301.886719 C 260.464844 301.742188 261.171875 301.523438 261.859375 301.238281 C 262.542969 300.953125 263.195312 300.605469 263.816406 300.191406 C 264.433594 299.777344 265.003906 299.308594 265.53125 298.78125 C 266.058594 298.257812 266.527344 297.683594 266.941406 297.066406 C 267.355469 296.449219 267.703125 295.796875 267.988281 295.109375 C 268.273438 294.421875 268.488281 293.714844 268.636719 292.984375 C 268.78125 292.253906 268.855469 291.519531 268.859375 290.777344 L 268.859375 210.558594 L 200.140625 210.558594 C 200.070312 210.4375 199.984375 210.363281 199.917969 210.273438 Z M 199.917969 210.273438 " fill-opacity="1" fill-rule="nonzero"/><path fill="rgb(53.729248%, 78.42865%, 71.759033%)" d="M 197.691406 172.816406 L 197.691406 207.902344 L 197.820312 208.03125 L 197.691406 207.902344 Z M 197.691406 172.816406 " fill-opacity="1" fill-rule="nonzero"/><path fill="rgb(53.729248%, 78.42865%, 71.759033%)" d="M 228.164062 160.144531 L 231.535156 166.085938 Z M 228.164062 160.144531 " fill-opacity="1" fill-rule="nonzero"/><path fill="rgb(70.979309%, 86.669922%, 83.918762%)" d="M 268.851562 184.140625 C 268.847656 183.398438 268.773438 182.660156 268.625 181.933594 C 268.480469 181.203125 268.261719 180.496094 267.976562 179.808594 C 267.691406 179.125 267.34375 178.472656 266.929688 177.855469 C 266.515625 177.238281 266.046875 176.664062 265.519531 176.140625 C 264.992188 175.613281 264.421875 175.144531 263.804688 174.730469 C 263.1875 174.320312 262.535156 173.96875 261.847656 173.683594 C 261.160156 173.398438 260.453125 173.183594 259.722656 173.039062 C 258.996094 172.890625 258.257812 172.816406 257.515625 172.816406 L 197.691406 172.816406 L 197.691406 207.902344 L 197.820312 208.03125 L 197.878906 208.09375 C 198.578125 208.800781 199.253906 209.535156 199.917969 210.273438 C 199.984375 210.363281 200.070312 210.4375 200.140625 210.515625 L 268.851562 210.515625 Z M 268.851562 184.140625 " fill-opacity="1" fill-rule="nonzero"/><path fill="rgb(70.979309%, 86.669922%, 83.918762%)" d="M 232.175781 167.21875 L 231.527344 166.085938 L 228.15625 160.144531 L 227.050781 158.203125 C 226.519531 157.269531 225.78125 156.550781 224.835938 156.046875 C 223.730469 155.484375 222.5625 155.214844 221.324219 155.238281 L 162.671875 155.238281 C 161.433594 155.214844 160.265625 155.484375 159.160156 156.046875 C 158.214844 156.550781 157.476562 157.269531 156.945312 158.203125 L 151.820312 167.21875 Z M 232.175781 167.21875 " fill-opacity="1" fill-rule="nonzero"/><path fill="rgb(97.648621%, 79.60968%, 50.588989%)" d="M 111.453125 167.398438 L 111.453125 161.429688 C 111.453125 161.171875 111.40625 160.921875 111.304688 160.679688 C 111.207031 160.441406 111.066406 160.230469 110.882812 160.046875 C 110.699219 159.863281 110.484375 159.71875 110.246094 159.621094 C 110.007812 159.523438 109.757812 159.472656 109.496094 159.472656 L 84.636719 159.472656 C 84.101562 159.472656 83.640625 159.660156 83.257812 160.042969 C 82.878906 160.425781 82.683594 160.886719 82.679688 161.429688 L 82.679688 167.398438 Z M 111.453125 167.398438 " fill-opacity="1" fill-rule="evenodd"/><path fill="rgb(96.078491%, 67.449951%, 21.569824%)" d="M 111.453125 167.398438 L 111.453125 161.429688 C 111.453125 161.152344 111.398438 160.890625 111.289062 160.636719 C 111.117188 160.585938 110.9375 160.558594 110.757812 160.558594 L 85.898438 160.558594 C 85.640625 160.5625 85.390625 160.613281 85.152344 160.710938 C 84.914062 160.8125 84.703125 160.953125 84.519531 161.136719 C 84.335938 161.320312 84.195312 161.53125 84.09375 161.769531 C 83.992188 162.007812 83.941406 162.257812 83.941406 162.515625 L 83.941406 167.398438 Z M 111.453125 167.398438 " fill-opacity="1" fill-rule="evenodd"/><path fill="rgb(77.648926%, 15.689087%, 33.329773%)" d="M 197.691406 201.191406 L 197.691406 195.070312 C 193.929688 193.183594 190 191.757812 185.90625 190.792969 C 181.8125 189.832031 177.660156 189.351562 173.453125 189.359375 C 172.039062 189.359375 170.640625 189.410156 169.253906 189.515625 C 174.472656 189.984375 179.507812 191.210938 184.355469 193.203125 C 189.203125 195.195312 193.648438 197.855469 197.691406 201.191406 Z M 197.691406 201.191406 " fill-opacity="1" fill-rule="evenodd"/><path fill="rgb(77.648926%, 15.689087%, 33.329773%)" d="M 197.691406 281.71875 C 195.933594 283.164062 194.09375 284.484375 192.164062 285.6875 C 190.238281 286.890625 188.238281 287.964844 186.171875 288.90625 C 184.101562 289.847656 181.980469 290.652344 179.808594 291.316406 C 177.632812 291.980469 175.425781 292.503906 173.1875 292.878906 C 170.945312 293.253906 168.6875 293.484375 166.417969 293.566406 C 164.144531 293.648438 161.878906 293.582031 159.617188 293.371094 C 157.351562 293.15625 155.113281 292.796875 152.898438 292.289062 C 150.683594 291.78125 148.507812 291.132812 146.378906 290.34375 C 148.3125 291.460938 150.304688 292.453125 152.359375 293.320312 C 154.414062 294.1875 156.515625 294.929688 158.660156 295.539062 C 160.808594 296.148438 162.984375 296.621094 165.1875 296.964844 C 167.394531 297.304688 169.609375 297.507812 171.839844 297.574219 C 174.070312 297.640625 176.296875 297.570312 178.519531 297.363281 C 180.738281 297.152344 182.941406 296.808594 185.121094 296.328125 C 187.296875 295.847656 189.4375 295.238281 191.542969 294.492188 C 193.644531 293.75 195.695312 292.878906 197.691406 291.878906 Z M 197.691406 281.71875 " fill-opacity="1" fill-rule="evenodd"/><path fill="rgb(100%, 100%, 100%)" d="M 205.601562 213.457031 C 206.625 214.964844 207.570312 216.519531 208.429688 218.125 L 205.601562 218.125 Z M 205.601562 213.457031 " fill-opacity="1" fill-rule="evenodd"/><path fill="rgb(47.44873%, 69.40918%, 63.919067%)" d="M 204.789062 208.28125 L 214.597656 208.28125 C 209.84375 202.730469 204.203125 198.316406 197.671875 195.035156 L 197.671875 201.191406 C 198.96875 202.261719 200.21875 203.402344 201.410156 204.582031 C 202.597656 205.765625 203.738281 206.980469 204.789062 208.28125 Z M 204.789062 208.28125 " fill-opacity="1" fill-rule="evenodd"/><path fill="rgb(47.44873%, 69.40918%, 63.919067%)" d="M 268.851562 218.125 L 268.851562 212.757812 L 205.601562 212.757812 L 205.601562 218.125 L 211.207031 218.125 C 211.8125 219.339844 212.371094 220.574219 212.882812 221.835938 C 213.390625 223.09375 213.851562 224.367188 214.261719 225.664062 C 214.671875 226.957031 215.03125 228.265625 215.339844 229.589844 C 215.648438 230.910156 215.902344 232.242188 216.109375 233.585938 C 216.3125 234.925781 216.464844 236.277344 216.5625 237.628906 C 216.660156 238.984375 216.707031 240.339844 216.699219 241.699219 C 216.695312 243.054688 216.632812 244.410156 216.523438 245.765625 C 216.410156 247.117188 216.242188 248.464844 216.027344 249.804688 C 215.808594 251.144531 215.539062 252.472656 215.21875 253.792969 C 214.894531 255.113281 214.523438 256.417969 214.101562 257.707031 C 213.675781 258.996094 213.203125 260.269531 212.679688 261.523438 C 212.160156 262.773438 211.585938 264.007812 210.96875 265.214844 C 210.351562 266.421875 209.6875 267.605469 208.976562 268.761719 C 208.265625 269.917969 207.507812 271.046875 206.710938 272.144531 C 205.910156 273.242188 205.070312 274.308594 204.1875 275.339844 C 203.304688 276.371094 202.386719 277.367188 201.425781 278.328125 C 200.234375 279.519531 198.984375 280.648438 197.691406 281.71875 L 197.691406 291.898438 C 199.300781 291.089844 200.863281 290.207031 202.386719 289.246094 C 203.90625 288.285156 205.375 287.25 206.792969 286.140625 C 208.210938 285.03125 209.570312 283.855469 210.871094 282.613281 C 212.171875 281.367188 213.40625 280.0625 214.578125 278.695312 C 215.746094 277.328125 216.847656 275.90625 217.875 274.433594 C 218.90625 272.957031 219.859375 271.429688 220.734375 269.859375 C 221.613281 268.289062 222.410156 266.679688 223.125 265.027344 C 223.839844 263.375 224.472656 261.695312 225.023438 259.980469 C 225.570312 258.265625 226.035156 256.53125 226.410156 254.769531 C 226.785156 253.011719 227.074219 251.234375 227.273438 249.449219 C 227.46875 247.660156 227.582031 245.867188 227.601562 244.066406 C 227.621094 242.265625 227.550781 240.472656 227.390625 238.679688 C 227.234375 236.886719 226.988281 235.105469 226.648438 233.339844 C 226.3125 231.570312 225.890625 229.824219 225.378906 228.097656 C 224.871094 226.371094 224.277344 224.675781 223.597656 223.007812 C 222.917969 221.34375 222.15625 219.714844 221.316406 218.125 Z M 268.851562 218.125 " fill-opacity="1" fill-rule="evenodd"/><g clip-path="url(#clip-0)"><path fill="rgb(12.548828%, 19.999695%, 26.669312%)" d="M 308.8125 91.761719 C 257.222656 54.121094 227.691406 64.472656 205.980469 94.238281 C 194.929688 109.394531 186.191406 129.535156 177.515625 150.769531 L 162.699219 150.769531 C 160.714844 150.75 158.847656 151.203125 157.089844 152.125 C 155.375 153.027344 154.039062 154.324219 153.089844 156.011719 L 146.613281 167.40625 L 115.949219 167.40625 L 115.949219 161.429688 C 115.949219 161.007812 115.90625 160.589844 115.824219 160.171875 C 115.742188 159.757812 115.617188 159.355469 115.457031 158.964844 C 115.292969 158.574219 115.09375 158.203125 114.859375 157.851562 C 114.625 157.5 114.359375 157.175781 114.058594 156.875 C 113.761719 156.578125 113.433594 156.308594 113.082031 156.074219 C 112.730469 155.839844 112.359375 155.640625 111.96875 155.480469 C 111.578125 155.316406 111.175781 155.195312 110.761719 155.113281 C 110.347656 155.027344 109.929688 154.988281 109.503906 154.988281 L 84.636719 154.988281 C 84.214844 154.988281 83.796875 155.03125 83.382812 155.113281 C 82.96875 155.195312 82.566406 155.320312 82.175781 155.480469 C 81.785156 155.644531 81.417969 155.84375 81.066406 156.078125 C 80.714844 156.3125 80.390625 156.582031 80.089844 156.878906 C 79.792969 157.179688 79.527344 157.503906 79.289062 157.855469 C 79.054688 158.207031 78.859375 158.578125 78.695312 158.96875 C 78.535156 159.359375 78.410156 159.761719 78.328125 160.175781 C 78.246094 160.589844 78.203125 161.007812 78.203125 161.429688 L 78.203125 167.398438 L 71.554688 167.398438 C 69.335938 167.402344 67.199219 167.828125 65.152344 168.679688 C 63.101562 169.53125 61.296875 170.742188 59.730469 172.316406 C 58.15625 173.878906 56.945312 175.6875 56.09375 177.734375 C 55.242188 179.78125 54.816406 181.914062 54.8125 184.132812 L 54.8125 201.953125 C 53.8125 201.960938 52.84375 202.128906 51.898438 202.449219 C 50.953125 202.773438 50.082031 203.234375 49.285156 203.835938 C 48.488281 204.4375 47.804688 205.148438 47.238281 205.96875 C 46.671875 206.789062 46.246094 207.679688 45.960938 208.636719 C 36.878906 209.5 29.394531 211.222656 23.363281 213.742188 C 16.238281 216.683594 11.109375 220.644531 7.726562 225.136719 L 7.527344 224.980469 C 7.316406 224.820312 7.082031 224.710938 6.824219 224.648438 C 6.566406 224.585938 6.304688 224.582031 6.046875 224.625 C 5.785156 224.671875 5.542969 224.769531 5.324219 224.917969 C 5.101562 225.066406 4.917969 225.25 4.777344 225.472656 C 2.613281 228.808594 1.242188 232.441406 0.664062 236.375 C 0.0195312 241.136719 0.453125 245.796875 1.964844 250.355469 C 6.183594 263.546875 22.71875 269.175781 40.933594 271.316406 C 45.515625 271.859375 50.199219 272.179688 54.804688 272.359375 L 54.804688 290.765625 C 54.804688 292.984375 55.234375 295.117188 56.085938 297.164062 C 56.9375 299.210938 58.148438 301.019531 59.71875 302.582031 C 61.285156 304.15625 63.09375 305.371094 65.144531 306.222656 C 67.195312 307.074219 69.332031 307.5 71.554688 307.5 L 257.515625 307.5 C 258.0625 307.5 258.609375 307.46875 259.15625 307.414062 C 259.699219 307.359375 260.242188 307.277344 260.78125 307.171875 C 261.316406 307.0625 261.847656 306.929688 262.371094 306.769531 C 262.894531 306.609375 263.410156 306.425781 263.917969 306.214844 C 264.421875 306.003906 264.917969 305.769531 265.398438 305.511719 C 265.882812 305.25 266.351562 304.96875 266.808594 304.664062 C 267.261719 304.359375 267.703125 304.035156 268.125 303.6875 C 268.550781 303.339844 268.953125 302.972656 269.34375 302.582031 C 269.730469 302.195312 270.097656 301.789062 270.445312 301.367188 C 270.792969 300.945312 271.117188 300.503906 271.421875 300.050781 C 271.726562 299.59375 272.007812 299.125 272.269531 298.640625 C 272.527344 298.160156 272.761719 297.664062 272.972656 297.160156 C 273.183594 296.652344 273.367188 296.136719 273.527344 295.613281 C 273.6875 295.089844 273.820312 294.558594 273.929688 294.019531 C 274.035156 293.484375 274.117188 292.941406 274.171875 292.398438 C 274.226562 291.851562 274.257812 291.304688 274.257812 290.757812 L 274.257812 220.546875 C 275.480469 220.539062 276.652344 220.296875 277.777344 219.824219 C 278.902344 219.351562 279.898438 218.683594 280.761719 217.824219 C 281.570312 217.015625 282.207031 216.09375 282.675781 215.054688 C 283.144531 214.011719 283.414062 212.921875 283.476562 211.785156 C 289.671875 209.472656 298.71875 207.558594 308.613281 205.460938 C 313.027344 204.53125 317.601562 203.566406 322.136719 202.519531 L 322.207031 202.832031 C 322.261719 203.078125 322.367188 203.304688 322.511719 203.511719 C 322.660156 203.71875 322.84375 203.886719 323.058594 204.023438 C 323.273438 204.15625 323.503906 204.242188 323.753906 204.285156 C 324.003906 204.328125 324.253906 204.320312 324.5 204.261719 C 347.402344 198.847656 369.9375 190.945312 374.027344 173.601562 C 378.0625 156.460938 362.789062 131.15625 308.8125 91.761719 Z M 54.804688 263.40625 C 50.492188 263.234375 46.179688 262.933594 41.953125 262.433594 C 26.847656 260.65625 13.324219 256.566406 10.46875 247.632812 C 9.382812 244.386719 9.066406 241.070312 9.519531 237.679688 C 9.886719 235.144531 10.75 232.792969 12.109375 230.621094 C 12.234375 230.417969 12.316406 230.203125 12.359375 229.96875 C 12.402344 229.734375 12.402344 229.5 12.355469 229.265625 C 12.3125 229.03125 12.226562 228.8125 12.101562 228.613281 C 11.972656 228.410156 11.816406 228.238281 11.625 228.09375 L 11.296875 227.84375 C 14.210938 223.953125 18.722656 220.523438 25.097656 217.910156 C 30.59375 215.632812 37.457031 213.984375 45.796875 213.183594 C 46.179688 214.988281 47.023438 216.542969 48.324219 217.847656 C 49.1875 218.710938 50.179688 219.378906 51.304688 219.851562 C 52.429688 220.324219 53.601562 220.5625 54.820312 220.574219 Z M 54.804688 216.070312 C 53.503906 216.054688 52.390625 215.585938 51.472656 214.664062 C 51.140625 214.332031 50.863281 213.953125 50.640625 213.535156 C 50.417969 213.121094 50.261719 212.679688 50.167969 212.214844 C 50.074219 211.753906 50.050781 211.285156 50.09375 210.816406 C 50.136719 210.34375 50.25 209.890625 50.425781 209.453125 C 50.605469 209.015625 50.839844 208.609375 51.136719 208.242188 C 51.433594 207.875 51.777344 207.558594 52.167969 207.289062 C 52.558594 207.023438 52.976562 206.816406 53.425781 206.671875 C 53.878906 206.53125 54.339844 206.453125 54.8125 206.445312 Z M 156.96875 158.210938 C 157.5 157.28125 158.238281 156.5625 159.1875 156.054688 C 160.289062 155.492188 161.460938 155.222656 162.699219 155.246094 L 221.351562 155.246094 C 222.589844 155.222656 223.757812 155.492188 224.859375 156.054688 C 225.808594 156.5625 226.546875 157.28125 227.078125 158.210938 L 232.191406 167.226562 L 151.847656 167.226562 Z M 82.679688 161.429688 C 82.683594 160.886719 82.878906 160.425781 83.257812 160.042969 C 83.640625 159.660156 84.101562 159.472656 84.636719 159.472656 L 109.496094 159.472656 C 109.757812 159.472656 110.007812 159.523438 110.246094 159.621094 C 110.484375 159.71875 110.699219 159.863281 110.882812 160.046875 C 111.066406 160.230469 111.207031 160.441406 111.304688 160.679688 C 111.40625 160.921875 111.453125 161.171875 111.453125 161.429688 L 111.453125 167.398438 L 82.679688 167.398438 Z M 269.78125 290.757812 C 269.777344 291.5625 269.699219 292.359375 269.539062 293.148438 C 269.378906 293.9375 269.144531 294.703125 268.835938 295.445312 C 268.527344 296.1875 268.148438 296.894531 267.703125 297.5625 C 267.253906 298.230469 266.746094 298.847656 266.175781 299.417969 C 265.609375 299.988281 264.988281 300.496094 264.320312 300.941406 C 263.652344 301.390625 262.945312 301.769531 262.203125 302.078125 C 261.460938 302.386719 260.695312 302.621094 259.90625 302.78125 C 259.117188 302.941406 258.320312 303.019531 257.515625 303.023438 L 71.554688 303.023438 C 69.933594 303.015625 68.378906 302.703125 66.882812 302.078125 C 65.390625 301.453125 64.070312 300.566406 62.929688 299.417969 C 61.777344 298.269531 60.886719 296.945312 60.261719 295.441406 C 59.636719 293.941406 59.324219 292.375 59.324219 290.75 L 59.324219 212.757812 L 121.003906 212.757812 C 120.378906 213.710938 119.785156 214.679688 119.222656 215.667969 C 118.660156 216.660156 118.128906 217.664062 117.632812 218.691406 C 117.136719 219.714844 116.675781 220.753906 116.246094 221.808594 C 115.820312 222.863281 115.425781 223.929688 115.070312 225.007812 C 114.710938 226.089844 114.386719 227.179688 114.101562 228.28125 C 113.8125 229.382812 113.5625 230.492188 113.347656 231.609375 C 113.132812 232.726562 112.957031 233.851562 112.816406 234.980469 C 112.675781 236.109375 112.570312 237.242188 112.503906 238.378906 C 112.4375 239.511719 112.410156 240.648438 112.417969 241.789062 C 112.425781 242.925781 112.46875 244.0625 112.550781 245.199219 C 112.632812 246.332031 112.753906 247.464844 112.910156 248.589844 C 113.066406 249.71875 113.257812 250.839844 113.488281 251.953125 C 113.714844 253.066406 113.980469 254.171875 114.285156 255.269531 C 114.585938 256.367188 114.921875 257.453125 115.296875 258.53125 C 115.667969 259.605469 116.078125 260.667969 116.519531 261.714844 C 116.960938 262.761719 117.4375 263.796875 117.949219 264.8125 C 118.457031 265.832031 119 266.828125 119.574219 267.8125 C 120.152344 268.792969 120.757812 269.753906 121.394531 270.699219 C 122.035156 271.640625 122.703125 272.558594 123.402344 273.457031 C 124.101562 274.355469 124.828125 275.230469 125.582031 276.082031 C 126.339844 276.933594 127.121094 277.757812 127.933594 278.558594 C 128.742188 279.355469 129.578125 280.128906 130.4375 280.875 C 131.296875 281.617188 132.179688 282.332031 133.089844 283.019531 C 133.996094 283.707031 134.925781 284.363281 135.875 284.992188 C 136.824219 285.617188 137.792969 286.210938 138.78125 286.773438 C 139.773438 287.335938 140.777344 287.867188 141.800781 288.363281 C 142.824219 288.859375 143.863281 289.324219 144.917969 289.753906 C 145.972656 290.179688 147.039062 290.574219 148.121094 290.933594 C 149.199219 291.292969 150.289062 291.617188 151.390625 291.90625 C 152.492188 292.191406 153.601562 292.445312 154.71875 292.660156 C 155.835938 292.875 156.957031 293.050781 158.089844 293.195312 C 159.21875 293.335938 160.351562 293.441406 161.484375 293.507812 C 162.621094 293.574219 163.757812 293.605469 164.894531 293.597656 C 166.035156 293.59375 167.171875 293.546875 168.304688 293.464844 C 169.441406 293.386719 170.570312 293.265625 171.699219 293.113281 C 172.828125 292.957031 173.949219 292.765625 175.0625 292.535156 C 176.175781 292.308594 177.285156 292.042969 178.378906 291.742188 C 179.476562 291.441406 180.566406 291.105469 181.640625 290.730469 C 182.714844 290.359375 183.777344 289.953125 184.824219 289.511719 C 185.875 289.070312 186.90625 288.59375 187.925781 288.085938 C 188.945312 287.574219 189.941406 287.035156 190.925781 286.460938 C 191.90625 285.882812 192.871094 285.277344 193.8125 284.640625 C 194.753906 284.003906 195.675781 283.335938 196.574219 282.636719 C 197.472656 281.9375 198.347656 281.210938 199.199219 280.457031 C 200.050781 279.703125 200.875 278.921875 201.675781 278.109375 C 202.476562 277.300781 203.25 276.46875 203.996094 275.609375 C 204.742188 274.746094 205.457031 273.863281 206.144531 272.957031 C 206.832031 272.050781 207.488281 271.125 208.117188 270.171875 C 208.742188 269.222656 209.339844 268.253906 209.902344 267.265625 C 210.464844 266.277344 210.996094 265.269531 211.492188 264.25 C 211.992188 263.226562 212.457031 262.1875 212.886719 261.132812 C 213.316406 260.078125 213.710938 259.011719 214.070312 257.933594 C 214.429688 256.851562 214.753906 255.761719 215.042969 254.664062 C 215.332031 253.5625 215.582031 252.453125 215.800781 251.335938 C 216.015625 250.21875 216.195312 249.09375 216.335938 247.964844 C 216.480469 246.835938 216.585938 245.703125 216.652344 244.570312 C 216.722656 243.433594 216.753906 242.296875 216.746094 241.15625 C 216.742188 240.019531 216.699219 238.882812 216.617188 237.75 C 216.535156 236.613281 216.417969 235.480469 216.265625 234.355469 C 216.109375 233.226562 215.917969 232.105469 215.691406 230.992188 C 215.464844 229.875 215.199219 228.769531 214.898438 227.671875 C 214.597656 226.574219 214.261719 225.488281 213.890625 224.410156 C 213.519531 223.335938 213.113281 222.273438 212.675781 221.226562 C 212.234375 220.175781 211.757812 219.140625 211.25 218.125 C 211.164062 217.953125 211.058594 217.777344 210.972656 217.605469 C 210.664062 217.011719 210.351562 216.425781 210.023438 215.882812 L 209.535156 215.019531 C 209.195312 214.449219 208.84375 213.890625 208.488281 213.292969 C 208.378906 213.113281 208.273438 212.933594 208.152344 212.75 L 269.816406 212.75 Z M 127.023438 212.757812 C 128.222656 211.179688 129.523438 209.6875 130.921875 208.28125 L 131.144531 208.050781 C 132.242188 206.957031 133.386719 205.921875 134.582031 204.945312 C 135.777344 203.964844 137.019531 203.046875 138.304688 202.191406 C 139.589844 201.332031 140.914062 200.539062 142.277344 199.8125 C 143.640625 199.085938 145.039062 198.429688 146.464844 197.839844 C 147.894531 197.25 149.347656 196.730469 150.828125 196.28125 C 152.308594 195.835938 153.804688 195.460938 155.320312 195.160156 C 156.835938 194.859375 158.363281 194.636719 159.902344 194.484375 C 161.441406 194.335938 162.980469 194.257812 164.527344 194.261719 C 166.070312 194.261719 167.613281 194.339844 169.152344 194.492188 C 170.691406 194.644531 172.214844 194.871094 173.730469 195.171875 C 175.246094 195.476562 176.746094 195.851562 178.222656 196.300781 C 179.703125 196.75 181.15625 197.269531 182.582031 197.863281 C 184.011719 198.453125 185.40625 199.113281 186.769531 199.84375 C 188.128906 200.570312 189.453125 201.363281 190.738281 202.222656 C 192.023438 203.082031 193.265625 204.003906 194.457031 204.984375 C 195.652344 205.964844 196.796875 207 197.890625 208.09375 L 198.113281 208.324219 C 199.511719 209.730469 200.8125 211.222656 202.011719 212.800781 C 202.898438 213.960938 203.726562 215.160156 204.503906 216.394531 C 205.277344 217.632812 205.992188 218.902344 206.648438 220.203125 C 207.304688 221.507812 207.902344 222.835938 208.433594 224.195312 C 208.96875 225.550781 209.4375 226.933594 209.84375 228.332031 C 210.25 229.734375 210.589844 231.152344 210.863281 232.585938 C 211.140625 234.019531 211.347656 235.460938 211.488281 236.914062 C 211.628906 238.363281 211.699219 239.820312 211.707031 241.277344 C 211.710938 242.738281 211.652344 244.195312 211.519531 245.648438 C 211.390625 247.101562 211.195312 248.542969 210.933594 249.980469 C 210.667969 251.414062 210.339844 252.832031 209.945312 254.238281 C 209.550781 255.644531 209.09375 257.027344 208.570312 258.386719 C 208.046875 259.75 207.460938 261.085938 206.816406 262.394531 C 206.167969 263.699219 205.460938 264.976562 204.699219 266.21875 C 203.933594 267.460938 203.113281 268.664062 202.234375 269.832031 C 201.359375 270.996094 200.429688 272.121094 199.449219 273.199219 C 198.46875 274.28125 197.441406 275.3125 196.363281 276.296875 C 195.289062 277.28125 194.167969 278.214844 193.007812 279.097656 C 191.84375 279.976562 190.640625 280.804688 189.402344 281.574219 C 188.164062 282.34375 186.890625 283.054688 185.585938 283.707031 C 184.28125 284.355469 182.949219 284.945312 181.589844 285.476562 C 180.230469 286.003906 178.847656 286.46875 177.445312 286.867188 C 176.042969 287.269531 174.621094 287.601562 173.1875 287.871094 C 171.753906 288.140625 170.3125 288.34375 168.859375 288.476562 C 167.40625 288.613281 165.949219 288.679688 164.492188 288.679688 C 163.03125 288.679688 161.578125 288.613281 160.125 288.476562 C 158.671875 288.34375 157.230469 288.140625 155.792969 287.871094 C 154.359375 287.601562 152.941406 287.269531 151.539062 286.867188 C 150.136719 286.46875 148.753906 286.003906 147.394531 285.476562 C 146.035156 284.945312 144.703125 284.355469 143.398438 283.703125 C 142.09375 283.054688 140.820312 282.34375 139.582031 281.574219 C 138.339844 280.804688 137.140625 279.976562 135.976562 279.097656 C 134.816406 278.214844 133.695312 277.28125 132.617188 276.296875 C 131.542969 275.3125 130.515625 274.28125 129.535156 273.199219 C 128.554688 272.121094 127.625 270.996094 126.746094 269.832031 C 125.871094 268.664062 125.050781 267.460938 124.285156 266.21875 C 123.519531 264.976562 122.816406 263.699219 122.167969 262.394531 C 121.523438 261.085938 120.9375 259.75 120.414062 258.386719 C 119.890625 257.027344 119.433594 255.644531 119.039062 254.238281 C 118.644531 252.832031 118.3125 251.414062 118.050781 249.980469 C 117.789062 248.542969 117.589844 247.101562 117.460938 245.648438 C 117.332031 244.195312 117.269531 242.738281 117.277344 241.277344 C 117.28125 239.820312 117.355469 238.363281 117.496094 236.914062 C 117.636719 235.460938 117.84375 234.019531 118.121094 232.585938 C 118.394531 231.152344 118.734375 229.734375 119.140625 228.332031 C 119.546875 226.933594 120.015625 225.550781 120.546875 224.195312 C 121.082031 222.835938 121.675781 221.507812 122.335938 220.203125 C 122.992188 218.902344 123.707031 217.632812 124.480469 216.394531 C 125.257812 215.160156 126.085938 213.960938 126.972656 212.800781 Z M 269.78125 208.28125 L 204.789062 208.28125 C 203.71875 206.984375 202.59375 205.738281 201.410156 204.546875 C 200.199219 203.339844 198.933594 202.195312 197.613281 201.109375 C 196.292969 200.027344 194.921875 199.011719 193.5 198.0625 C 192.082031 197.113281 190.617188 196.234375 189.109375 195.429688 C 187.601562 194.625 186.058594 193.894531 184.480469 193.242188 C 182.902344 192.589844 181.296875 192.015625 179.660156 191.519531 C 178.027344 191.023438 176.371094 190.609375 174.695312 190.273438 C 173.019531 189.941406 171.332031 189.691406 169.632812 189.523438 C 167.929688 189.355469 166.226562 189.273438 164.519531 189.273438 C 162.808594 189.273438 161.105469 189.355469 159.40625 189.523438 C 157.703125 189.691406 156.015625 189.941406 154.339844 190.273438 C 152.664062 190.609375 151.007812 191.023438 149.375 191.519531 C 147.738281 192.015625 146.132812 192.589844 144.554688 193.242188 C 142.976562 193.894531 141.433594 194.625 139.925781 195.429688 C 138.417969 196.234375 136.953125 197.113281 135.535156 198.0625 C 134.113281 199.011719 132.742188 200.027344 131.421875 201.109375 C 130.101562 202.195312 128.835938 203.339844 127.628906 204.546875 C 126.4375 205.738281 125.308594 206.988281 124.238281 208.28125 L 59.28125 208.28125 L 59.28125 184.132812 C 59.28125 183.328125 59.363281 182.53125 59.523438 181.742188 C 59.683594 180.953125 59.917969 180.1875 60.226562 179.441406 C 60.535156 178.699219 60.914062 177.992188 61.363281 177.324219 C 61.808594 176.65625 62.320312 176.039062 62.886719 175.46875 C 63.457031 174.898438 64.078125 174.390625 64.746094 173.945312 C 65.414062 173.496094 66.121094 173.117188 66.863281 172.808594 C 67.609375 172.5 68.375 172.265625 69.164062 172.109375 C 69.953125 171.949219 70.75 171.867188 71.554688 171.867188 L 257.515625 171.867188 C 259.144531 171.867188 260.707031 172.179688 262.210938 172.804688 C 263.710938 173.429688 265.035156 174.320312 266.183594 175.472656 C 267.332031 176.613281 268.21875 177.933594 268.84375 179.425781 C 269.46875 180.921875 269.785156 182.476562 269.789062 184.097656 Z M 277.605469 214.65625 C 276.683594 215.578125 275.570312 216.046875 274.265625 216.0625 L 274.265625 206.4375 C 275.570312 206.460938 276.683594 206.929688 277.605469 207.851562 C 277.828125 208.074219 278.023438 208.320312 278.199219 208.582031 C 278.375 208.84375 278.523438 209.121094 278.640625 209.414062 C 278.761719 209.707031 278.851562 210.007812 278.914062 210.316406 C 278.976562 210.625 279.007812 210.9375 279.007812 211.253906 C 279.007812 211.570312 278.976562 211.882812 278.914062 212.191406 C 278.851562 212.5 278.761719 212.800781 278.640625 213.09375 C 278.523438 213.386719 278.375 213.664062 278.199219 213.925781 C 278.023438 214.1875 277.828125 214.433594 277.605469 214.65625 Z M 365.308594 171.53125 C 362.3125 184.210938 342.632812 190.757812 322.472656 195.507812 C 322.230469 195.566406 322.003906 195.667969 321.800781 195.816406 C 321.59375 195.960938 321.425781 196.140625 321.292969 196.355469 C 321.160156 196.566406 321.070312 196.796875 321.03125 197.046875 C 320.988281 197.292969 320.996094 197.539062 321.050781 197.785156 L 321.128906 198.121094 C 316.566406 199.164062 312.054688 200.125 307.699219 201.046875 C 298.003906 203.097656 289.101562 204.980469 282.605469 207.300781 C 282.234375 206.503906 281.757812 205.777344 281.179688 205.117188 C 280.601562 204.457031 279.945312 203.890625 279.207031 203.417969 C 278.46875 202.941406 277.675781 202.582031 276.835938 202.328125 C 275.996094 202.078125 275.136719 201.949219 274.257812 201.941406 L 274.257812 184.140625 C 274.257812 181.921875 273.832031 179.785156 272.980469 177.738281 C 272.128906 175.6875 270.914062 173.878906 269.339844 172.316406 C 267.777344 170.742188 265.96875 169.53125 263.921875 168.679688 C 261.875 167.828125 259.742188 167.402344 257.523438 167.398438 L 237.425781 167.398438 L 230.949219 156.003906 C 230 154.3125 228.664062 153.015625 226.949219 152.113281 C 225.191406 151.195312 223.324219 150.742188 221.339844 150.761719 L 187.203125 150.761719 C 195.199219 131.265625 203.332031 112.988281 213.191406 99.484375 C 231.804688 73.96875 257.601562 65.4375 303.558594 98.972656 C 353.9375 135.734375 368.558594 157.789062 365.308594 171.546875 Z M 365.308594 171.53125 " fill-opacity="1" fill-rule="evenodd"/></g><path fill="rgb(12.548828%, 19.999695%, 26.669312%)" d="M 248.667969 182.484375 C 248.210938 182.023438 247.683594 181.667969 247.085938 181.417969 C 246.488281 181.167969 245.863281 181.039062 245.214844 181.035156 L 221.339844 181.035156 C 220.691406 181.039062 220.070312 181.164062 219.472656 181.417969 C 218.875 181.667969 218.347656 182.023438 217.890625 182.484375 C 217.429688 182.941406 217.074219 183.46875 216.824219 184.066406 C 216.574219 184.664062 216.445312 185.285156 216.441406 185.933594 L 216.441406 197.355469 C 216.445312 198.003906 216.574219 198.625 216.824219 199.222656 C 217.074219 199.820312 217.429688 200.347656 217.890625 200.804688 C 218.347656 201.265625 218.875 201.621094 219.472656 201.871094 C 220.070312 202.125 220.691406 202.25 221.339844 202.253906 L 245.191406 202.253906 C 245.839844 202.25 246.460938 202.121094 247.058594 201.871094 C 247.65625 201.621094 248.183594 201.265625 248.640625 200.804688 C 249.597656 199.851562 250.078125 198.703125 250.089844 197.355469 L 250.089844 185.960938 C 250.074219 184.613281 249.59375 183.464844 248.640625 182.511719 Z M 245.640625 197.378906 C 245.640625 197.5 245.601562 197.605469 245.519531 197.691406 C 245.429688 197.777344 245.324219 197.820312 245.199219 197.820312 L 221.339844 197.820312 C 221.21875 197.820312 221.117188 197.777344 221.03125 197.691406 C 220.945312 197.605469 220.902344 197.5 220.902344 197.378906 L 220.902344 185.960938 C 220.902344 185.835938 220.945312 185.730469 221.03125 185.640625 C 221.117188 185.558594 221.222656 185.519531 221.339844 185.519531 L 245.191406 185.519531 C 245.3125 185.515625 245.421875 185.554688 245.507812 185.640625 C 245.59375 185.730469 245.636719 185.835938 245.628906 185.960938 Z M 245.640625 197.378906 " fill-opacity="1" fill-rule="evenodd"/><path fill="rgb(12.548828%, 19.999695%, 26.669312%)" d="M 11.253906 107.304688 C 11.386719 107.394531 11.414062 107.503906 11.332031 107.640625 C 10.96875 108.273438 10.203125 110.367188 14.386719 111.695312 C 14.496094 111.730469 14.523438 111.800781 14.472656 111.902344 C 14.222656 112.359375 13.753906 113.800781 17.058594 114.808594 C 17.058594 114.808594 17.058594 114.863281 17.058594 114.863281 C 16.679688 115.09375 14.667969 116.457031 21.5 117.742188 L 21.5 117.820312 C 20.84375 118.15625 17.457031 120.019531 24.167969 120.632812 C 24.167969 120.632812 24.210938 120.683594 24.167969 120.699219 C 23.621094 121.148438 20.636719 123.832031 27.269531 124.210938 C 27.316406 124.242188 27.316406 124.269531 27.269531 124.296875 C 26.789062 124.816406 24.597656 127.359375 29.859375 127.136719 C 29.910156 127.132812 29.929688 127.15625 29.910156 127.203125 C 29.773438 127.617188 29.1875 129.9375 33.007812 129.429688 C 33.007812 129.429688 33.058594 129.480469 33.007812 129.492188 C 32.628906 129.957031 30.851562 132.320312 34.730469 132.257812 C 34.785156 132.535156 35.484375 135.96875 36.835938 134.425781 L 36.890625 134.425781 C 36.890625 134.863281 36.734375 136.648438 38.097656 136.492188 C 38.175781 136.804688 38.742188 139.140625 40.804688 139.640625 C 40.867188 139.664062 40.886719 139.703125 40.855469 139.761719 C 39.699219 141.367188 24.46875 162.257812 18.378906 167.121094 C 18.378906 167.121094 16.738281 168.847656 18.800781 168.582031 C 18.722656 168.8125 18.550781 169.789062 19.835938 168.996094 L 19.886719 168.996094 C 20.449219 168.582031 29.167969 162.164062 29.808594 161.4375 C 29.945312 161.285156 44.289062 155.960938 45.152344 154.925781 L 45.203125 154.925781 C 62.636719 152.527344 70.734375 140.824219 71.589844 131.972656 C 71.589844 131.972656 78.417969 124.710938 79.203125 117.96875 C 79.203125 117.96875 80.25 114.65625 85.449219 112.871094 C 90.652344 111.082031 100.976562 108.402344 101.105469 108.554688 C 101.105469 108.554688 102.457031 107.867188 100.90625 107.796875 C 100.90625 107.796875 90.71875 108.539062 83.464844 110.851562 C 82.273438 111.195312 81.070312 111.230469 79.859375 110.953125 C 76.410156 109.945312 69.15625 108.011719 64.957031 112.488281 C 63.292969 114.480469 61.855469 116.621094 60.644531 118.914062 C 60.382812 119.503906 60.023438 120.027344 59.566406 120.476562 C 58.867188 121.148438 57.839844 121.777344 56.777344 121.113281 C 56.847656 120.855469 29.472656 90.0625 11.925781 92.195312 C 11.925781 92.195312 9.140625 93.222656 13.082031 94.496094 C 13.226562 94.546875 13.304688 94.644531 13.320312 94.792969 C 13.335938 94.945312 13.28125 95.058594 13.152344 95.136719 C 11.953125 95.851562 11.425781 97.773438 16.601562 98.515625 C 16.652344 98.515625 16.664062 98.59375 16.601562 98.613281 C 13.046875 99.472656 19.621094 103.476562 25.175781 106.78125 C 27.21875 107.773438 29.136719 108.976562 30.921875 110.386719 C 30.980469 110.441406 31.046875 110.492188 31.117188 110.539062 L 28.988281 109.210938 C 25.003906 106.917969 20.785156 105.191406 16.335938 104.035156 C 15.273438 103.90625 14.09375 103.804688 12.753906 103.726562 C 11.347656 103.6875 9.964844 103.867188 8.613281 104.269531 C 8.347656 104.882812 8.917969 105.789062 11.253906 107.304688 Z M 72.390625 115.585938 C 72.414062 115.371094 72.476562 115.167969 72.582031 114.980469 C 72.683594 114.789062 72.824219 114.628906 72.992188 114.496094 C 73.164062 114.359375 73.351562 114.265625 73.5625 114.210938 C 73.769531 114.152344 73.980469 114.140625 74.195312 114.167969 C 74.410156 114.199219 74.609375 114.269531 74.796875 114.378906 C 74.980469 114.492188 75.140625 114.632812 75.265625 114.808594 C 75.394531 114.984375 75.484375 115.175781 75.53125 115.386719 C 75.582031 115.597656 75.585938 115.808594 75.550781 116.023438 C 75.511719 116.238281 75.4375 116.433594 75.316406 116.617188 C 75.199219 116.796875 75.050781 116.949219 74.875 117.070312 C 74.695312 117.191406 74.5 117.273438 74.285156 117.316406 C 74.074219 117.355469 73.863281 117.355469 73.648438 117.3125 C 73.453125 117.28125 73.269531 117.210938 73.097656 117.105469 C 72.925781 117.003906 72.785156 116.871094 72.664062 116.707031 C 72.546875 116.546875 72.464844 116.367188 72.417969 116.175781 C 72.371094 115.980469 72.359375 115.785156 72.390625 115.585938 Z M 72.390625 115.585938 " fill-opacity="1" fill-rule="evenodd"/><path fill="rgb(100%, 100%, 100%)" d="M 150.355469 240.957031 C 151.027344 240.953125 151.691406 240.886719 152.347656 240.753906 C 153.003906 240.621094 153.640625 240.425781 154.261719 240.164062 C 154.878906 239.90625 155.46875 239.589844 156.023438 239.214844 C 156.582031 238.84375 157.09375 238.417969 157.566406 237.941406 C 158.039062 237.464844 158.464844 236.949219 158.835938 236.390625 C 159.207031 235.832031 159.519531 235.242188 159.773438 234.621094 C 160.027344 234 160.21875 233.363281 160.351562 232.703125 C 160.480469 232.046875 160.542969 231.382812 160.542969 230.710938 C 160.539062 230.039062 160.472656 229.375 160.339844 228.71875 C 160.207031 228.0625 160.011719 227.421875 159.753906 226.804688 C 159.496094 226.183594 159.183594 225.597656 158.808594 225.039062 C 158.433594 224.484375 158.011719 223.96875 157.535156 223.496094 C 157.0625 223.023438 156.542969 222.597656 155.984375 222.226562 C 155.425781 221.855469 154.839844 221.542969 154.21875 221.285156 C 153.597656 221.03125 152.960938 220.835938 152.300781 220.707031 C 151.644531 220.578125 150.980469 220.511719 150.308594 220.511719 C 149.636719 220.515625 148.972656 220.582031 148.316406 220.710938 C 147.660156 220.84375 147.019531 221.039062 146.402344 221.292969 C 145.78125 221.550781 145.195312 221.867188 144.636719 222.238281 C 144.078125 222.613281 143.5625 223.035156 143.089844 223.511719 C 142.613281 223.984375 142.191406 224.5 141.820312 225.058594 C 141.449219 225.617188 141.132812 226.207031 140.875 226.824219 C 140.621094 227.445312 140.425781 228.085938 140.296875 228.742188 C 140.164062 229.398438 140.097656 230.0625 140.097656 230.734375 C 140.101562 231.40625 140.167969 232.074219 140.300781 232.730469 C 140.433594 233.390625 140.628906 234.03125 140.886719 234.652344 C 141.144531 235.273438 141.460938 235.863281 141.835938 236.417969 C 142.207031 236.976562 142.632812 237.496094 143.109375 237.96875 C 143.585938 238.445312 144.105469 238.867188 144.664062 239.238281 C 145.222656 239.613281 145.8125 239.925781 146.4375 240.183594 C 147.058594 240.4375 147.699219 240.632812 148.355469 240.761719 C 149.015625 240.890625 149.683594 240.957031 150.355469 240.957031 Z M 150.355469 240.957031 " fill-opacity="1" fill-rule="evenodd"/></svg>